<svg xmlns="http://www.w3.org/2000/svg" viewBox="0 0 26.4 27.5"><defs><style>.cls-1{fill:none;stroke:#fff;stroke-linecap:round;stroke-linejoin:round;stroke-width:3.84px;}.cls-2{fill:#fff;}</style></defs><g id="レイヤー_2" data-name="レイヤー 2"><g id="レイヤー_1-2" data-name="レイヤー 1"><path class="cls-1" d="M3.59,10.79H24.48v1.79c0,6.32-3.55,13-10.64,13-6.44,0-11.67-4.89-11.92-14.76Z"/><path class="cls-2" d="M7.73,1.92a4.93,4.93,0,0,1,0,.55L7.77,2A4.3,4.3,0,0,1,7.5,3a1.4,1.4,0,0,0,0,.76,1.43,1.43,0,0,0,.23.72A1.49,1.49,0,0,0,8.19,5a1.49,1.49,0,0,0,.66.34l.51.07a2,2,0,0,0,1-.26l.38-.3a1.89,1.89,0,0,0,.5-.85,4.1,4.1,0,0,0,.22-.78,6.42,6.42,0,0,0,.12-.88,2.82,2.82,0,0,0,0-.41,1.46,1.46,0,0,0-.16-.74A1.48,1.48,0,0,0,11,.56a1.4,1.4,0,0,0-.62-.39A1.44,1.44,0,0,0,9.65,0L9.14.07A2,2,0,0,0,8.3.56L8,1a1.87,1.87,0,0,0-.27,1Z"/><path class="cls-2" d="M16.29,1.92V2l.07-.51a6.59,6.59,0,0,1-.3,1.24,1.44,1.44,0,0,0,0,.77,1.41,1.41,0,0,0,.22.71,1.37,1.37,0,0,0,.5.54,1.42,1.42,0,0,0,.65.35l.51.06a1.83,1.83,0,0,0,1-.26l.39-.3a1.87,1.87,0,0,0,.49-.85,8.62,8.62,0,0,0,.38-1.83A1.47,1.47,0,0,0,20,1.18a1.42,1.42,0,0,0-.39-.61A1.48,1.48,0,0,0,19,.17,1.47,1.47,0,0,0,18.21,0L17.7.07a1.89,1.89,0,0,0-.85.5l-.3.38a2,2,0,0,0-.26,1Z"/></g></g></svg>