<svg xmlns="http://www.w3.org/2000/svg" viewBox="0 0 178.49 139.07"><defs><style>.cls-1{opacity:0.89;}.cls-2{fill:#82cbca;}.cls-3{font-size:39.07px;font-family:Crescent-Regular, Crescent;letter-spacing:0.2em;}.cls-3,.cls-7{fill:#fff;}.cls-4{letter-spacing:0.3em;}.cls-5{letter-spacing:0.4em;}.cls-6{fill:none;stroke:#fff;stroke-linecap:round;stroke-linejoin:round;stroke-width:2.85px;}</style></defs><g id="レイヤー_2" data-name="レイヤー 2"><g id="レイヤー_1-2" data-name="レイヤー 1"><g class="cls-1"><ellipse class="cls-2" cx="53.23" cy="60.58" rx="53.23" ry="41.27"/><polygon class="cls-2" points="83.46 101.85 80 84.2 66.44 96.02 83.46 101.85"/></g><g class="cls-1"><ellipse class="cls-2" cx="119.37" cy="41.27" rx="53.23" ry="41.27"/><polygon class="cls-2" points="149.6 82.54 146.15 64.89 132.59 76.71 149.6 82.54"/></g><g class="cls-1"><ellipse class="cls-2" cx="125.26" cy="89.98" rx="53.23" ry="41.27"/><polygon class="cls-2" points="95.03 131.25 98.49 113.6 112.05 125.42 95.03 131.25"/></g><g class="cls-1"><ellipse class="cls-2" cx="79.93" cy="97.8" rx="53.23" ry="41.27"/><polygon class="cls-2" points="49.7 139.07 53.16 121.42 66.71 133.24 49.7 139.07"/></g><g class="cls-1"><text class="cls-3" transform="translate(41.29 82.26)">c<tspan class="cls-4" x="27.11" y="0">o</tspan><tspan class="cls-5" x="61.02" y="0" xml:space="preserve"> e</tspan></text><path class="cls-6" d="M102.39,70.54H117.9v1.32c0,4.7-2.63,9.66-7.9,9.66-4.78,0-8.66-3.63-8.85-11Z"/><path class="cls-7" d="M105.47,64a2.73,2.73,0,0,1,0,.41l0-.38a3.18,3.18,0,0,1-.19.75,1.56,1.56,0,0,0,.14,1.1,1,1,0,0,0,.37.4,1.13,1.13,0,0,0,.48.26l.38.05a1.39,1.39,0,0,0,.72-.2l.29-.22a1.44,1.44,0,0,0,.37-.63,2.94,2.94,0,0,0,.16-.58c0-.21.07-.43.09-.65s0-.21,0-.31a1.49,1.49,0,0,0-.42-1,1.08,1.08,0,0,0-.46-.3,1,1,0,0,0-.55-.12l-.38,0a1.44,1.44,0,0,0-.63.37l-.22.28a1.44,1.44,0,0,0-.19.72Z"/><path class="cls-7" d="M111.82,64V64l0-.38a4.2,4.2,0,0,1-.22.93,1,1,0,0,0,0,.56,1,1,0,0,0,.17.53,1.19,1.19,0,0,0,.36.41,1.09,1.09,0,0,0,.49.25l.38,0a1.44,1.44,0,0,0,.72-.19l.29-.23a1.41,1.41,0,0,0,.36-.63,6.23,6.23,0,0,0,.28-1.35,1,1,0,0,0-.12-.55,1.33,1.33,0,0,0-.76-.76,1,1,0,0,0-.55-.12l-.38,0a1.36,1.36,0,0,0-.62.37l-.23.29a1.39,1.39,0,0,0-.19.72Z"/></g></g></g></svg>