<svg xmlns="http://www.w3.org/2000/svg" xmlns:xlink="http://www.w3.org/1999/xlink" viewBox="0 0 1367 623.23"><defs><style>.cls-1{fill:url(#名称未設定グラデーション_21);filter:url(#luminosity-noclip);}.cls-2{fill:url(#名称未設定グラデーション_162);filter:url(#luminosity-invert);}.cls-3{mask:url(#mask);}.cls-4{fill:url(#名称未設定グラデーション_10);}.cls-5{mask:url(#mask-2);}.cls-6{fill:#fbbbc2;}.cls-7{fill:url(#名称未設定グラデーション_53);}.cls-8{fill:url(#名称未設定グラデーション_53-2);}.cls-9{fill:url(#名称未設定グラデーション_117);}.cls-10{fill:url(#名称未設定グラデーション_117-2);}.cls-11{fill:#f49e9b;}.cls-12{fill:#fce1df;}.cls-13{stroke-miterlimit:10;stroke-width:0.84px;fill:url(#名称未設定グラデーション_108);stroke:url(#名称未設定グラデーション_108-2);}.cls-14{fill:#fcdade;}.cls-15{fill:url(#名称未設定グラデーション_34);}.cls-16{fill:url(#名称未設定グラデーション_32);}.cls-17{fill:url(#名称未設定グラデーション_124);}.cls-18{fill:url(#名称未設定グラデーション_124-2);}.cls-19,.cls-20,.cls-21,.cls-22,.cls-23,.cls-24,.cls-25,.cls-26{stroke-linecap:round;stroke-linejoin:round;}.cls-19{stroke-width:13.12px;fill:url(#名称未設定グラデーション_43);stroke:url(#名称未設定グラデーション_46);}.cls-20{fill:#fff;stroke:#fff;stroke-width:13.44px;}.cls-21,.cls-24,.cls-25,.cls-26{stroke-width:2px;}.cls-21{fill:url(#名称未設定グラデーション_53-3);stroke:url(#名称未設定グラデーション_53-4);}.cls-22{fill:#bcdfeb;stroke:#bcdfeb;}.cls-22,.cls-23{stroke-width:2.55px;}.cls-23,.cls-25{fill:none;stroke:#88c6dc;}.cls-24{fill:url(#名称未設定グラデーション_53-5);stroke:url(#名称未設定グラデーション_53-6);}.cls-26{fill:url(#名称未設定グラデーション_53-7);stroke:url(#名称未設定グラデーション_53-8);}</style><linearGradient id="名称未設定グラデーション_21" x1="683.5" y1="616.19" x2="683.5" y2="318.19" gradientUnits="userSpaceOnUse"><stop offset="0"/><stop offset="0" stop-color="#020202"/><stop offset="0.12" stop-color="#3c3c3c"/><stop offset="0.25" stop-color="#706f6f"/><stop offset="0.37" stop-color="#9c9b9b"/><stop offset="0.5" stop-color="#c0bebe"/><stop offset="0.62" stop-color="#dcdada"/><stop offset="0.75" stop-color="#efeded"/><stop offset="0.87" stop-color="#fbf9f9"/><stop offset="1" stop-color="#fffdfd"/></linearGradient><linearGradient id="名称未設定グラデーション_162" x1="939.55" y1="637.44" x2="939.55" y2="21.82" gradientUnits="userSpaceOnUse"><stop offset="0.12" stop-color="#fff"/><stop offset="0.13" stop-color="#f6f6f6"/><stop offset="0.17" stop-color="#c8c8c8"/><stop offset="0.21" stop-color="#9d9d9d"/><stop offset="0.25" stop-color="#777"/><stop offset="0.29" stop-color="#575757"/><stop offset="0.35" stop-color="#3b3b3b"/><stop offset="0.4" stop-color="#252525"/><stop offset="0.47" stop-color="#141414"/><stop offset="0.56" stop-color="#090909"/><stop offset="0.67" stop-color="#020202"/><stop offset="1"/></linearGradient><filter id="luminosity-noclip" x="0" y="0" width="1367" height="616.19" filterUnits="userSpaceOnUse" color-interpolation-filters="sRGB"><feFlood flood-color="#fff" result="bg"/><feBlend in="SourceGraphic" in2="bg"/></filter><mask id="mask" x="0" y="0" width="1367" height="616.19" maskUnits="userSpaceOnUse"><rect class="cls-1" y="318.19" width="1367" height="298"/></mask><linearGradient id="名称未設定グラデーション_10" x1="573.3" y1="855.32" x2="953.24" y2="-106.75" gradientTransform="matrix(1, 0.01, 0.01, 1.11, -11.38, -84.55)" gradientUnits="userSpaceOnUse"><stop offset="0" stop-color="#fffdfd"/><stop offset="0.04" stop-color="#fafbfb"/><stop offset="0.7" stop-color="#a4d9d8"/><stop offset="1" stop-color="#82cbca"/></linearGradient><filter id="luminosity-invert" filterUnits="userSpaceOnUse" color-interpolation-filters="sRGB"><feColorMatrix values="-1 0 0 0 1 0 -1 0 0 1 0 0 -1 0 1 0 0 0 1 0"/></filter><mask id="mask-2" x="662.67" y="21.82" width="553.75" height="615.63" maskUnits="userSpaceOnUse"><rect class="cls-2" x="662.67" y="21.82" width="553.75" height="615.63"/></mask><linearGradient id="名称未設定グラデーション_53" x1="848.81" y1="245.29" x2="928.02" y2="245.29" gradientTransform="translate(2.3 -0.54) rotate(0.03)" gradientUnits="userSpaceOnUse"><stop offset="0" stop-color="#094388"/><stop offset="1" stop-color="#169bc0"/></linearGradient><linearGradient id="名称未設定グラデーション_53-2" x1="850.69" y1="245.24" x2="930.47" y2="245.24" gradientTransform="matrix(1, 0, 0, 1, 0, 0)" xlink:href="#名称未設定グラデーション_53"/><linearGradient id="名称未設定グラデーション_117" x1="866.39" y1="78.77" x2="937" y2="78.77" gradientTransform="translate(2.3 -0.54) rotate(0.03)" gradientUnits="userSpaceOnUse"><stop offset="0" stop-color="#169bc0"/><stop offset="1" stop-color="#74bcd6"/></linearGradient><linearGradient id="名称未設定グラデーション_117-2" x1="868.23" y1="78.73" x2="939.67" y2="78.73" gradientTransform="matrix(1, 0, 0, 1, 0, 0)" xlink:href="#名称未設定グラデーション_117"/><linearGradient id="名称未設定グラデーション_108" x1="730.75" y1="307.63" x2="817.72" y2="307.63" gradientTransform="translate(2.3 -0.54) rotate(0.03)" gradientUnits="userSpaceOnUse"><stop offset="0" stop-color="#169bc0"/><stop offset="1" stop-color="#88c6dc"/></linearGradient><linearGradient id="名称未設定グラデーション_108-2" x1="730.33" y1="307.59" x2="818.47" y2="307.59" xlink:href="#名称未設定グラデーション_108"/><linearGradient id="名称未設定グラデーション_34" x1="719.04" y1="303.43" x2="784.46" y2="190.11" gradientTransform="translate(2.3 -0.54) rotate(0.03)" gradientUnits="userSpaceOnUse"><stop offset="0" stop-color="#fefdfd"/><stop offset="1" stop-color="#fff"/></linearGradient><linearGradient id="名称未設定グラデーション_32" x1="720.94" y1="303.81" x2="786.86" y2="189.63" gradientUnits="userSpaceOnUse"><stop offset="0" stop-color="#fefcfc"/><stop offset="1" stop-color="#fff"/></linearGradient><linearGradient id="名称未設定グラデーション_124" x1="715.34" y1="190.65" x2="760.42" y2="112.56" gradientTransform="translate(2.3 -0.54) rotate(0.03)" gradientUnits="userSpaceOnUse"><stop offset="0" stop-color="#094388"/><stop offset="1" stop-color="#008fba"/></linearGradient><linearGradient id="名称未設定グラデーション_124-2" x1="717.35" y1="190.89" x2="762.86" y2="112.06" gradientTransform="matrix(1, 0, 0, 1, 0, 0)" xlink:href="#名称未設定グラデーション_124"/><linearGradient id="名称未設定グラデーション_43" x1="668.08" y1="450.43" x2="1198.3" y2="427.6" gradientTransform="translate(2.3 -0.54) rotate(0.03)" gradientUnits="userSpaceOnUse"><stop offset="0" stop-color="#fdeded"/><stop offset="1" stop-color="#d8f1f4"/></linearGradient><linearGradient id="名称未設定グラデーション_46" x1="661.52" y1="450.71" x2="1204.86" y2="427.32" gradientTransform="translate(2.3 -0.54) rotate(0.03)" gradientUnits="userSpaceOnUse"><stop offset="0" stop-color="#faeeee"/><stop offset="1" stop-color="#d8f2f6"/></linearGradient><linearGradient id="名称未設定グラデーション_53-3" x1="905.87" y1="262.92" x2="1035.56" y2="262.92" xlink:href="#名称未設定グラデーション_53"/><linearGradient id="名称未設定グラデーション_53-4" x1="904.87" y1="262.92" x2="1036.56" y2="262.92" xlink:href="#名称未設定グラデーション_53"/><linearGradient id="名称未設定グラデーション_53-5" x1="782.62" y1="328.47" x2="912.31" y2="328.47" xlink:href="#名称未設定グラデーション_53"/><linearGradient id="名称未設定グラデーション_53-6" x1="781.62" y1="328.47" x2="913.31" y2="328.47" xlink:href="#名称未設定グラデーション_53"/><linearGradient id="名称未設定グラデーション_53-7" x1="787.73" y1="385.81" x2="833.89" y2="385.81" xlink:href="#名称未設定グラデーション_53"/><linearGradient id="名称未設定グラデーション_53-8" x1="786.74" y1="385.81" x2="834.88" y2="385.81" xlink:href="#名称未設定グラデーション_53"/></defs><g id="レイヤー_2" data-name="レイヤー 2"><g id="レイヤー_1-2" data-name="レイヤー 1"><g class="cls-3"><path class="cls-4" d="M.45,502.21c63.24-69.34,137.46-140.8,227.8-140.58,72.5.18,145.76,47.56,214.85,25.32,52.74-17,86.25-70.73,121.26-117.13,13.34-17.7,31.24-41.48,73-72.51,40.11-29.77,93.46-40.24,140.75-24.28C933,203.19,986.2,173.69,1067,147.19c127.77-41.9,166-160.29,300-146v610l-1367,1Z"/></g><g class="cls-5"><path d="M746.2,166c1.45,7.14-2.87,13.87-4.22,20.68-.31,1.58,2.12,2.26,2.43.67,1.47-7.38,5.8-14.27,4.22-22-.32-1.59-2.75-.92-2.43.67Z"/><path class="cls-6" d="M875.11,287c2.64-.31,5.57-.54,7.71,1.05,2.51,1.87,2.85,5.44,3,8.58.08,1.95.08,4.11-1.2,5.59s-3.38,1.78-5.31,2a1.86,1.86,0,0,1-1.17-.11,1.9,1.9,0,0,1-.62-.67,26.27,26.27,0,0,1-2.88-6.14,3.85,3.85,0,0,0-1.18-2.13,3,3,0,0,0-1.46-.45,32.23,32.23,0,0,0-5.79.31,8.62,8.62,0,0,1-5.57-1.13"/><path class="cls-6" d="M875.11,288c2-.23,4.32-.53,6.24.34a5.8,5.8,0,0,1,3,4.3,22.13,22.13,0,0,1,.44,5.85c-.11,2.31-1.13,3.81-3.41,4.37-.83.21-2.35.71-3,.06a11.16,11.16,0,0,1-1.74-3.18c-.75-1.66-1-4.22-2.58-5.37s-4.47-.69-6.41-.49c-2.23.23-4.55.43-6.52-.86-1.08-.71-2.09,1-1,1.73a9.13,9.13,0,0,0,5.31,1.31c1.07,0,2.13-.17,3.19-.27a9.52,9.52,0,0,1,3.87,0c1,.36,1.15,1.73,1.47,2.61a28.09,28.09,0,0,0,1.34,3.15c.72,1.43,1.55,3.57,3.4,3.67,3.49.19,7.28-1.52,8-5.19a19.6,19.6,0,0,0,.05-5.19,14.3,14.3,0,0,0-1.14-5c-2-4.15-6.42-4.36-10.44-3.9-1.27.14-1.28,2.15,0,2Z"/><path class="cls-7" d="M861.25,272c-1.74-3.46-5-6-6.8-9.4a23.46,23.46,0,0,1-2-6.47c-.62-3.17-1.12-6.37-1.49-9.58l57.53-28,21.69,16.58"/><path class="cls-8" d="M862,271.52c-2-3.72-5.51-6.35-7.2-10.22a31.22,31.22,0,0,1-1.78-6.88q-.72-3.94-1.18-7.92l-.43.73,19.48-9.47,31-15.07,7.06-3.43h-.87l21.7,16.58c.87.67,1.72-.82.86-1.48l-21.69-16.58a.9.9,0,0,0-.87,0l-19.47,9.47-31,15.08-7.05,3.43a.82.82,0,0,0-.42.74c.3,2.56.66,5.12,1.11,7.66a37.21,37.21,0,0,0,1.82,7.38c1.68,4.17,5.41,6.91,7.46,10.84.51,1,2,.11,1.48-.86Z"/><path class="cls-9" d="M933.41,84.54c4.53-1.73,6.39-7.4,5.71-12.2-1-6.85-5.92-12.76-12.08-15.92s-13.38-3.82-20.25-3c-8.47,1-17,4.54-22.29,11.22a6.94,6.94,0,0,1-1.41,1.5c-1.06.76-2.46.77-3.74,1-7.06,1.26-11,9.36-10.68,16.52.3,6.71,6.74,16.21,11.79,20.64Z"/><path class="cls-10" d="M933.75,85.76c4-1.63,6.12-5.42,6.64-9.56A18.83,18.83,0,0,0,937,63.56c-5.74-8.48-16-12-25.86-11.7-9.72.25-20.18,3.51-26.76,11-.74.84-1.38,2-2.44,2.5a21.89,21.89,0,0,1-3.55.72A12.49,12.49,0,0,0,873.09,69a18.11,18.11,0,0,0-5.44,10.74c-.75,4.89.55,9.35,2.83,13.67a42.44,42.44,0,0,0,9.08,11.87,1.27,1.27,0,0,0,1.23.32l18-6.72,28.39-10.61,6.6-2.46c1.5-.56.85-3-.67-2.43l-18,6.71-28.4,10.62-6.59,2.46,1.23.32a39.7,39.7,0,0,1-7.48-9.2c-2-3.25-3.85-7-4-10.87a17.56,17.56,0,0,1,3-10.47,11.31,11.31,0,0,1,4-3.59c1.79-.94,3.77-.81,5.62-1.48,2.07-.75,3.16-2.82,4.65-4.32a27.23,27.23,0,0,1,5.28-4.09A36.53,36.53,0,0,1,904.78,55c9.07-1.61,19.47-.5,26.56,5.89a19.49,19.49,0,0,1,6.56,11.77c.49,3.92-.81,9-4.82,10.66C931.6,83.93,932.24,86.37,933.75,85.76Z"/><path class="cls-11" d="M850.15,212.88c0,4.81.27,28.83.82,33.62l37.82-15.86c6.53-3.82,12.61-7,18.46-13.16l.57-2.63,1.6-17.47a42,42,0,0,1,.9-6.32,51.13,51.13,0,0,1,2.94-7.78c2.08-4.86,3.86-13.21,5.32-18.29l.49,4.07c-.22,3.43,1.68,7.21,2.58,10.54l2.56,9.51,1.57.11c1.68,0,2.75-.54,4.54-1.09l9.39-2.89,1.56-.56-.49-2.93L937.18,153c-.35-2.76-.7-5.53-1.21-8.27a11.73,11.73,0,0,0-1.79-4.91,12.19,12.19,0,0,0-4.11-3.12c-6.49-3.57-13.21-3.35-20.11-6a43.89,43.89,0,0,0-23.82-3c-13.36,7.9-25.85,13.92-37.16,24.56a18.93,18.93,0,0,0-4,4.69c-1.27,2.39-1.5,5.18-1.64,7.88-.78,15,.65,33.44,4.19,48,0,0,14.67-2.41,21.07-3.35,0,0-2.37-19.36-2.5-27.73"/><path class="cls-11" d="M848.89,212.88c0,9.34.14,18.71.5,28.05.07,1.85.12,3.72.32,5.57.08.7.76,1.56,1.6,1.21L881,235.27l6.51-2.73a49.81,49.81,0,0,0,5.87-3.09c5.17-3,10.37-6.31,14.46-10.74.95-1,1.14-2.73,1.28-4.1.37-3.47.64-7,.95-10.43.35-3.8.49-7.69,1.19-11.45.67-3.53,2.3-6.67,3.59-10,2.21-5.62,3.32-11.62,5-17.41l-2.47-.34.4,3.29a37.78,37.78,0,0,0,.64,5.18c.64,2.43,1.61,4.76,2.26,7.18l2.38,8.8a1.29,1.29,0,0,0,1.21.93,12.83,12.83,0,0,0,2.7,0,35,35,0,0,0,5.39-1.56c3.11-1,6.25-1.84,9.3-2.94a1.31,1.31,0,0,0,.88-1.56c-1-5.94-1.61-12-2.36-17.94l-1.49-11.87a112.13,112.13,0,0,0-1.69-11.29,10.45,10.45,0,0,0-5.19-7,34,34,0,0,0-9.75-3.73c-3.47-.81-7-1.38-10.39-2.53a74.57,74.57,0,0,0-10.34-3.22,44.2,44.2,0,0,0-9.11-.76c-1.41,0-2.82.12-4.22.26a11.59,11.59,0,0,0-2.13.25,11.91,11.91,0,0,0-2.25,1.27c-6,3.48-12.06,6.8-17.94,10.45a112,112,0,0,0-16.2,12c-2.45,2.2-4.95,4.49-6.15,7.63s-1.18,6.6-1.28,9.87a171.24,171.24,0,0,0,4.36,45.53,1.29,1.29,0,0,0,1.55.88c7-1.16,14-2.32,21.07-3.35a1.23,1.23,0,0,0,.92-1.22c-1.12-9.17-2.34-18.47-2.5-27.73a1.26,1.26,0,0,0-2.52,0c.16,9.26,1.38,18.56,2.5,27.73l.93-1.21c-7,1-14.06,2.19-21.07,3.35l1.55.88a169,169,0,0,1-4.36-39c0-3.18.05-6.36.26-9.53s.87-6.26,3.15-8.78c4.42-4.89,10-8.92,15.48-12.53s11-6.69,16.54-9.87q2.11-1.2,4.21-2.42c.65-.37,1.31-.73,1.94-1.13a4.86,4.86,0,0,1,2.3-.53,49.4,49.4,0,0,1,8.25-.1,41.32,41.32,0,0,1,9.52,2,105,105,0,0,0,10.1,3.23,86.28,86.28,0,0,1,9.39,2.3c2.85,1,6.73,2.54,8.16,5.4a19,19,0,0,1,1.37,5.51c.32,2,.58,4,.83,6q.81,6.44,1.61,12.87c.8,6.37,1.47,12.77,2.52,19.1l.88-1.55c-2.9,1-5.88,1.9-8.83,2.8a52.35,52.35,0,0,1-5.13,1.59,10.2,10.2,0,0,1-2.76,0l1.22.92-2.25-8.32c-.66-2.45-1.58-4.81-2.27-7.24-.74-2.62-.74-5.51-1.07-8.22a1.27,1.27,0,0,0-2.48-.33c-1.46,5.15-2.55,10.41-4.26,15.48-.91,2.71-2.21,5.25-3.18,7.94a36.76,36.76,0,0,0-1.76,9.3q-.48,5.1-.94,10.19a67.25,67.25,0,0,1-.85,8c-.09.39-.14.8-.26,1.18a2.16,2.16,0,0,1-.05.27s.13-.13-.35.22a17.44,17.44,0,0,0-1.64,1.58c-.64.59-1.3,1.17-2,1.73a61.86,61.86,0,0,1-7.2,5,58.9,58.9,0,0,1-7.44,4.24l-5.83,2.44L863.23,240l-12.59,5.28,1.59,1.22c-.44-4-.42-8.07-.52-12.09-.13-5.31-.21-10.63-.27-15.95,0-1.86,0-3.72,0-5.58a1.26,1.26,0,0,0-2.52,0Z"/><path class="cls-12" d="M905.23,124.93c-1.09,1.47-2.89,5.21-1.55,6.45a7.14,7.14,0,0,0,1.73.91l1.52,1.24c-3,3.57-8.14,4.43-12.81,4.37a16,16,0,0,1-6.65-1.21,7.71,7.71,0,0,1-3.41-3.1l.89-4,.75-1.25a44,44,0,0,0,5.55-15.32l-1.1-3.58c-5.42.64-10.81-4.29-10.67-9.75,0-1.21-.28-2.36.56-4,.36-.71,3.36-5.88,11.91.19a38.57,38.57,0,0,1,6.85-16A170.92,170.92,0,0,0,932.67,84L933.4,85c-.15,3.92-.52,6.3-.85,10.21-.23,2.74-.51,5.48-.92,8.2a39.25,39.25,0,0,1-4.51,14.24c-2.55,4.32-6.57,7.94-11.44,9.14s-10.53-.39-13.4-4.5"/><path class="cls-13" d="M795.92,278,819.85,296l-68.92,40.3c-9.33,4-18.3-9.27-18-25.9Z"/><path class="cls-14" d="M705.11,268.8a27.31,27.31,0,0,0-.6,4.48"/><path class="cls-15" d="M819.49,233.54s-26.79-41.23-31.83-42.92-20.17-.89-20.17-.89a139.83,139.83,0,0,0-25.21,4.15s-15.72,6.58-25.27,14.4c-6.16,5-8.57,22.79-12.39,63.67l23.52,3.4c1.8-8,3.65-15.94,4.76-19.31-.74,25.1-2.65,37.82.3,54.19,29-2.68,62.2-28.46,62.67-33.05-3.34-9.45-5.78-12.6-6.22-38.25l11.74,12.63Z"/><path class="cls-16" d="M820.58,232.9q-7.55-11.61-15.52-23c-3.58-5.09-7.21-10.18-11.17-15a35.79,35.79,0,0,0-4-4.3c-1.62-1.4-3.45-1.7-5.56-2a86,86,0,0,0-18.08-.12,159.79,159.79,0,0,0-18.22,2.59,40.91,40.91,0,0,0-8.59,2.57c-7.77,3.51-15.51,7.53-22.26,12.77-3.14,2.43-4.78,5.67-6,9.41a105.1,105.1,0,0,0-3.68,17.83c-1.38,9.64-2.35,19.33-3.3,29q-.45,4.59-.87,9.18a1.25,1.25,0,0,0,.92,1.22l20.6,3,2.92.43a1.29,1.29,0,0,0,1.55-.88c1.46-6.44,2.73-13,4.76-19.32l-2.47-.33c-.25,8.25-.71,16.5-1,24.75a169.56,169.56,0,0,0,0,19.13A103.31,103.31,0,0,0,732,310.57a1.23,1.23,0,0,0,1.21.92c9.72-.92,19.08-4.05,27.92-8.09a136.29,136.29,0,0,0,23.44-13.68,92,92,0,0,0,7.86-6.31,20.72,20.72,0,0,0,4.17-4.65,2.64,2.64,0,0,0,.31-2.45c-.41-1.14-.84-2.27-1.26-3.41-.79-2.14-1.55-4.29-2.14-6.49-2.35-8.88-2.43-18.36-2.59-27.48l-2.15.9,11.74,12.62a1.27,1.27,0,0,0,1.78,0l15.85-15.77,2.25-2.25a1.26,1.26,0,0,0-1.78-1.78l-15.84,15.77-2.26,2.25h1.78L790.54,238a1.27,1.27,0,0,0-2.15.89c.15,8.5.32,17.19,2.07,25.53a53.2,53.2,0,0,0,1.87,6.7c.37,1,.76,2.09,1.15,3.13l.54,1.48c.11.28.21.57.32.85,0,.11.07.25.12.36a3.62,3.62,0,0,1,.13.35c.06-.38.08-.5,0-.34a.9.9,0,0,1-.09.28c.23-.32,0,.06-.08.14-.19.3-.38.6-.59.88a27.51,27.51,0,0,1-1.91,2.08,66.78,66.78,0,0,1-6.66,5.68,135.2,135.2,0,0,1-21.68,13.38c-9.5,4.71-19.79,8.53-30.42,9.54l1.22.93C732.12,297,733,284,733.56,271c.24-5,.45-10,.6-15a1.27,1.27,0,0,0-2.48-.34c-2,6.29-3.3,12.88-4.76,19.32l1.55-.88-20.6-3-2.92-.42.93,1.21c1-10.54,2-21.09,3.29-31.6a167.19,167.19,0,0,1,3.4-20,43.47,43.47,0,0,1,2-6.16,15.9,15.9,0,0,1,2.29-3.94c2.12-2.45,5.28-4.22,8-5.91a128.16,128.16,0,0,1,11.79-6.45c2-1,4.08-2.05,6.19-2.85-.1,0-.61.15.23,0,.66-.14,1.3-.34,2-.5,1.46-.37,2.94-.7,4.42-1q4.5-.91,9.06-1.51a127.77,127.77,0,0,1,20.59-1.11c1.82.06,3.64.15,5.44.38.64.09,1.28.2,1.92.35.27.06.55.14.82.22s-.22-.15.11,0c.13.08.65.45.42.27a8.67,8.67,0,0,1,.79.69c.67.63,1.29,1.3,1.9,2a161.63,161.63,0,0,1,10.18,13.25c6,8.4,11.79,17,17.45,25.64l.32.48C819.29,235.53,821.47,234.27,820.58,232.9Z"/><path class="cls-12" d="M783.47,142.9s21.38,44.93-17.59,42c-1.67,2.66-1.44,5.42-.62,8.21,9.7,8.9-16.79,15-21.39,1.64l.64-13.56C714.92,135.65,756.59,101.11,783.47,142.9Z"/><path class="cls-17" d="M785.76,136.24c-.57-7.75-6.54-14.14-13.24-18.1-13.24-7.84-30.46-9.29-43.73-2.53-9.76,4-15.11,12.84-17.06,20.06-6.55,13.75-10.94,29.3-9.25,37.06.95,4.31,2.62,8.65,5.88,11.85,3.75,3.68,9.24,5.46,14.64,5.86s10.79-.42,16.12-1.25l8.54-1.33c-5.21-6-3.11-15-2.73-18-9.4,1.82-11.81-11-9.76-15.9,2-4.71,8.06-5.79,12.36-2.84a15.7,15.7,0,0,1,2.69,1.92,4.46,4.46,0,0,0,2.9,1.13c10.73-.3,21.64-3.67,29.63-10.85a9.55,9.55,0,0,0,2.4-2.9A8.23,8.23,0,0,0,785.76,136.24Z"/><path class="cls-18" d="M787.05,136.24c-1.12-13-14.31-21-25.71-24.28a49.11,49.11,0,0,0-19.44-1.59,42,42,0,0,0-9.14,2.14,46.57,46.57,0,0,0-8.72,4.1,31.13,31.13,0,0,0-11.16,12.51c-1.15,2.31-1.76,4.8-2.83,7.12q-2.24,4.81-4.08,9.8a82.65,82.65,0,0,0-4.87,18.73,26.75,26.75,0,0,0,2.79,15.86c8.41,16.07,29.9,10.68,44.11,8.47,1-.16,1.11-1.49.56-2.15-4.08-4.87-3.11-11.25-2.34-17,.12-.9-.91-1.36-1.63-1.24-4.26.77-7.05-2.35-8.17-6.14-1-3.35-1.32-8.16,1.86-10.48a7.39,7.39,0,0,1,7.18-.58c2.71,1.18,4.54,3.94,7.66,4a43.23,43.23,0,0,0,9.68-1.11,49.4,49.4,0,0,0,9.66-3,41.82,41.82,0,0,0,9.33-5.53,17.72,17.72,0,0,0,4.06-4,9.14,9.14,0,0,0,1.2-5.61c-.1-1.64-2.67-1.65-2.57,0a6.51,6.51,0,0,1-1.72,5.35A27.52,27.52,0,0,1,778.6,145a40.43,40.43,0,0,1-9.21,4.82,49.34,49.34,0,0,1-10.3,2.58,53.08,53.08,0,0,1-5.36.47,3.71,3.71,0,0,1-2.19-.42c-.75-.46-1.37-1.15-2.12-1.64-2.43-1.57-4.9-2.82-7.89-2.57a9,9,0,0,0-6.7,3.7c-2.3,3.29-1.92,8.2-.7,11.81a12.1,12.1,0,0,0,3.87,5.84,9,9,0,0,0,7.27,1.52l-1.62-1.24a49.33,49.33,0,0,0-.72,8.32,17.23,17.23,0,0,0,3.82,10.54l.57-2.15c-7.29,1.14-14.71,2.77-22.12,2.64-6.2-.11-12.94-1.83-17.05-6.8-7.45-9-4.51-21.22-1.27-31.23,1-3.14,2.17-6.23,3.44-9.27q.93-2.24,1.94-4.42c.57-1.23,1-2.46,1.4-3.73a30.09,30.09,0,0,1,8.15-12.32,27.86,27.86,0,0,1,7.32-4.64,50.16,50.16,0,0,1,8.07-3,44,44,0,0,1,17.93-.65,46.92,46.92,0,0,1,19,7.49c5.2,3.62,9.81,9,10.37,15.56C784.62,137.88,787.19,137.89,787.05,136.24Z"/><path class="cls-12" d="M706.17,273.53c-.54,5.53-1.25,14.69-1.53,20.64a20.35,20.35,0,0,0,1.3,7.49c1,2.26,34.23,23.18,59,33.09,0,0,4.27-8.43,5.47-11.74-12.06-7.66-41.2-27-41.09-27.1s-1.83-1.56-2.17-2.68a10,10,0,0,1,0-3s.85-8,1.52-13.73"/><polygon class="cls-19" points="673.84 382.13 847.77 460.37 1192.98 254.07 1192.9 409.23 847.68 616.67 673.75 535.57 673.84 382.13"/><polygon class="cls-20" points="674.02 382.66 847.9 461.17 1192.7 254.36 1019.16 176.99 674.02 382.66"/><path class="cls-12" d="M960.47,231c.16,0-29.73-25.39-30.07-27.71-1.15-1.61-4.48-9.66-5.73-12.88l16.91-4.56,2.27,8.2,25.61,31.36"/><path class="cls-12" d="M913,247.71a311.44,311.44,0,0,1-47.39-5c-2.64-.49-5.4-1.06-7.47-2.78s-3.05-4.09-4-6.47a156.33,156.33,0,0,1-6.24-19.35l20-3.26a119.67,119.67,0,0,0,3.84,12.56,5.54,5.54,0,0,0,4.43,4.22q18.17,6.27,36.74,11.28"/><path class="cls-12" d="M912.39,240.57l5.66-1.92c3.18-1.07,15.94,2.07,14.84,5.78-.38,1.29-1.56,5.14-2.9,5.18-.66,0-15.7-3.45-17.26-4.35"/><path class="cls-12" d="M913.06,243l4.53-1.53c.45-.15.89-.31,1.34-.45a1.55,1.55,0,0,1,.35-.07c-.45.06-.54.07-.27,0l.29,0a13.27,13.27,0,0,1,1.89.06l.58.06c.67.06-.55-.1.14,0,.42.07.84.14,1.26.23.88.17,1.74.39,2.6.64l1.06.34.61.22c.1,0,.95.38.38.14a13.48,13.48,0,0,1,1.89,1c.15.09.29.2.43.29.47.29-.35-.39,0,0,.18.2.69.9.27.22a3.37,3.37,0,0,1,.19.32c-.32-.77-.14-.35-.11-.16-.15-.78,0-.47,0-.23.06-1,.09-.46,0-.33-.41.78-.53,1.78-.89,2.6.16-.38-.05.1-.1.19s-.18.35-.28.52-.31.72-.08.19c-.14.31-.52.22,0,.05.75-.23.84-.28,1.32-.16l-.44-.08c-2.73-.52-5.45-1.19-8.16-1.85-1.74-.43-3.48-.86-5.21-1.34-.65-.18-1.31-.37-2-.57l-.75-.25c-.52-.17.64.33.08,0-2.85-1.56-5.39,2.8-2.54,4.36a16.48,16.48,0,0,0,3.4,1.18c1.72.49,3.46.93,5.2,1.35,2.94.73,5.89,1.51,8.88,2a3.64,3.64,0,0,0,2.59-.26,5.73,5.73,0,0,0,2.24-2.53c.86-1.69,2.07-4.21,1.6-6.17-.9-3.69-5.82-5.27-9-6.12a25.8,25.8,0,0,0-6.42-1c-2.83,0-5.57,1.32-8.21,2.22a2.52,2.52,0,0,0,1.34,4.86Z"/><path class="cls-12" d="M961.79,228.84c4.42,2.59,17.92,13.61,18.26,13.5s4.09-7.41,3.78-8.72c-.43-1.89-7.11-7.32-8.93-8a16.13,16.13,0,0,0-11.91.2"/><path class="cls-12" d="M960.51,231a99.26,99.26,0,0,1,9.76,7.07L972.7,240l2.69,2.08a34.59,34.59,0,0,0,3.09,2.32,2.69,2.69,0,0,0,2.85.15,4.48,4.48,0,0,0,1.48-1.85,57,57,0,0,0,2.74-5.74c.73-1.79,1.22-3.55.1-5.31a21.84,21.84,0,0,0-4.68-4.82,19.36,19.36,0,0,0-6.3-3.93,18.57,18.57,0,0,0-12.35.52,2.6,2.6,0,0,0-1.76,3.1,2.54,2.54,0,0,0,3.1,1.76,14,14,0,0,1,9.3-.62c.41.11.85.34,1.27.42-.27,0-.54-.28-.17,0s.68.4,1,.62a22.89,22.89,0,0,1,2.22,1.66c.86.71,1.7,1.45,2.5,2.23.35.34.7.7,1,1.07.14.15.27.31.4.46-.4-.47,0,.05.11.19s.13.25.2.36a1.2,1.2,0,0,1-.21-.75c0,.06.18-.65,0-.21-.06.19-.1.4-.16.59-.11.36-.25.72-.39,1.08-.21.56.06-.12-.12.3l-.33.74c-.46,1-1,2-1.48,3-.19.37-.39.74-.59,1.1-.44.76-.72.59.5-.27l1.27-.35c.37,0,1.54.65.92.15-.17-.14-.36-.25-.54-.38-.56-.41-1.11-.84-1.66-1.26l-.6-.46c-.22-.17-.21-.16,0,0l-.33-.25-1.23-1-3.12-2.41a106.5,106.5,0,0,0-10.46-7.61c-2.8-1.66-5.34,2.7-2.55,4.35Z"/><path class="cls-12" d="M859.45,279l5.66-1.91c3.18-1.07,11.61,3.65,14.84,5.78,1.77,1.16,1.73,4.84.82,6-2,2.66-17.46-2.22-21-5.21"/><path class="cls-12" d="M860.12,281.46l3.77-1.28c.63-.21,1.25-.46,1.89-.64l.37-.09c.19,0,.11,0-.26,0h.36a2.29,2.29,0,0,0,.37,0c.63,0-.51-.12.15,0,.37.08.74.15,1.1.25a23.36,23.36,0,0,1,2.44.83,45.83,45.83,0,0,1,4.9,2.41c.72.39,1.43.81,2.13,1.23l.88.55.31.2c.2.13.2.13,0,0,.17.18.2.21.09.08s.16.45,0,0c.06.16.11.31.15.46s.16.83.09.32c0,.16,0,.34,0,.5s0,.49,0,.74c0-.12.11-.44,0,0-.06.2-.11.4-.17.61l.1-.26c-.15.26-.1.21.17-.16-.43.34.59-.33,0-.06.76-.39.22-.12,0,0-.6.2.54,0-.15,0l-.89,0a17.55,17.55,0,0,1-1.78-.14c.64.07-.4-.07-.59-.1l-1.33-.26c-1.63-.35-3.24-.8-4.83-1.31-.89-.28-1.78-.59-2.66-.92l-1.31-.52c-.08,0-.45-.19,0,0l-.7-.31c-.68-.31-1.36-.64-2-1-.28-.17-.57-.33-.84-.51l-.25-.17c-.57-.37.29.25,0,0a2.59,2.59,0,0,0-3.57,0,2.54,2.54,0,0,0,0,3.56c2.68,2.22,6.19,3.46,9.45,4.54a34.29,34.29,0,0,0,10.72,2.18,5.92,5.92,0,0,0,4.27-1.37c1.54-1.6,1.68-4.19,1.28-6.25-.47-2.41-2.06-3.66-4-4.85a57.67,57.67,0,0,0-5.65-3,23,23,0,0,0-7-2.25,6.92,6.92,0,0,0-3,.32c-1.76.58-3.52,1.19-5.28,1.78a2.58,2.58,0,0,0-1.76,3.1,2.55,2.55,0,0,0,3.1,1.77Z"/><polygon class="cls-21" points="908.01 278.33 956.16 297.81 1037.72 247.62 993 228 908.01 278.33"/><polygon class="cls-22" points="1059.21 180.33 975.1 230.66 956.18 297.82 1037.71 247.59 1059.21 180.33"/><line class="cls-23" x1="975.04" y1="230.65" x2="956.11" y2="297.8"/><path class="cls-12" d="M804.59,250.06c1.61,2.06,10.25,13,13.53,15.65,3.63,2.9,40.66,20.35,40.66,20.35s8.77-2.82,11.91-5.53c.43-.27-23.86-15.51-35-24.42a55.48,55.48,0,0,1-5.68-5c-2.52-2.65-9.08-11.72-11.35-15"/><polygon class="cls-24" points="784.73 343.82 832.88 363.3 914.43 313.1 869.72 293.49 784.73 343.82"/><polygon class="cls-22" points="935.93 245.82 851.82 296.15 832.89 363.31 914.43 313.08 935.93 245.82"/><line class="cls-23" x1="851.75" y1="296.13" x2="832.83" y2="363.29"/><polygon class="cls-25" points="790.01 384.86 820.56 397.42 836.16 388.46 806.99 376.52 790.01 384.86"/><polygon class="cls-26" points="789.82 383.59 820.37 396.16 835.97 387.2 806.8 375.26 789.82 383.59"/></g></g></g></svg>