<svg xmlns="http://www.w3.org/2000/svg" xmlns:xlink="http://www.w3.org/1999/xlink" viewBox="0 0 481.85 591.75"><defs><style>.cls-1{fill:url(#名称未設定グラデーション_162);filter:url(#luminosity-invert);}.cls-2{fill:url(#名称未設定グラデーション_167);}.cls-3{mask:url(#mask);}.cls-4{fill:#fbbbc2;}.cls-5{fill:url(#名称未設定グラデーション_53);}.cls-6{fill:url(#名称未設定グラデーション_53-2);}.cls-7{fill:url(#名称未設定グラデーション_117);}.cls-8{fill:url(#名称未設定グラデーション_117-2);}.cls-9{fill:#f49e9b;}.cls-10{fill:#fce1df;}.cls-11{stroke-miterlimit:10;stroke-width:0.74px;fill:url(#名称未設定グラデーション_108);stroke:url(#名称未設定グラデーション_108-2);}.cls-12{fill:#fcdade;}.cls-13{fill:url(#名称未設定グラデーション_34);}.cls-14{fill:url(#名称未設定グラデーション_32);}.cls-15{fill:url(#名称未設定グラデーション_124);}.cls-16{fill:url(#名称未設定グラデーション_124-2);}.cls-17,.cls-18,.cls-19,.cls-20,.cls-21,.cls-22,.cls-23,.cls-24{stroke-linecap:round;stroke-linejoin:round;}.cls-17{stroke-width:11.49px;fill:url(#名称未設定グラデーション_43);stroke:url(#名称未設定グラデーション_46);}.cls-18{fill:#fff;stroke:#fff;stroke-width:11.78px;}.cls-19,.cls-22,.cls-23,.cls-24{stroke-width:1.75px;}.cls-19{fill:url(#名称未設定グラデーション_53-3);stroke:url(#名称未設定グラデーション_53-4);}.cls-20{fill:#bcdfeb;stroke:#bcdfeb;}.cls-20,.cls-21{stroke-width:2.23px;}.cls-21,.cls-23{fill:none;stroke:#88c6dc;}.cls-22{fill:url(#名称未設定グラデーション_53-5);stroke:url(#名称未設定グラデーション_53-6);}.cls-24{fill:url(#名称未設定グラデーション_53-7);stroke:url(#名称未設定グラデーション_53-8);}</style><linearGradient id="名称未設定グラデーション_162" x1="248.65" y1="603.78" x2="248.65" y2="64.42" gradientUnits="userSpaceOnUse"><stop offset="0.12" stop-color="#fff"/><stop offset="0.13" stop-color="#f6f6f6"/><stop offset="0.17" stop-color="#c8c8c8"/><stop offset="0.21" stop-color="#9d9d9d"/><stop offset="0.25" stop-color="#777"/><stop offset="0.29" stop-color="#575757"/><stop offset="0.35" stop-color="#3b3b3b"/><stop offset="0.4" stop-color="#252525"/><stop offset="0.47" stop-color="#141414"/><stop offset="0.56" stop-color="#090909"/><stop offset="0.67" stop-color="#020202"/><stop offset="1"/></linearGradient><linearGradient id="名称未設定グラデーション_167" x1="415.38" y1="1034.54" x2="44.78" y2="392.64" gradientTransform="matrix(1, 0, 0, 1.35, 2.2, -689.02)" gradientUnits="userSpaceOnUse"><stop offset="0.16" stop-color="#fffdfd"/><stop offset="0.54" stop-color="#c9e7e7"/><stop offset="1" stop-color="#82cbca"/></linearGradient><filter id="luminosity-invert" filterUnits="userSpaceOnUse" color-interpolation-filters="sRGB"><feColorMatrix values="-1 0 0 0 1 0 -1 0 0 1 0 0 -1 0 1 0 0 0 1 0"/></filter><mask id="mask" x="6.08" y="64.42" width="485.15" height="539.36" maskUnits="userSpaceOnUse"><rect class="cls-1" x="6.08" y="64.42" width="485.15" height="539.36"/></mask><linearGradient id="名称未設定グラデーション_53" x1="169.36" y1="262.82" x2="238.76" y2="262.82" gradientTransform="translate(1.84 -2.77) rotate(0.03)" gradientUnits="userSpaceOnUse"><stop offset="0" stop-color="#094388"/><stop offset="1" stop-color="#169bc0"/></linearGradient><linearGradient id="名称未設定グラデーション_53-2" x1="170.8" y1="260.16" x2="240.7" y2="260.16" gradientTransform="matrix(1, 0, 0, 1, 0, 0)" xlink:href="#名称未設定グラデーション_53"/><linearGradient id="名称未設定グラデーション_117" x1="184.76" y1="116.93" x2="246.62" y2="116.93" gradientTransform="translate(1.84 -2.77) rotate(0.03)" gradientUnits="userSpaceOnUse"><stop offset="0" stop-color="#169bc0"/><stop offset="1" stop-color="#74bcd6"/></linearGradient><linearGradient id="名称未設定グラデーション_117-2" x1="186.17" y1="114.28" x2="248.76" y2="114.28" gradientTransform="matrix(1, 0, 0, 1, 0, 0)" xlink:href="#名称未設定グラデーション_117"/><linearGradient id="名称未設定グラデーション_108" x1="65.92" y1="317.43" x2="142.12" y2="317.43" gradientTransform="translate(1.84 -2.77) rotate(0.03)" gradientUnits="userSpaceOnUse"><stop offset="0" stop-color="#169bc0"/><stop offset="1" stop-color="#88c6dc"/></linearGradient><linearGradient id="名称未設定グラデーション_108-2" x1="65.55" y1="317.4" x2="142.78" y2="317.4" xlink:href="#名称未設定グラデーション_108"/><linearGradient id="名称未設定グラデーション_34" x1="55.66" y1="313.75" x2="112.98" y2="214.47" gradientTransform="translate(1.84 -2.77) rotate(0.03)" gradientUnits="userSpaceOnUse"><stop offset="0" stop-color="#fefdfd"/><stop offset="1" stop-color="#fff"/></linearGradient><linearGradient id="名称未設定グラデーション_32" x1="57.13" y1="311.48" x2="114.88" y2="211.44" gradientUnits="userSpaceOnUse"><stop offset="0" stop-color="#fefcfc"/><stop offset="1" stop-color="#fff"/></linearGradient><linearGradient id="名称未設定グラデーション_124" x1="52.42" y1="214.95" x2="91.92" y2="146.53" gradientTransform="translate(1.84 -2.77) rotate(0.03)" gradientUnits="userSpaceOnUse"><stop offset="0" stop-color="#094388"/><stop offset="1" stop-color="#008fba"/></linearGradient><linearGradient id="名称未設定グラデーション_124-2" x1="53.98" y1="212.54" x2="93.85" y2="143.48" gradientTransform="matrix(1, 0, 0, 1, 0, 0)" xlink:href="#名称未設定グラデーション_124"/><linearGradient id="名称未設定グラデーション_43" x1="11.01" y1="442.54" x2="475.56" y2="422.54" gradientTransform="translate(1.84 -2.77) rotate(0.03)" gradientUnits="userSpaceOnUse"><stop offset="0" stop-color="#fdeded"/><stop offset="1" stop-color="#d8f1f4"/></linearGradient><linearGradient id="名称未設定グラデーション_46" x1="5.27" y1="442.79" x2="481.3" y2="422.29" gradientTransform="translate(1.84 -2.77) rotate(0.03)" gradientUnits="userSpaceOnUse"><stop offset="0" stop-color="#faeeee"/><stop offset="1" stop-color="#d8f2f6"/></linearGradient><linearGradient id="名称未設定グラデーション_53-3" x1="219.35" y1="278.26" x2="332.97" y2="278.26" xlink:href="#名称未設定グラデーション_53"/><linearGradient id="名称未設定グラデーション_53-4" x1="218.47" y1="278.26" x2="333.85" y2="278.26" xlink:href="#名称未設定グラデーション_53"/><linearGradient id="名称未設定グラデーション_53-5" x1="111.37" y1="335.69" x2="224.99" y2="335.69" xlink:href="#名称未設定グラデーション_53"/><linearGradient id="名称未設定グラデーション_53-6" x1="110.49" y1="335.69" x2="225.87" y2="335.69" xlink:href="#名称未設定グラデーション_53"/><linearGradient id="名称未設定グラデーション_53-7" x1="115.85" y1="385.92" x2="156.28" y2="385.92" xlink:href="#名称未設定グラデーション_53"/><linearGradient id="名称未設定グラデーション_53-8" x1="114.98" y1="385.92" x2="157.16" y2="385.92" xlink:href="#名称未設定グラデーション_53"/></defs><g id="レイヤー_2" data-name="レイヤー 2"><g id="レイヤー_1-2" data-name="レイヤー 1"><path class="cls-2" d="M481.85,591.75q-.5-295.87-1-591.75c-18,0-27,3-40.15,4.45-44.63,9.24-81.13,36-113.29,63.81s-62.59,58.12-102.22,77.83c-31.07,15.46-67,23.76-103,23.78-35.79,0-72.06-7.91-107-1.26A136.13,136.13,0,0,0,0,172.45v419.3Z"/><g class="cls-3"><path d="M79.26,190.7c1.27,6.26-2.52,12.16-3.7,18.12-.28,1.39,1.85,2,2.13.59,1.28-6.46,5.08-12.5,3.7-19.29-.28-1.4-2.41-.81-2.13.58Z"/><path class="cls-4" d="M192.2,296.75c2.31-.27,4.88-.47,6.75.92,2.2,1.64,2.5,4.77,2.6,7.52.07,1.71.08,3.6-1,4.89s-3,1.56-4.66,1.75a1.28,1.28,0,0,1-1.57-.69,22.7,22.7,0,0,1-2.52-5.37,3.43,3.43,0,0,0-1-1.87,2.71,2.71,0,0,0-1.28-.4,28.75,28.75,0,0,0-5.07.28,7.49,7.49,0,0,1-4.89-1"/><path class="cls-4" d="M192.2,297.63c1.85-.21,4-.5,5.72.43a5.37,5.37,0,0,1,2.45,3.94,19.86,19.86,0,0,1,.31,4.93,3.69,3.69,0,0,1-3.14,3.76,12.6,12.6,0,0,1-1.37.22,1.13,1.13,0,0,1-1.34-.55,12.26,12.26,0,0,1-1.31-2.45c-.65-1.43-.88-3.59-2.17-4.63s-3.66-.71-5.28-.55c-2.09.22-4.28.5-6.14-.71-1-.61-1.83.91-.88,1.52a8.06,8.06,0,0,0,4.78,1.14c1,0,1.92-.16,2.87-.25a8,8,0,0,1,3.19,0c.87.32,1,1.51,1.28,2.28a23.27,23.27,0,0,0,1.18,2.77c.63,1.25,1.35,3.12,3,3.21,3,.17,6.29-1.26,6.94-4.37a16.29,16.29,0,0,0,.08-4.73,12.49,12.49,0,0,0-1-4.34c-1.72-3.64-5.62-3.82-9.14-3.42-1.12.13-1.13,1.89,0,1.76Z"/><path class="cls-5" d="M180.05,283.57c-1.52-3-4.38-5.23-6-8.24a20.61,20.61,0,0,1-1.74-5.67c-.54-2.78-1-5.58-1.3-8.4l50.4-24.5,19,14.52"/><path class="cls-6" d="M180.7,283.19c-1.75-3.34-5-5.7-6.41-9.22a29.14,29.14,0,0,1-1.48-5.9c-.41-2.26-.74-4.53-1-6.81l-.37.65,17-8.28,27.14-13.2,6.23-3h-.76l19,14.53c.77.58,1.52-.72.76-1.3l-19-14.52a.74.74,0,0,0-.76,0l-17,8.28-27.15,13.2-6.22,3a.71.71,0,0,0-.37.64c.5,4.32.92,9,2.54,13.11,1.47,3.69,4.75,6.11,6.57,9.57.44.86,1.74.1,1.29-.75Z"/><path class="cls-7" d="M243.28,119.37c4-1.52,5.59-6.48,5-10.69-.85-6-5.18-11.18-10.58-14S226,91.39,220,92.13c-7.42.91-14.87,4-19.53,9.83a6.18,6.18,0,0,1-1.23,1.32,7.88,7.88,0,0,1-3.28.88c-6.18,1.11-9.65,8.21-9.36,14.48.27,5.88,5.91,14.2,10.33,18.07Z"/><path class="cls-8" d="M243.57,120.44c7.64-3.15,6.82-13.34,3-19.14-5-7.61-14-10.76-22.76-10.56-8.56.19-17.8,3.06-23.58,9.69-.66.76-1.22,1.78-2.17,2.18a21.94,21.94,0,0,1-3.13.62,11,11,0,0,0-4.5,2.45,15.89,15.89,0,0,0-4.82,9.49c-.63,4.24.48,8.1,2.44,11.84a37.14,37.14,0,0,0,8,10.49,1.12,1.12,0,0,0,1.07.28l15.62-5.84,25-9.36,5.74-2.14c1.32-.49.75-2.63-.59-2.13l-15.61,5.84-25,9.35-5.74,2.15,1.07.28a34.55,34.55,0,0,1-6.45-7.9c-1.74-2.85-3.43-6.15-3.56-9.56a15.31,15.31,0,0,1,2.64-9.28,10.06,10.06,0,0,1,3.45-3.13c1.57-.84,3.27-.74,4.9-1.3s2.63-2.21,3.85-3.49a23.33,23.33,0,0,1,4.63-3.72,31.6,31.6,0,0,1,10.79-4c7.9-1.47,17-.6,23.31,4.88a17.23,17.23,0,0,1,6,10.57c.42,3.43-.73,7.86-4.23,9.3C241.69,118.84,242.26,121,243.57,120.44Z"/><path class="cls-9" d="M170.33,231.81c0,4.22.24,25.26.72,29.45l33.13-13.89c5.72-3.34,11-6.11,16.17-11.52l.5-2.31,1.4-15.3a36.78,36.78,0,0,1,.79-5.54,44.62,44.62,0,0,1,2.58-6.82c1.83-4.26,3.38-11.57,4.66-16l.43,3.56c-.19,3,1.47,6.32,2.26,9.23l2.25,8.33,1.37.11a12.67,12.67,0,0,0,4-1l8.23-2.53,1.36-.49-.43-2.57-3.15-25.15c-.31-2.43-.61-4.85-1.06-7.25a10.33,10.33,0,0,0-1.57-4.3,10.84,10.84,0,0,0-3.6-2.74c-5.69-3.12-11.58-2.93-17.62-5.28a38.42,38.42,0,0,0-20.87-2.61c-11.71,6.92-22.64,12.2-32.55,21.52a12.65,12.65,0,0,0-4.92,11,157.31,157.31,0,0,0,3.67,42.07s12.85-2.12,18.46-2.94c0,0-2.08-17-2.19-24.29"/><path class="cls-9" d="M169.22,231.81c0,4.91.08,9.83.18,14.74s0,9.85.55,14.71c.06.62.66,1.38,1.39,1.07l26-10.91,5.67-2.38a44.94,44.94,0,0,0,5.22-2.76A55.11,55.11,0,0,0,220.81,237a6.07,6.07,0,0,0,1.15-3.42c.43-3.1.57-6.26.85-9.38.32-3.4.43-6.9,1.09-10.26.61-3,2-5.74,3.14-8.6,1.9-4.89,2.87-10.11,4.3-15.15l-2.17-.29a54.61,54.61,0,0,0,.94,7.48c.59,2.21,1.45,4.33,2,6.53l2,7.41a1.15,1.15,0,0,0,1.07.81,10.91,10.91,0,0,0,2.49,0,32.74,32.74,0,0,0,4.75-1.4c2.67-.82,5.37-1.58,8-2.53a1.14,1.14,0,0,0,.77-1.36c-.85-5.17-1.4-10.39-2.05-15.59l-1.3-10.35c-.42-3.29-.74-6.62-1.46-9.85a9.31,9.31,0,0,0-4.78-6.46,29.8,29.8,0,0,0-8.38-3.16c-3-.7-6-1.19-8.9-2.16a71.85,71.85,0,0,0-9.15-2.87,38.64,38.64,0,0,0-8.17-.67c-1.24,0-2.48.11-3.72.23a10.09,10.09,0,0,0-1.74.21,12.06,12.06,0,0,0-2.21,1.25c-5.25,3.06-10.58,6-15.73,9.18A97.94,97.94,0,0,0,169.52,177c-2.12,1.92-4.25,3.91-5.27,6.65s-1,5.67-1.07,8.48A150.26,150.26,0,0,0,167,232.1a1.13,1.13,0,0,0,1.36.77c6.14-1,12.29-2,18.46-2.93a1.11,1.11,0,0,0,.81-1.07,232.65,232.65,0,0,1-2.2-24.29,1.11,1.11,0,0,0-2.21,0,235.4,235.4,0,0,0,2.2,24.29l.81-1.06c-6.17.9-12.31,1.92-18.46,2.93l1.36.77a147.71,147.71,0,0,1-3.82-33.92c0-2.76,0-5.52.2-8.27.18-3,.72-5.74,2.8-8a69.69,69.69,0,0,1,13.21-10.74c4.77-3.16,9.76-6,14.73-8.81l3.45-2,1.94-1.13a4.06,4.06,0,0,1,1.86-.5,43.2,43.2,0,0,1,7.37-.12,35.59,35.59,0,0,1,8.42,1.72c3,1,5.78,2.14,8.85,2.82a78.52,78.52,0,0,1,8.14,2c2.6.88,6.12,2.29,7.35,4.94a18.16,18.16,0,0,1,1.15,4.89c.3,1.83.52,3.68.75,5.52q.69,5.43,1.37,10.85c.69,5.56,1.28,11.14,2.2,16.67l.77-1.36c-2.48.9-5,1.62-7.54,2.39-1.53.47-3.07,1.11-4.63,1.44a9,9,0,0,1-2.48,0l1.06.81-2-7.41c-.56-2.07-1.34-4.06-1.93-6.12a49.09,49.09,0,0,1-1-7.3,1.11,1.11,0,0,0-2.17-.29c-1.26,4.45-2.21,9-3.67,13.38-.78,2.34-1.89,4.54-2.74,6.85a31.4,31.4,0,0,0-1.63,8.2q-.42,4.56-.83,9.12a58.93,58.93,0,0,1-.78,7.16,8.38,8.38,0,0,1-.18.87c-.15.46,0,.14-.29.41-1,1-2,1.95-3.07,2.85a52.73,52.73,0,0,1-6.46,4.53,49.39,49.39,0,0,1-6.55,3.74l-5,2.1-16.11,6.75-11.13,4.67,1.39,1.06c-.53-4.86-.45-9.83-.54-14.71s-.19-9.83-.18-14.74a1.11,1.11,0,0,0-2.21,0Z"/><path class="cls-10" d="M218.59,154.76c-1,1.28-2.54,4.56-1.36,5.65a6.47,6.47,0,0,0,1.52.8l1.32,1.08c-2.63,3.13-7.13,3.89-11.21,3.83a13.92,13.92,0,0,1-5.83-1.06,6.69,6.69,0,0,1-3-2.72l.78-3.47c.21-.37.44-.74.65-1.1a38.62,38.62,0,0,0,4.87-13.42l-1-3.14a8.74,8.74,0,0,1-9.34-8.54,6.63,6.63,0,0,1,.49-3.54c.31-.62,2.94-5.15,10.43.17a33.79,33.79,0,0,1,6-14,149.58,149.58,0,0,0,29.66,3.61l.65.92c-.14,3.43-.46,5.52-.75,8.94-.2,2.41-.45,4.81-.8,7.19a34.62,34.62,0,0,1-4,12.48,16.81,16.81,0,0,1-10,8c-4.26,1-9.23-.35-11.74-4"/><path class="cls-11" d="M122.81,288.83l21,15.84L83.4,340c-8.17,3.5-16-8.13-15.81-22.7Z"/><path class="cls-12" d="M43.26,280.8a23.59,23.59,0,0,0-.53,3.93"/><path class="cls-13" d="M143.47,249.91s-23.48-36.12-27.89-37.6-17.67-.78-17.67-.78a122,122,0,0,0-22.09,3.63s-13.77,5.77-22.14,12.62c-5.39,4.42-7.5,20-10.85,55.79l20.6,3c1.58-7,3.2-14,4.17-16.92-.64,22-2.32,33.14.27,47.49,25.43-2.35,54.49-24.95,54.9-29-2.93-8.29-5.06-11-5.44-33.51l10.28,11.06Z"/><path class="cls-14" d="M144.42,249.35q-6.63-10.2-13.63-20.16c-3.15-4.47-6.33-8.94-9.81-13.16a30.27,30.27,0,0,0-3.44-3.72c-1.43-1.23-3.08-1.47-4.93-1.69A75.89,75.89,0,0,0,97,210.51,140.06,140.06,0,0,0,81,212.77,35.77,35.77,0,0,0,73.38,215a96.06,96.06,0,0,0-19.51,11.19c-2.74,2.12-4.17,4.93-5.24,8.18a90.66,90.66,0,0,0-3.25,15.67c-1.21,8.46-2.07,17-2.9,25.47-.26,2.67-.51,5.35-.76,8a1.09,1.09,0,0,0,.81,1.06l20.61,3a1.13,1.13,0,0,0,1.36-.77c1.27-5.64,2.39-11.41,4.17-16.92l-2.17-.3c-.22,7.23-.62,14.44-.91,21.66a144.54,144.54,0,0,0,0,16.91,89.47,89.47,0,0,0,1.16,9.21,1.12,1.12,0,0,0,1.07.81,77.08,77.08,0,0,0,24.46-7.09,119.14,119.14,0,0,0,20.59-12,75.67,75.67,0,0,0,6.79-5.45,18.78,18.78,0,0,0,3.68-4.08,2.32,2.32,0,0,0,.32-2.07c-.32-1-.74-2-1.11-3-.69-1.86-1.35-3.72-1.86-5.63-2.1-7.82-2.17-16.18-2.31-24.21l-1.88.78,10.28,11.06a1.11,1.11,0,0,0,1.56,0l13.86-13.79,2-2a1.1,1.1,0,0,0-1.56-1.56l-13.86,13.8-2,2h1.56l-10.28-11.06a1.12,1.12,0,0,0-1.89.78c.13,7.41.28,15,1.79,22.27a47.48,47.48,0,0,0,1.67,6c.31.9.64,1.78,1,2.67l.49,1.32.25.69c.07.19.37,1.06.3.42,0,.29,0,.11-.14.35a7.18,7.18,0,0,1-.52.79,21.47,21.47,0,0,1-1.63,1.78,57.15,57.15,0,0,1-5.92,5.05,118.57,118.57,0,0,1-19,11.71c-8.32,4.13-17.33,7.46-26.63,8.35l1.06.81c-2-11.25-1.28-22.65-.75-34,.21-4.39.4-8.79.53-13.19a1.11,1.11,0,0,0-2.17-.29c-1.78,5.51-2.9,11.28-4.17,16.92l1.36-.77-20.61-3,.81,1.07c.87-9.25,1.74-18.5,2.89-27.72a145.66,145.66,0,0,1,3-17.48c.75-3,1.78-6.67,3.74-8.9s4.7-3.74,7.14-5.26a113.81,113.81,0,0,1,10.12-5.52c1.79-.88,3.61-1.83,5.49-2.53.17-.06-.91.21.26,0,.59-.13,1.16-.31,1.74-.45,1.25-.31,2.51-.6,3.77-.85q3.78-.76,7.58-1.27a110.81,110.81,0,0,1,18.38-1c1.54.05,3.08.13,4.6.31.63.08,1.25.18,1.86.32.25.06.49.12.73.2s-.16-.1.1,0a4.56,4.56,0,0,1,1.09.87c.59.55,1.13,1.14,1.66,1.74a142.68,142.68,0,0,1,9,11.67c5.25,7.34,10.3,14.83,15.23,22.39l.28.42C143.29,251.66,145.2,250.55,144.42,249.35Z"/><path class="cls-10" d="M111.91,170.5s18.73,39.36-15.41,36.8c-1.47,2.33-1.27,4.75-.54,7.19,8.5,7.8-14.72,13.18-18.75,1.44l.56-11.88C51.85,164.15,88.36,133.89,111.91,170.5Z"/><path class="cls-15" d="M113.92,164.67c-.5-6.79-5.74-12.39-11.6-15.86-11.6-6.87-26.69-8.14-38.32-2.21-8.55,3.5-13.23,11.24-14.94,17.57-5.74,12-9.59,25.66-8.1,32.47.82,3.78,2.28,7.58,5.14,10.38,3.29,3.22,8.1,4.78,12.83,5.14s9.45-.38,14.12-1.1l7.48-1.17c-4.56-5.27-2.72-13.1-2.38-15.72-8.24,1.59-10.35-9.64-8.55-13.93,1.73-4.13,7.06-5.08,10.82-2.5a14.32,14.32,0,0,1,2.36,1.69,3.88,3.88,0,0,0,2.54,1c9.4-.27,19-3.22,26-9.5a8.62,8.62,0,0,0,2.11-2.55A7.39,7.39,0,0,0,113.92,164.67Z"/><path class="cls-16" d="M115,164.67c-1-11.39-12.47-18.39-22.44-21.25-10.84-3.12-22.9-2-32.6,4a27.27,27.27,0,0,0-9.85,10.88c-1.08,2.13-1.65,4.43-2.64,6.58Q45.58,169,44,173.38a71.79,71.79,0,0,0-4.23,16.43,23.33,23.33,0,0,0,2.52,13.86c7.4,14,26.17,9.24,38.58,7.31.92-.14,1-1.31.5-1.88-3.58-4.28-2.73-9.85-2.06-14.93.11-.8-.8-1.2-1.42-1.09-3.83.68-6.28-2.18-7.22-5.59-.84-3-1-7.24,2-9.16A6.59,6.59,0,0,1,79,178.2c2.33,1.21,3.9,3.4,6.72,3.33a45.09,45.09,0,0,0,16.89-3.76,35.73,35.73,0,0,0,8.21-5,14,14,0,0,0,3.22-3.29,8,8,0,0,0,1-4.81c-.08-1.44-2.33-1.45-2.25,0a5.78,5.78,0,0,1-1.4,4.59,23,23,0,0,1-3.88,3.21,35.78,35.78,0,0,1-8.42,4.3,43.22,43.22,0,0,1-8.76,2.12,39.27,39.27,0,0,1-4.6.39c-1.71,0-2.68-1.18-4-2.05a10.2,10.2,0,0,0-7-2,7.71,7.71,0,0,0-5.46,3.28c-2,2.94-1.61,7.3-.47,10.48,1.53,4.29,5,7.05,9.69,6.22L77,194.17c-.77,5.8-1.31,11.69,2.72,16.52l.49-1.88c-6.3,1-12.7,2.38-19.1,2.31-5.45-.05-11.4-1.48-15.08-5.8-6.67-7.83-4.11-18.64-1.27-27.44,1.69-5.24,4.14-10.17,6-15.35a26.43,26.43,0,0,1,7.11-10.75,32.21,32.21,0,0,1,13.4-6.71,38.7,38.7,0,0,1,15.82-.6,41.32,41.32,0,0,1,16.45,6.43c4.65,3.18,8.77,8,9.27,13.77C112.92,166.1,115.17,166.12,115,164.67Z"/><path class="cls-10" d="M44.19,285c-.48,4.84-1.1,12.87-1.35,18.08A18,18,0,0,0,44,309.6c.86,2,30,20.3,51.66,29,0,0,3.74-7.39,4.79-10.29-10.56-6.72-36.1-23.63-36-23.75s-1.6-1.36-1.89-2.34a8.4,8.4,0,0,1,0-2.59s.75-7,1.33-12"/><polygon class="cls-17" points="15.86 380.1 168.24 448.64 470.69 267.9 470.62 403.83 168.17 585.58 15.78 514.53 15.86 380.1"/><polygon class="cls-18" points="16.02 380.56 168.35 449.34 470.44 268.15 318.4 200.37 16.02 380.56"/><path class="cls-10" d="M267,247.66c.13,0-26.06-22.24-26.36-24.28-1-1.41-3.92-8.46-5-11.28l14.82-4,2,7.19,22.43,27.47"/><path class="cls-10" d="M225.36,262.33A272.88,272.88,0,0,1,183.85,258c-2.32-.42-4.74-.92-6.55-2.43s-2.67-3.58-3.5-5.67a136.07,136.07,0,0,1-5.47-16.95L185.87,230a103.53,103.53,0,0,0,3.37,11,6.21,6.21,0,0,0,1.25,2.3,6.52,6.52,0,0,0,2.62,1.4q15.93,5.49,32.2,9.87"/><path class="cls-10" d="M224.86,256.07l5-1.68c2.79-.94,14,1.82,13,5.06-.33,1.14-1.36,4.51-2.55,4.54-.57,0-13.74-3-15.12-3.81"/><path class="cls-10" d="M225.45,258.2l4-1.34c.39-.13.78-.27,1.17-.39,0,0,.27-.09.31-.06l-.24,0h.25a11.33,11.33,0,0,1,1.65,0l.51.06c.6.05-.47-.09.13,0l1.1.19q1.15.24,2.28.57l.93.29.54.2c.08,0,.83.33.33.12a13,13,0,0,1,1.66.85c.12.08.24.18.37.25.41.26-.31-.34,0,0,.15.17.6.79.23.19a1.61,1.61,0,0,1,.17.28c-.28-.67-.12-.31-.09-.15-.13-.68,0-.4-.05-.19.06-.86.08-.41,0-.29-.36.68-.47,1.56-.78,2.28.14-.33,0,.08-.09.16s-.15.31-.24.46-.27.63-.07.16c-.12.28-.46.2,0,.05.65-.21.74-.25,1.16-.14l-.39-.07c-2.4-.45-4.78-1-7.15-1.63-1.53-.37-3-.75-4.57-1.17-.57-.16-1.14-.32-1.71-.5l-.65-.22c-.46-.15.56.29.07,0-2.5-1.36-4.73,2.45-2.23,3.82a14.23,14.23,0,0,0,3,1c1.51.42,3,.81,4.56,1.18,2.57.63,5.16,1.32,7.77,1.77a3.25,3.25,0,0,0,2.27-.23,5,5,0,0,0,2-2.21c.75-1.49,1.81-3.7,1.4-5.41-.78-3.23-5.1-4.62-7.9-5.37a23.32,23.32,0,0,0-5.62-.86c-2.49,0-4.89,1.16-7.2,1.94a2.26,2.26,0,0,0-1.54,2.72,2.23,2.23,0,0,0,2.72,1.54Z"/><path class="cls-10" d="M268.14,245.79c3.87,2.27,15.7,11.93,16,11.84s3.59-6.5,3.32-7.64c-.38-1.67-6.23-6.42-7.83-7a14.18,14.18,0,0,0-10.43.18"/><path class="cls-10" d="M267,247.7a86.3,86.3,0,0,1,8.54,6.19l2.14,1.65,2.35,1.82a33,33,0,0,0,2.71,2,2.35,2.35,0,0,0,2.5.13,3.92,3.92,0,0,0,1.29-1.61,48.21,48.21,0,0,0,2.4-5c.64-1.57,1.07-3.12.09-4.66a19.3,19.3,0,0,0-4.1-4.22,16.81,16.81,0,0,0-5.52-3.44,16.25,16.25,0,0,0-10.81.45,2.28,2.28,0,0,0-1.55,2.72,2.23,2.23,0,0,0,2.72,1.54,12.38,12.38,0,0,1,8.14-.55c.37.11.75.3,1.11.37-.23,0-.47-.24-.14,0s.6.35.89.54a21,21,0,0,1,2,1.46c.75.62,1.49,1.27,2.19,1.95.31.3.61.61.9.94l.35.4c-.35-.41,0,0,.1.17s.11.22.18.31a1,1,0,0,1-.19-.65c0,.05.15-.57,0-.19-.06.17-.09.35-.14.52-.1.32-.23.63-.34.94-.19.5.05-.09-.11.27l-.29.65c-.41.89-.84,1.77-1.3,2.63-.17.33-.34.65-.52,1-.38.67-.62.52.44-.24l1.11-.3c.33,0,1.36.57.81.13-.15-.12-.31-.23-.47-.34l-1.46-1.1-.52-.4c-.19-.15-.18-.14,0,0l-.29-.23-1.08-.83-2.74-2.12a93.52,93.52,0,0,0-9.16-6.67c-2.45-1.45-4.68,2.37-2.23,3.82Z"/><path class="cls-10" d="M178.48,289.76l5-1.67c2.78-.94,10.17,3.2,13,5.06,1.55,1,1.51,4.24.72,5.3-1.75,2.32-15.3-1.95-18.39-4.58"/><path class="cls-10" d="M179.06,291.89l3.31-1.11c.55-.19,1.1-.41,1.65-.56l.33-.09-.23,0h.31a1.82,1.82,0,0,0,.33,0c.55,0-.45-.11.13,0,.32.07.65.13,1,.22a20.58,20.58,0,0,1,2.13.73,42,42,0,0,1,4.3,2.1c.63.35,1.25.71,1.86,1.09.26.15.52.31.77.48l.27.17c.18.12.18.11,0,0,.15.16.18.19.08.08s.15.39,0,0c0,.14.09.27.13.41s.13.72.08.27c0,.15,0,.3,0,.44s0,.43,0,.65c0-.1.1-.39,0,0-.05.18-.09.35-.15.53l.1-.23c-.14.23-.09.18.14-.14-.37.3.52-.29,0-.05.66-.34.19-.1,0,0-.53.18.48,0-.13,0l-.78,0a13.67,13.67,0,0,1-1.56-.13c.56.07-.35-.06-.51-.08l-1.17-.23c-1.43-.31-2.84-.7-4.23-1.14-.79-.25-1.56-.52-2.33-.81l-1.15-.46c-.07,0-.39-.16,0,0l-.61-.27c-.6-.27-1.2-.56-1.77-.88-.25-.14-.5-.29-.74-.45l-.22-.14c-.5-.32.25.21,0,0a2.27,2.27,0,0,0-3.12,0,2.22,2.22,0,0,0,0,3.13c2.34,1.94,5.42,3,8.28,4a30.25,30.25,0,0,0,9.38,1.9,5.16,5.16,0,0,0,3.75-1.2c1.35-1.4,1.47-3.66,1.12-5.47-.41-2.11-1.8-3.21-3.53-4.25a48.9,48.9,0,0,0-5-2.64,20,20,0,0,0-6.15-2,6,6,0,0,0-2.59.28c-1.55.51-3.09,1-4.63,1.56a2.26,2.26,0,0,0-1.54,2.72,2.22,2.22,0,0,0,2.71,1.54Z"/><polygon class="cls-19" points="221.02 289.15 263.21 306.23 334.66 262.25 295.49 245.06 221.02 289.15"/><polygon class="cls-20" points="353.49 203.3 279.8 247.39 263.22 306.23 334.66 262.22 353.49 203.3"/><line class="cls-21" x1="279.75" y1="247.38" x2="263.17" y2="306.22"/><path class="cls-10" d="M130.42,264.38c1.41,1.81,9,11.41,11.85,13.71,3.18,2.55,35.62,17.84,35.62,17.84s7.68-2.47,10.43-4.85c.38-.24-20.9-13.59-30.62-21.39a49.67,49.67,0,0,1-5-4.41c-2.2-2.32-7.95-10.27-9.94-13.16"/><polygon class="cls-22" points="113.01 346.53 155.2 363.6 226.65 319.62 187.47 302.43 113.01 346.53"/><polygon class="cls-20" points="245.48 260.67 171.79 304.77 155.21 363.61 226.64 319.6 245.48 260.67"/><line class="cls-21" x1="171.73" y1="304.75" x2="155.15" y2="363.59"/><polygon class="cls-23" points="117.64 382.48 144.4 393.5 158.07 385.65 132.51 375.18 117.64 382.48"/><polygon class="cls-24" points="117.47 381.38 144.24 392.39 157.91 384.54 132.35 374.07 117.47 381.38"/></g></g></g></svg>