<?xml version="1.0" encoding="utf-8"?>
<!-- Generator: Adobe Illustrator 24.2.0, SVG Export Plug-In . SVG Version: 6.00 Build 0)  -->
<svg version="1.1" id="レイヤー_1" xmlns="http://www.w3.org/2000/svg" xmlns:xlink="http://www.w3.org/1999/xlink" x="0px"
	 y="0px" viewBox="0 0 1433.8 1832.4" style="enable-background:new 0 0 1433.8 1832.4;" xml:space="preserve">
<style type="text/css">
	.st0{fill:none;}
	.st1{fill:url(#SVGID_1_);}
	.st2{fill:#FBBBC2;}
	.st3{fill:url(#SVGID_2_);}
	.st4{fill:url(#SVGID_3_);}
	.st5{fill:url(#SVGID_4_);}
	.st6{fill:url(#SVGID_5_);}
	.st7{fill:#F49E9B;}
	.st8{fill:#FCE1DF;}
	.st9{fill:url(#SVGID_6_);stroke:url(#SVGID_7_);stroke-width:2.22;stroke-miterlimit:10;}
	.st10{fill:#FCDADE;}
	.st11{fill:url(#SVGID_8_);}
	.st12{fill:url(#SVGID_9_);}
	.st13{fill:url(#SVGID_10_);}
	.st14{fill:url(#SVGID_11_);}
	.st15{fill:url(#SVGID_12_);stroke:url(#SVGID_13_);stroke-width:34.59;stroke-linecap:round;stroke-linejoin:round;}
	.st16{fill:#FFFFFF;stroke:#FFFFFF;stroke-width:35.45;stroke-linecap:round;stroke-linejoin:round;}
	.st17{fill:url(#SVGID_14_);stroke:url(#SVGID_15_);stroke-width:5.26;stroke-linecap:round;stroke-linejoin:round;}
	.st18{fill:#BCDFEB;stroke:#BCDFEB;stroke-width:6.72;stroke-linecap:round;stroke-linejoin:round;}
	.st19{fill:none;stroke:#88C6DC;stroke-width:6.72;stroke-linecap:round;stroke-linejoin:round;}
	.st20{fill:url(#SVGID_16_);stroke:url(#SVGID_17_);stroke-width:5.26;stroke-linecap:round;stroke-linejoin:round;}
	.st21{fill:none;stroke:#88C6DC;stroke-width:5.26;stroke-linecap:round;stroke-linejoin:round;}
	.st22{fill:url(#SVGID_18_);stroke:url(#SVGID_19_);stroke-width:5.26;stroke-linecap:round;stroke-linejoin:round;}
</style>
<path class="st0" d="M1326.2,65c-59.5,12.3-114.2,35-165,63.6l168,0.1L1326.2,65z"/>
<linearGradient id="SVGID_1_" gradientUnits="userSpaceOnUse" x1="1141.4387" y1="-654.4614" x2="26.1689" y2="1277.2585" gradientTransform="matrix(1 0 0 -1.22 2.53 1421.7001)">
	<stop  offset="0.16" style="stop-color:#FFFDFD"/>
	<stop  offset="0.54" style="stop-color:#C9E7E7"/>
	<stop  offset="1" style="stop-color:#82CBCA"/>
</linearGradient>
<path class="st1" d="M1125,1832.4v-1682c-49.9,31.9-96.1,68.9-139.7,106.6C888.5,340.8,797,431.9,677.7,491.3
	c-93.5,46.5-201.7,71.5-310.1,71.5C259.9,562.9,150.7,539,45.6,559C30.2,562,15,565.8,0,570.5v1261.9H1125z"/>
<g>
	<path d="M238.5,625.5c1.9,9.1-0.1,18.5-2.8,27.2c-2.8,9.1-6.5,17.9-8.3,27.3c-0.4,1.8,0.6,3.6,2.3,4.1c1.8,0.5,3.6-0.6,4.1-2.3
		c1.9-9.7,5.7-18.8,8.6-28.2c2.9-9.7,4.7-19.9,2.6-29.9c-0.5-1.8-2.3-2.8-4.1-2.3S238,623.7,238.5,625.5L238.5,625.5z"/>
	<path class="st2" d="M578.4,944.7c7-0.8,14.7-1.4,20.3,2.8c6.6,5,7.5,14.4,7.8,22.6c0.2,5.1,0.2,10.8-3.2,14.7s-8.9,4.7-14,5.3
		c-1,0.2-2.1,0.1-3.1-0.3c-0.7-0.5-1.2-1.1-1.6-1.8c-3.2-5-5.8-10.5-7.6-16.2c-0.7-2.1-1.3-4.3-3.1-5.6c-1.2-0.7-2.5-1.1-3.8-1.2
		c-5.1-0.5-10.2,0.5-15.3,0.8s-10.5,0-14.7-3"/>
	<path class="st2" d="M578.4,947.3c7.8-0.9,17.5-1.8,22.1,6.1c1.7,3.3,2.7,6.9,3,10.5c0.5,4.2,0.6,8.4,0.3,12.6
		c-0.4,4-2.1,7.3-5.9,9c-1.8,0.7-3.7,1.3-5.7,1.5c-0.9,0.1-1.8,0.2-2.7,0.3s-1.8,0.4-2.3-0.3c-1.4-2-2.6-4.1-3.6-6.3
		c-1.1-2.1-2-4.3-2.9-6.5c-1.7-4.4-2.4-9.6-7.5-11.4c-2.7-0.9-5.8-0.8-8.6-0.7c-3,0.2-5.9,0.6-8.8,0.8c-4.9,0.4-10.1,0.3-14.3-2.5
		c-1.3-0.7-2.9-0.3-3.6,1c-0.7,1.3-0.3,2.9,1,3.6c4.2,2.9,9.4,3.6,14.4,3.4c5.6-0.2,11.3-1.6,16.9-0.9c0.9,0,1.8,0.3,2.5,0.9
		c0.6,0.7,1.1,1.5,1.4,2.4c0.8,2.4,1.6,4.9,2.6,7.2c1.1,2.6,2.3,5.1,3.6,7.5c1.2,2.2,2.6,5.2,4.9,6.5s5.3,0.5,7.8,0.1
		c2.3-0.3,4.6-0.9,6.7-1.7c4.6-1.8,8-5.8,9-10.6c1-4.6,0.7-9.5,0.3-14.2c-0.2-4.5-1.2-9-3-13.2c-2.1-4.7-6.1-8.3-11.1-9.9
		c-5.3-1.7-11.1-1.2-16.5-0.6c-1.4,0-2.6,1.2-2.6,2.7C575.8,946.2,577,947.3,578.4,947.3L578.4,947.3z"/>
	
		<linearGradient id="SVGID_2_" gradientUnits="userSpaceOnUse" x1="512.7715" y1="994.9975" x2="721.6057" y2="994.9975" gradientTransform="matrix(1 5.235987e-04 5.235987e-04 -1 1.4693 1829.2522)">
		<stop  offset="0" style="stop-color:#094388"/>
		<stop  offset="1" style="stop-color:#169BC0"/>
	</linearGradient>
	<path class="st3" d="M541.8,905c-4.6-9.1-13.2-15.7-17.9-24.8c-2.8-5.3-4.1-11.2-5.2-17.1c-1.6-8.4-2.9-16.8-3.9-25.3l151.7-73.8
		l57.2,43.7"/>
	
		<linearGradient id="SVGID_3_" gradientUnits="userSpaceOnUse" x1="514" y1="997.4456" x2="724.37" y2="997.4456" gradientTransform="matrix(1 0 0 -1 0 1832)">
		<stop  offset="0" style="stop-color:#094388"/>
		<stop  offset="1" style="stop-color:#169BC0"/>
	</linearGradient>
	<path class="st4" d="M543.8,903.8c-4-7.9-10.8-13.7-15.7-21c-5.4-8.1-7-17.9-8.6-27.3c-1-5.9-1.9-11.7-2.5-17.7l-1.1,1.9l15.1-7.4
		l36.1-17.6l43.9-21.4l37.8-18.4l12.5-6.1c2-1,4-1.8,5.9-2.9c0.1,0,0.2-0.1,0.2-0.1h-2.3l44.5,34l12.7,9.7c1.1,0.6,2.5,0.3,3.1-0.8
		c0.6-1.1,0.2-2.4-0.8-3.1l-44.5-34l-12.7-9.7c-0.7-0.4-1.6-0.4-2.3,0l-15.1,7.4L614,787.1l-43.9,21.3l-37.8,18.4l-12.5,6.1
		c-2,1-4,1.8-5.9,2.9l-0.2,0.1c-0.7,0.4-1.2,1.2-1.1,2c1.1,10.6,2.8,21.2,5.2,31.6c1.1,4.9,2.9,9.5,5.3,13.8
		c2.4,3.8,5.2,7.4,8.1,10.7c3.2,3.8,6.4,7.7,8.7,12.1C541.2,908.7,545.1,906.4,543.8,903.8L543.8,903.8z"/>
	
		<linearGradient id="SVGID_4_" gradientUnits="userSpaceOnUse" x1="559.1083" y1="1434.0846" x2="745.2667" y2="1434.0846" gradientTransform="matrix(1 5.235987e-04 5.235987e-04 -1 1.4693 1829.2522)">
		<stop  offset="0" style="stop-color:#169BC0"/>
		<stop  offset="1" style="stop-color:#74BCD6"/>
	</linearGradient>
	<path class="st5" d="M732.1,410.9c11.9-4.6,16.8-19.5,15-32.2c-2.6-18.1-15.6-33.6-31.8-42s-35.2-10.1-53.4-7.8
		c-22.3,2.7-44.8,12-58.8,29.6c-1,1.5-2.3,2.9-3.7,4c-2.8,2-6.5,2-9.9,2.6c-18.6,3.3-29,24.7-28.2,43.6
		c0.8,17.7,17.8,42.7,31.1,54.4L732.1,410.9z"/>
	
		<linearGradient id="SVGID_5_" gradientUnits="userSpaceOnUse" x1="560.25" y1="1436.5061" x2="748.62" y2="1436.5061" gradientTransform="matrix(1 0 0 -1 0 1832)">
		<stop  offset="0" style="stop-color:#169BC0"/>
		<stop  offset="1" style="stop-color:#74BCD6"/>
	</linearGradient>
	<path class="st6" d="M733,414.1c11.1-4.4,16.7-15.5,17.7-26.9c1-11.7-3.4-23.7-10.2-33.1c-7.5-10.2-17.7-18.1-29.5-22.9
		c-13-5.4-27.3-7.1-41.2-6.3c-25,1.4-51.5,10.3-68,30.1c-1,1.1-1.8,2.4-2.8,3.5c-0.8,1-1.9,1.8-3.2,2.2c-2.9,0.9-6,1-9,1.7
		c-5.2,1.4-10,4.1-14,7.8c-8.1,7.4-12.7,18.2-14.2,29c-0.8,5.4-0.7,10.9,0.4,16.3c1.3,5.5,3.2,10.8,5.7,15.9
		c5.3,10.7,12.1,20.6,20.4,29.2c1.7,1.8,3.4,3.4,5.2,5c0.8,0.8,2.1,1.2,3.2,0.9l13.9-5.2l33.4-12.5l40.2-15l34.9-13.1
		c5.6-2.1,11.3-4.2,16.9-6.3L733,414.1c1.7-0.5,2.8-2.3,2.3-4.1c-0.5-1.8-2.3-2.8-4.1-2.3l-13.9,5.2l-33.4,12.5l-40.2,15l-34.9,13
		l-11.4,4.3c-1.8,0.7-3.7,1.3-5.5,2l-0.2,0.1l3.2,0.9c-7.9-7.1-14.6-15.4-19.9-24.6c-1.5-2.5-2.9-5-4.2-7.6c-1.1-2.2-2.1-4.5-3-6.9
		c-0.9-2.4-1.7-4.9-2.2-7.4c-0.1-0.6-0.2-1.1-0.3-1.7c0-0.3-0.1-0.5-0.1-0.8c0-0.1-0.2-1.1-0.1-0.3c-0.2-1.2-0.2-2.4-0.3-3.7
		c-0.1-2.5,0.1-5,0.4-7.4c-0.1,0.7,0.1-0.5,0.1-0.5c0-0.3,0.1-0.7,0.2-1c0.1-0.6,0.2-1.1,0.3-1.7c0.3-1.3,0.6-2.7,1-4
		c1.3-4.7,3.4-9.2,6.3-13.1c0.6-0.8,1.2-1.7,1.9-2.4c0.9-1,1.8-1.9,2.7-2.8c1.7-1.6,3.5-2.9,5.5-3.9c0.8-0.5,1.7-0.9,2.6-1.2
		c1.2-0.4,2.4-0.8,3.6-1.1c2.9-0.7,5.9-0.7,8.7-1.7c3.5-1.2,5.6-3.6,7.9-6.4c1.8-2.2,3.7-4.3,5.8-6.3c4.2-4,8.9-7.5,14-10.3
		c10.2-5.7,21.4-9.5,33-11.2c6.3-1,12.6-1.4,19-1.4c6.5,0,13,0.8,19.3,2.2c11.7,2.7,22.7,8.1,31.3,16.3c8,7.7,13.7,17.2,15.6,28.2
		l0.2,1.1c0.2,1.2,0-0.6,0.1,0.5c0,0.6,0.1,1.1,0.2,1.7c0.1,1.4,0.1,2.7,0,4.1c0,0.6-0.1,1.1-0.1,1.7c0,0.4-0.1,0.7-0.1,1
		c-0.1,1.1,0.1-0.6-0.1,0.5s-0.4,2.5-0.8,3.7c-1,4.6-3.4,8.8-6.8,12.1c-0.7,0.7-1.5,1.3-2.4,1.8c-0.5,0.3-0.9,0.6-1.4,0.8l-0.9,0.4
		c-1,0.5,0.6-0.2-0.4,0.2c-1.7,0.5-2.7,2.3-2.3,4.1C729.3,413.3,731.3,414.7,733,414.1z"/>
	<path class="st7" d="M512.6,749.2c0,12.7,0.7,76,2.2,88.7l99.7-41.8c17.2-10.1,33.2-18.4,48.7-34.7l1.5-6.9l4.2-46.1
		c0.4-5.6,1.2-11.2,2.4-16.7c1.8-7.1,4.9-13.8,7.8-20.5c5.5-12.8,10.2-34.8,14-48.2l1.3,10.7c-0.6,9,4.4,19,6.8,27.8l6.8,25.1
		l4.1,0.3c4.4,0,7.2-1.4,12-2.9l24.8-7.6l4.1-1.5l-1.3-7.7l-9.6-75.7c-0.9-7.3-1.8-14.6-3.2-21.8c-0.8-4.5-2-9.2-4.7-12.9
		s-6.8-6-10.8-8.2c-17.1-9.4-34.8-8.8-53-15.9c-23.9-10-43.9-10.3-62.8-7.9c-35.2,20.8-68.2,36.7-98,64.8c-4,3.7-7.9,7.6-10.5,12.4
		c-3.4,6.3-4,13.7-4.3,20.8c-2,39.5,1.7,88.2,11.1,126.6c0,0,38.7-6.4,55.5-8.8c0,0-6.3-51-6.6-73.1"/>
	<path class="st7" d="M509.3,749.2c0,10.7,0.1,21.3,0.3,31.9c0.2,14,0.5,28,1,42.1c0.2,4.9,0.3,9.8,0.9,14.7c0.2,1.9,2,4.1,4.2,3.2
		l27.8-11.6l49.5-20.8l17.6-7.4l4.2-1.8c3.5-1.5,6.7-3.7,10-5.5c13.7-8,27.1-16.5,38.4-27.8c1.2-1.2,2.8-2.5,3.3-4.1
		c0.2-0.8,0.3-1.6,0.5-2.4c0.5-2.1,0.9-4.3,1.2-6.5l2.6-28c0.8-9,1.3-18.1,2.7-27c1.3-8.6,4.7-16.4,8.1-24.3
		c5.7-13.1,8.8-27.2,12.4-41c0.8-3,1.6-6,2.4-9l-6.5-0.9l0.8,6.3l0.5,3.7c0.2,1.3,0,2.5,0.1,3.8c0.3,5.3,1.9,10.5,3.6,15.5
		s3.3,10.3,4.8,15.5l5.3,19.7c0.4,1.4,1.7,2.4,3.2,2.4c2.7,0.3,5.4,0.3,8.1,0c2.2-0.4,4.3-1.1,6.4-1.8c2.6-0.9,5.2-1.6,7.8-2.4
		c7.9-2.4,15.8-4.7,23.6-7.5c1.8-0.6,2.8-2.4,2.3-4.2c-2.5-14.7-4.1-29.9-6-45.3l-3.8-30.4c-1.3-10-2.3-20.1-4.3-30
		c-0.8-4.4-2-9-4.6-12.8c-2.6-3.5-5.9-6.3-9.7-8.4c-8.1-4.6-16.8-7.9-25.8-9.8c-9-2.1-18.1-3.6-26.8-6.5c-4.5-1.5-8.9-3.5-13.4-4.9
		c-4.4-1.4-8.8-2.6-13.3-3.5c-8.1-1.6-16.3-2.3-24.6-2.2c-3.9,0.1-7.8,0.3-11.6,0.7c-1.8,0.1-3.6,0.3-5.4,0.7
		c-1.1,0.5-2.2,1-3.2,1.8l-3.4,2c-15.5,9-31.3,17.6-46.5,27.1c-15.2,9.3-29.6,19.9-42.9,31.7c-6.8,6.1-13.6,12.5-16.6,21.4
		c-2.8,8.3-2.7,17.6-2.9,26.2c-1.1,35.7,1.9,71.4,8.9,106.4c0.8,4,1.7,8,2.6,11.9c0.5,1.7,2.3,2.8,4.1,2.3
		c13.9-2.3,27.9-4.5,41.8-6.8c4.6-0.7,9.1-1.4,13.7-2.1c1.4-0.4,2.4-1.7,2.4-3.2c-2.3-18.4-4.3-36.8-5.7-55.3
		c-0.5-5.9-0.8-11.8-0.9-17.8c-0.1-4.3-6.7-4.3-6.7,0c0.2,11.5,1.3,23.1,2.4,34.6c1,10.7,2.2,21.4,3.4,32.1c0.2,2.2,0.5,4.3,0.8,6.5
		l2.4-3.2c-16.9,2.5-33.7,5.2-50.5,8l-5,0.8l4.1,2.3c-4.1-17.3-7-34.9-8.8-52.6c-1.9-18.3-2.8-36.7-2.7-55.1
		c0.1-8.7,0-17.5,1.2-26.1c0.5-4.5,2-8.9,4.3-12.8c2.4-3.7,5.6-6.8,8.9-9.8c13.4-12.6,28.2-23.3,43.8-33s31.6-18.5,47.4-27.7
		c2-1.2,4.1-2.4,6.1-3.6l-1.7,0.5c14.8-1.9,29.7-1.8,44.3,1.9c4.1,1,8.1,2.2,12,3.7c4.3,1.5,8.4,3.3,12.8,4.6
		c8.2,2.4,16.6,3.8,24.8,5.8c8.1,1.8,15.9,4.8,23.1,9c3.1,1.8,6.1,4,7.9,7.2c2,3.5,2.7,7.6,3.4,11.6c1.7,9.2,2.7,18.5,3.9,27.8
		l3.5,27.9c2,16.1,3.7,32.3,6.4,48.3l2.3-4.1c-7.6,2.7-15.3,4.9-23,7.3c-2.5,0.8-5.1,1.5-7.6,2.3c-2,0.8-4.1,1.4-6.2,1.9
		c-2.4,0.4-4.9,0.4-7.3,0l3.2,2.4c-2.9-10.9-5.5-22-9.2-32.6c-1.7-4.8-3.5-9.7-4.1-14.8c-0.2-1.6-0.1-3.2-0.2-4.9
		c-0.1-1-0.2-2.1-0.4-3.1l-0.9-7.3c0-1.8-1.5-3.3-3.4-3.3c-1.5,0-2.8,1-3.2,2.4c-4.6,16.2-7.7,33.5-14.2,48.7c-2.1,5-4.4,9.9-6.1,15
		c-1.7,5.3-2.8,10.7-3.3,16.2c-1.3,11.3-2.1,22.7-3.2,34l-0.9,9.6l-0.5,5c-0.1,0.8-0.2,1.7-0.2,2.5c0,0-0.1,1,0,0.5c0-0.2,0-0.1,0,0
		c-0.4,2.3-1,4.6-1.5,6.8l0.9-1.5c-7.6,7.9-16.1,14.8-25.3,20.7c-4.4,2.8-8.9,5.5-13.5,8.2l-6.7,3.9c-0.6,0.3-1.2,0.6-1.8,1
		c-0.3,0.3-0.1,0.2,0.1,0.1h-0.1c-1.7,0.8-3.4,1.5-5.2,2.2l-11.2,4.7l-32.7,13.7l-33,13.8l-11.5,4.8c-1.9,0.8-3.9,1.5-5.7,2.4
		l-0.2,0.1l4.2,3.2c-1.2-10.5-1.1-21.3-1.4-31.9c-0.3-14-0.6-28-0.7-42.1c0-4.9-0.1-9.8-0.1-14.7
		C515.9,744.9,509.2,744.9,509.3,749.2L509.3,749.2z"/>
	<path class="st8" d="M657.8,517.3c-2.9,3.9-7.6,13.7-4.1,17c1.3,1.2,3,1.6,4.6,2.4l4,3.3c-7.9,9.4-21.5,11.7-33.8,11.5
		c-6-0.1-12.1-0.6-17.5-3.2c-3.8-1.7-6.9-4.6-9-8.2l2.4-10.5c0.6-1.1,1.3-2.2,2-3.3c7.4-12.4,12.3-26.1,14.7-40.4l-2.9-9.4
		c-14.3,1.7-28.5-11.3-28.1-25.7c0.1-3.2-0.8-6.2,1.5-10.7c0.9-1.9,8.9-15.5,31.4,0.5c2.7-15.3,8.9-29.7,18.1-42.2
		c29.3,6.6,59.2,10.2,89.3,10.9l1.9,2.8c-0.4,10.3-1.4,16.6-2.3,26.9c-0.6,7.2-1.3,14.5-2.4,21.6c-2,13.1-5.2,26.2-11.9,37.5
		s-17.3,20.9-30.1,24.1s-27.8-1-35.3-11.9"/>
	
		<linearGradient id="SVGID_6_" gradientUnits="userSpaceOnUse" x1="201.4872" y1="830.6841" x2="430.7899" y2="830.6841" gradientTransform="matrix(1 5.235987e-04 5.235987e-04 -1 1.4693 1829.2522)">
		<stop  offset="0" style="stop-color:#169BC0"/>
		<stop  offset="1" style="stop-color:#88C6DC"/>
	</linearGradient>
	
		<linearGradient id="SVGID_7_" gradientUnits="userSpaceOnUse" x1="200.3772" y1="830.7823" x2="432.7878" y2="830.7823" gradientTransform="matrix(1 5.235987e-04 5.235987e-04 -1 1.4693 1829.2522)">
		<stop  offset="0" style="stop-color:#169BC0"/>
		<stop  offset="1" style="stop-color:#88C6DC"/>
	</linearGradient>
	<path class="st9" d="M369.6,920.8l63.1,47.7L251,1074.7c-24.6,10.6-48.3-24.4-47.6-68.3L369.6,920.8z"/>
	<path class="st10" d="M130.2,896.7c-0.3,0-0.9,4.7-1.6,11.8"/>
	
		<linearGradient id="SVGID_8_" gradientUnits="userSpaceOnUse" x1="170.5963" y1="841.7036" x2="343.1242" y2="1140.5319" gradientTransform="matrix(1 5.235987e-04 5.235987e-04 -1 1.4693 1829.2522)">
		<stop  offset="0" style="stop-color:#FEFDFD"/>
		<stop  offset="1" style="stop-color:#FFFFFF"/>
	</linearGradient>
	<path class="st11" d="M431.8,803.7c0,0-70.7-108.7-83.9-113.2s-53.2-2.3-53.2-2.3c-23.3,2-45.8,5.2-66.5,10.9
		c0,0-41.4,17.3-66.6,38c-16.2,13.2-22.6,60-32.7,167.9l62,9c4.8-21,9.6-42,12.6-50.9c-1.9,66.2-7,99.7,0.8,142.9
		c76.6-7.1,164-75.1,165.2-87.2c-8.8-24.9-15.2-33.2-16.4-100.8l30.9,33.2L431.8,803.7z"/>
	
		<linearGradient id="SVGID_9_" gradientUnits="userSpaceOnUse" x1="171.8575" y1="843.0657" x2="345.6674" y2="1144.1057" gradientTransform="matrix(1 0 0 -1 0 1832)">
		<stop  offset="0" style="stop-color:#FEFCFC"/>
		<stop  offset="1" style="stop-color:#FFFFFF"/>
	</linearGradient>
	<path class="st12" d="M434.6,802c-4.1-6.4-8.3-12.7-12.5-19c-9.1-13.7-18.4-27.3-27.9-40.8c-9.5-13.5-19.1-27-29.5-39.7
		c-3.2-4.1-6.8-8-10.6-11.6c-1.2-1.2-2.6-2.2-4.1-3c-3.3-1.6-7.2-1.9-10.8-2.4c-9.7-1.2-19.5-1.2-29.3-1.1
		c-5.9,0.1-11.8,0.2-17.7,0.7c-16.2,1.3-32.3,3.6-48.2,6.8c-3.8,0.8-7.5,1.6-11.2,2.6c-2.2,0.5-4.4,1.1-6.5,1.9
		c-1.9,0.8-3.7,1.6-5.6,2.5c-20.5,9.3-40.9,19.9-58.7,33.7c-3.9,2.8-7.1,6.4-9.6,10.5c-2.6,4.6-4.7,9.4-6.2,14.4
		c-4.9,15.2-7.4,31.1-9.6,46.9c-3.7,25.5-6.2,51.3-8.7,76.9c-0.8,7.9-1.5,15.8-2.3,23.7c0,1.5,1,2.8,2.4,3.2l20.9,3l33.4,4.8
		l7.7,1.1c1.7,0.2,3.7-0.4,4.1-2.3c2.3-10,4.5-20,7-30c1.7-7,3.4-14.1,5.6-20.9l-6.5-0.9c-0.6,21.8-1.9,43.6-2.8,65.3
		c-0.7,16.8-1.1,33.6,0.1,50.3c0.7,9.4,1.9,18.8,3.5,28.1c0.4,1.4,1.7,2.4,3.2,2.4c25.7-2.4,50.5-10.8,73.9-21.5
		c21.6-9.9,42.2-21.9,61.4-35.9c7.3-5.2,14.2-10.8,20.8-16.7c4-3.6,8.3-7.6,11-12.3c0.5-0.8,0.9-1.7,1.1-2.6
		c0.5-1.7-0.1-3.1-0.7-4.7c-1.1-2.9-2.1-5.8-3.2-8.7c-2.1-5.6-4-11.3-5.6-17.1c-0.9-3.4-1.6-6.8-2.3-10.3c-0.4-2-0.7-4-1-6.1
		c-0.2-1.3-0.2-1.6-0.4-2.6c-0.1-1.2-0.3-2.4-0.4-3.5c-1.4-12.3-2-24.7-2.4-37.1c-0.1-4.1-0.2-8.1-0.3-12.2l-5.7,2.3l27.2,29.2
		l3.8,4.1c1.3,1.3,3.4,1.3,4.7,0l16.1-16.1l25.7-25.6l5.9-5.9c3-3-1.7-7.7-4.7-4.7l-16.1,16.1L387.6,843l-5.9,5.9h4.7l-27.1-29.2
		l-3.8-4.1c-2-2.1-5.7-0.5-5.7,2.3c0.2,13.8,0.7,27.6,1.9,41.4c0.7,8.9,1.9,17.7,3.7,26.5c1.3,6.1,3,12,5.1,17.8c1,2.8,2,5.5,3,8.2
		c0.5,1.4,1,2.8,1.6,4.2c0.3,0.7,0.5,1.5,0.8,2.2c0.1,0.4,0.2,0.8,0.4,1.2c-0.9-0.9,0.3-1.9,0-1c-0.1,0.1-0.1,0.3-0.1,0.4
		c-0.1,0.6,0.1-0.2,0.1-0.3c-0.2,0.3-0.4,0.7-0.5,1c-0.5,0.8-1,1.6-1.6,2.4c0.4-0.5,0.3-0.4,0,0l-0.5,0.7c-0.4,0.5-0.8,1-1.3,1.5
		c-1,1.1-2,2.1-3,3.1c-2.5,2.5-5.2,4.9-7.9,7.2c-1.6,1.3-3.2,2.7-4.8,4c-1.9,1.5-3.3,2.6-4.9,3.9c-18,13.6-37.3,25.5-57.7,35.5
		c-22.5,11.1-46.5,20.1-71.4,23.9c-2.8,0.4-5.6,0.8-8.4,1l3.2,2.4c-2.8-15.9-4.1-31.9-4.1-48c-0.1-18.3,1-36.5,1.8-54.8
		c0.6-13.1,1.2-26.2,1.6-39.2c0.1-3.9-5.4-4.3-6.5-0.9c-2.2,6.9-3.9,13.9-5.6,20.9c-2.4,10-4.7,20-7,30l4.1-2.3l-21-3l-33.4-4.8
		l-7.7-1.1l2.4,3.2c2.6-28,5.3-56,8.8-83.8c2.2-17.4,4.6-35.4,9-52.7c0.8-3,1.6-6.1,2.6-9.1c0.4-1.3,0.9-2.7,1.4-4
		c0.2-0.6,0.4-1.1,0.6-1.7l0.4-0.9l0.2-0.4c0.1-0.2-0.3,0.8,0,0c0.9-2.1,1.9-4.1,3.1-6.1c0.5-0.9,1-1.7,1.6-2.5
		c0.1-0.2,0.3-0.4,0.4-0.6c0.4-0.5,0.1-0.1-0.1,0c0.3-0.3,0.6-0.8,0.9-1.1c1.7-1.9,3.6-3.6,5.7-5c5-3.8,10.2-7.3,15.6-10.6
		c10-6.1,20.3-11.8,30.9-16.9c5.4-2.7,10.9-5.2,16.4-7.6c0.3-0.1-0.7,0.4-0.6,0.3s1.1-0.3,1.1-0.3c1.8-0.5,3.7-1,5.5-1.4
		c3.7-0.9,7.5-1.8,11.2-2.5c7.6-1.6,15.3-2.8,23-3.9c9.7-1.3,19.5-2.5,29.2-2.9c8.7-0.3,17.4-0.4,26.1-0.2c4.8,0.2,9.5,0.4,14.2,1
		c0.1,0,0.2,0,0.4,0l0.6,0.1c0.5,0.1,1,0.2,1.5,0.2c0.9,0.2,1.9,0.3,2.8,0.6c0.7,0.2,1.5,0.4,2.2,0.6s-0.6-0.4-0.4-0.2
		s0.3,0.1,0.4,0.2s0.5,0.3,0.8,0.5c0.4,0.3,1.1,1,0.4,0.2c0.6,0.6,1.4,1.2,2,1.8c1.7,1.6,3.3,3.3,4.9,5.1c2,2.3,4,4.6,5.9,7
		c1.1,1.3,2.2,2.7,3.2,4l1.6,2l0.2,0.2l0.3,0.5l1,1.3c5,6.6,9.9,13.2,14.7,20c9.9,13.8,19.5,27.9,29,42c5.8,8.6,11.5,17.2,17.1,25.8
		l0.8,1.3C431.2,808.9,437,805.6,434.6,802z"/>
	<path class="st8" d="M336.8,564.7c0,0,56.4,118.5-46.4,110.7c-4.4,7-3.8,14.3-1.6,21.6c25.6,23.5-44.3,39.7-56.4,4.3l1.7-35.8
		C156,545.6,265.9,454.5,336.8,564.7z"/>
	
		<linearGradient id="SVGID_10_" gradientUnits="userSpaceOnUse" x1="160.8228" y1="1139.109" x2="279.7123" y2="1345.0255" gradientTransform="matrix(1 5.235987e-04 5.235987e-04 -1 1.4693 1829.2522)">
		<stop  offset="0" style="stop-color:#094388"/>
		<stop  offset="1" style="stop-color:#008FBA"/>
	</linearGradient>
	<path class="st13" d="M342.8,547.2c-1.5-20.5-17.2-37.3-34.9-47.7c-34.9-20.7-80.3-24.5-115.3-6.6c-25.7,10.5-39.8,33.9-45,52.9
		c-17.3,36.2-28.8,77.2-24.4,97.7c2.5,11.4,6.9,22.8,15.5,31.2c9.9,9.7,24.4,14.4,38.6,15.5s28.4-1.1,42.5-3.3l22.5-3.5
		c-13.7-15.9-8.2-39.4-7.2-47.3c-24.8,4.8-31.1-29-25.7-41.9c5.2-12.4,21.2-15.3,32.6-7.5c2.4,1.7,5.2,3,7.1,5.1
		c2.1,1.9,4.8,3,7.6,3c28.3-0.8,57-9.7,78.1-28.6c2.6-2.1,4.8-4.7,6.3-7.7C342.9,554.9,343.1,551,342.8,547.2z"/>
	
		<linearGradient id="SVGID_11_" gradientUnits="userSpaceOnUse" x1="162.3961" y1="1140.7781" x2="282.3961" y2="1348.618" gradientTransform="matrix(1 0 0 -1 0 1832)">
		<stop  offset="0" style="stop-color:#094388"/>
		<stop  offset="1" style="stop-color:#008FBA"/>
	</linearGradient>
	<path class="st14" d="M346.2,547.2c-1.3-16.4-10.8-30.6-23.1-41.1c-12.9-10.9-28.8-18.5-45-23c-16.3-4.7-33.5-6.1-50.4-4.2
		c-8.3,1-16.6,2.9-24.5,5.7c-4,1.4-8,3.1-11.8,5c-1.5,0.8-3.8,1.6-5.5,2.5s-3.5,1.9-5.2,2.9c-12.8,8-23.1,19.5-29.9,33
		c-1.5,3.1-2.9,6.2-4.1,9.4c-0.6,1.5-1.1,3-1.5,4.5c-0.4,1.6-1,3.1-1.7,4.6c-4,8.6-7.7,17.4-11,26.3c-5.8,15.8-10.7,32.1-12.8,48.9
		c-0.9,6.1-1,12.4-0.3,18.5c1.1,8.1,3.6,16,7.3,23.3c4,7.9,10,14.7,17.5,19.5c7.3,4.6,15.5,7.7,24,9.1c20,3.6,40.4-0.3,60.2-3.4
		l14.9-2.3c2.7-0.4,3-3.9,1.5-5.7c-1.2-1.4-2.2-2.9-3.1-4.5c-0.8-1.5-1.6-3-2.2-4.5c-0.6-1.7-1.2-3.4-1.6-5.2
		c-0.2-0.8-0.4-1.7-0.5-2.5c-0.1-0.5-0.1-0.9-0.2-1.3c0-0.2,0-0.3-0.1-0.5c0.1,0.7-0.1-0.4-0.1-0.4c-0.4-3.3-0.5-6.7-0.3-10
		c0.1-1.6,0.2-3.2,0.3-4.7l0.2-1.9c0-0.3,0.1-0.7,0.1-1c0-0.2,0-0.3,0.1-0.5c-0.1,0.4-0.1,0.5,0,0c0.4-2.6,0.8-5.2,1.1-7.7
		c0.3-2.4-2.4-3.6-4.3-3.3c-0.4,0.1-0.8,0.1-1.2,0.2c0.8-0.1-0.3,0-0.5,0c-0.8,0.1-1.5,0.1-2.3,0.1c-0.6,0-1.3-0.1-1.9-0.1
		s0,0,0.1,0l-0.5-0.1c-0.4-0.1-0.8-0.2-1.2-0.2c-0.6-0.1-1.2-0.3-1.7-0.5c-0.1,0-1.1-0.4-0.6-0.2s-0.5-0.2-0.7-0.3
		c-0.6-0.3-1.1-0.6-1.6-0.9l-0.8-0.5c-0.1-0.1-0.9-0.7-0.6-0.4l-0.5-0.4l-0.6-0.5c-0.5-0.5-1-1-1.4-1.5c-0.2-0.2-0.4-0.4-0.5-0.6
		s-0.2-0.2-0.3-0.4c-0.3-0.3,0.4,0.5,0.1,0.1c-0.4-0.5-0.8-1.1-1.1-1.7c-0.7-1.1-1.4-2.3-1.9-3.5l-0.4-0.8c-0.1-0.2-0.1-0.3-0.2-0.5
		c0.3,0.7,0.1,0.3,0.1,0.1c-0.3-0.7-0.5-1.4-0.8-2.1c-0.8-2.5-1.5-5.1-1.9-7.7c0-0.2,0-0.3-0.1-0.5c0.1,0.8,0.1,0.4,0,0.2
		s-0.1-0.6-0.1-1c-0.1-0.7-0.1-1.3-0.2-2c-0.1-1.3-0.1-2.5,0-3.8s0.1-2.3,0.3-3.5c-0.1,1,0,0.2,0-0.1s0.1-0.5,0.1-0.8
		c0.1-0.5,0.2-1.1,0.4-1.6s0.3-0.9,0.4-1.4c0.1-0.2,0.2-0.4,0.2-0.7s0.1-0.2,0.1-0.2c0.2-0.6-0.4,0.8,0-0.1c0.4-0.8,0.8-1.5,1.2-2.3
		c0.2-0.3,0.4-0.6,0.6-0.9s-0.3,0.4,0-0.1c0.2-0.2,0.3-0.4,0.5-0.6c0.5-0.6,1.1-1.2,1.7-1.7c0.1-0.1,1-0.8,0.5-0.4
		c0.4-0.3,0.7-0.5,1.1-0.8c0.7-0.4,1.4-0.8,2.1-1.2c0.2-0.1,1-0.4,0.4-0.2c0.5-0.2,1-0.4,1.4-0.5c0.8-0.2,1.6-0.5,2.4-0.6l1.1-0.2
		c0.5-0.1-0.5,0,0,0l0.8-0.1c0.8-0.1,1.7-0.1,2.5,0c0.4,0,0.8,0,1.2,0.1l0.6,0.1c0.6,0.1-0.2,0,0.2,0c1.7,0.3,3.5,0.8,5.1,1.4
		c0.1,0,0.6,0.2,0.1,0l0.6,0.3c0.4,0.2,0.7,0.3,1,0.5c0.8,0.4,1.6,0.9,2.4,1.5c1.9,1.1,3.7,2.4,5.5,3.7c0.8,0.7,1.6,1.5,2.4,2.1
		c1,0.7,2.1,1.3,3.3,1.8c4.1,1.6,8.7,1,13,0.7c4.6-0.4,9.2-1,13.8-1.7c8.8-1.5,17.4-3.9,25.7-7.1c8.4-3.3,16.5-7.6,23.9-12.8
		c3.8-2.6,7.4-5.5,10.7-8.7c3.6-3.5,6.5-7.5,7.4-12.6C346.3,552.2,346.4,549.7,346.2,547.2c0-1.9-1.5-3.3-3.4-3.4
		c-1.9,0-3.4,1.5-3.4,3.4c0.3,4.5-0.1,8.9-3,12.4c-2.9,3.4-6.3,6.4-9.9,8.9c-7.1,5.3-14.9,9.7-23.1,13.1
		c-12.6,5.1-25.9,8.2-39.4,9.2c-2.3,0.2-4.5,0.3-6.8,0.4c-0.5,0-0.9,0-1.4,0c0.5,0,0,0-0.1,0L255,591c-0.9-0.2-1.8-0.6-2.6-1.1
		c-0.2-0.1-0.4-0.2-0.6-0.4c0.1,0.1,0.3,0.3-0.1-0.1s-0.7-0.7-1.1-1c-1-0.9-2.1-1.7-3.2-2.4c-1.8-1.2-3.6-2.4-5.4-3.5
		c-3.5-2-7.4-3.2-11.3-3.6c-7.3-0.8-15,1.7-20.1,7.1c-7.9,8.5-7.5,21.9-4.4,32.3c1.5,5.6,4.4,10.8,8.5,15c4.3,4.2,10.1,6.6,16.1,6.5
		c1.8,0,3.5-0.2,5.3-0.6l-4.3-3.3c0,0.4,0.1-0.9,0-0.1c0,0.2-0.1,0.5-0.1,0.7c-0.1,0.5-0.2,1.1-0.2,1.6c-0.2,1.2-0.4,2.4-0.5,3.6
		c-0.4,3.2-0.8,6.4-1,9.6c-0.4,7.3,0.2,15,2.8,21.9c1.7,4.5,4.1,8.7,7.3,12.4l1.5-5.7c-9.9,1.5-19.9,3.1-29.8,4.6
		c-9.6,1.6-19.4,2.4-29.2,2.3c-16-0.4-33.1-4.9-43.9-17.5c-5.2-6.1-8.5-13.6-10.6-21.3c-0.6-2-1.1-4-1.5-6c-0.1-0.5-0.2-1.1-0.3-1.7
		c0-0.2-0.2-1.3-0.1-0.3c0-0.3-0.1-0.7-0.1-1c-0.3-2.9-0.4-5.7-0.3-8.6c0.1-3.3,0.4-6.6,0.8-9.8c-0.1,0.5,0.1-0.5,0.1-0.6
		c0-0.4,0.1-0.8,0.2-1.2c0.1-1,0.3-1.9,0.5-2.8c0.3-1.8,0.7-3.7,1.1-5.5c1.7-8.1,3.9-16.1,6.5-23.9c2.8-8.5,5.9-16.9,9.3-25.1
		c1.7-4.1,3.5-8.2,5.4-12.2c0.8-1.7,1.5-3.5,2-5.3c0.4-1.4,0.9-2.8,1.4-4.2c0.3-0.7,0.5-1.4,0.8-2.1l0.4-1l0.2-0.6
		c-0.2,0.5,0,0,0.1-0.2c0.6-1.5,1.3-2.9,2-4.3c1.5-3,3.2-5.9,5-8.7c1.8-2.7,3.8-5.4,5.9-7.8c2.4-2.7,4.9-5.3,7.7-7.7
		c2.7-2.4,5.6-4.5,8.7-6.4c3.4-2,6.9-3.8,10.5-5.4c7-3.4,14.3-6.1,21.9-7.9c15.5-3.5,31.6-3.8,47.3-1c16,2.8,31.4,8.6,45.2,17.3
		c6.4,4,12.2,8.9,17.3,14.5c2.5,2.7,4.7,5.7,6.6,8.8c1.9,3,3.5,6.3,4.7,9.7c0.6,1.7,1,3.4,1.4,5.2c0.4,1.6,0.6,3.3,0.7,5
		c0,1.9,1.5,3.3,3.4,3.4C344.7,550.5,346.2,549,346.2,547.2z"/>
	<path class="st8" d="M133,909.1c-1.4,14.6-3.3,38.7-4,54.4c-0.3,5.6,1.2,14.7,3.4,19.8c2.6,5.9,90.3,61.1,155.4,87.3
		c0,0,11.3-22.2,14.4-31c-31.8-20.2-108.6-71.1-108.3-71.5s-4.8-4.1-5.7-7c-0.7-2.5,0.1-7.8,0.1-7.8c-0.1-0.1,2.2-21.1,4-36.2"/>
	
		<linearGradient id="SVGID_12_" gradientUnits="userSpaceOnUse" x1="36.2255" y1="454.1588" x2="1434.2355" y2="514.3597" gradientTransform="matrix(1 5.235987e-04 5.235987e-04 -1 1.4693 1829.2522)">
		<stop  offset="0" style="stop-color:#FDEDED"/>
		<stop  offset="1" style="stop-color:#D8F1F4"/>
	</linearGradient>
	
		<linearGradient id="SVGID_13_" gradientUnits="userSpaceOnUse" x1="18.9463" y1="453.4136" x2="1451.515" y2="515.1044" gradientTransform="matrix(1 5.235987e-04 5.235987e-04 -1 1.4693 1829.2522)">
		<stop  offset="0" style="stop-color:#FAEEEE"/>
		<stop  offset="1" style="stop-color:#D8F2F6"/>
	</linearGradient>
	<polygon class="st15" points="47.7,1195.5 506.3,1401.8 1416.5,857.8 1416.3,1266.9 506.1,1813.8 47.5,1600 	"/>
	<polygon class="st16" points="48.2,1196.9 506.6,1403.8 1415.8,858.6 958.2,654.6 	"/>
	<path class="st8" d="M803.5,796.9c0.4,0.1-78.4-67-79.3-73.1c-3-4.2-11.8-25.5-15.1-34l44.6-12l6,21.6l67.5,82.7"/>
	<path class="st8" d="M678.2,841.1c-41.9-1.2-83.7-5.6-124.9-13.2c-7-1.3-14.2-2.8-19.7-7.3c-5.2-4.3-8-10.8-10.5-17.1
		c-6.6-16.6-12.1-33.7-16.5-51l52.8-8.6c2.8,11.2,6.2,22.3,10.1,33.1c0.9,2.5,1.9,5,3.8,6.9c2.1,2.2,5.1,3.2,7.9,4.2
		c31.9,11,64.2,20.9,96.9,29.7"/>
	<path class="st8" d="M676.7,822.2l14.9-5c8.4-2.8,42,5.5,39.1,15.2c-1,3.4-4.1,13.5-7.7,13.7c-1.7,0-41.4-9.1-45.5-11.5"/>
	<path class="st8" d="M678.5,828.6l12.4-4.2c1.2-0.5,2.4-0.8,3.6-1.1l0.4-0.1c1-0.2-1.6,0.2-1.1,0.2s0.8-0.1,1.2-0.1
		c1.9-0.1,3.8,0,5.6,0.2c0.5,0.1,1,0.2,1.5,0.2c-0.3,0.1-1.9-0.3-0.8-0.1l1,0.2c1.1,0.2,2.2,0.4,3.4,0.6c2.3,0.5,4.6,1.1,6.9,1.8
		c1.2,0.3,2.3,0.7,3.5,1.2l1.5,0.6l0.8,0.3c0.9,0.3-1.7-0.7-0.5-0.2c1.8,0.8,3.6,1.8,5.3,2.9l0.6,0.4c0.9,0.6-0.6-0.4-0.7-0.6
		c0.2,0.3,0.7,0.6,1,0.9s0.5,0.5,0.7,0.8c0.7,0.8-0.8-1.2-0.6-0.8c0.1,0.2,0.2,0.3,0.3,0.5c0.6,0.9,0.2,0.9-0.2-0.6
		c0,0.3,0.1,0.6,0.2,0.9c-0.1-0.1-0.1-2.1-0.2-1.2c0,0.2,0,0.3,0,0.5c0,0.3,0.4-2,0.2-1.2c-0.1,0.2-0.1,0.3-0.1,0.5
		c-0.6,2.2-1.4,4.3-2.2,6.5c-0.2,0.4,0.7-1.6,0.2-0.5c-0.2,0.3-0.3,0.6-0.4,1c-0.3,0.6-0.6,1.1-0.9,1.7c-0.1,0.2-0.3,0.5-0.4,0.7
		c-0.8,1.2,0.2-0.5,0.4-0.4s-1.9,1.7-0.4,0.5c1-0.8,0.5-0.4,0.3-0.3c-0.5,0.3,1.4-0.6,1.2-0.5c-1,0.3,1-0.1,1.1-0.1
		c-0.1,0-0.2,0-0.2,0c-0.3,0,2.3,0.4,1.3,0.2l-0.6-0.1c-7.2-1.3-14.4-3.1-21.5-4.9s-14.7-3.4-21.7-6c-1.1-0.4,1.7,0.6,1,0.4
		c-0.2-0.1-0.3-0.1-0.4-0.2c-3-1.7-7.4-0.8-9.1,2.4c-1.8,3.2-0.7,7.2,2.4,9.1c2.7,1.5,5.9,2.3,8.8,3.1c4.4,1.2,8.8,2.3,13.2,3.4
		c7.8,1.9,15.6,3.9,23.5,5.4c1.7,0.5,3.6,0.5,5.4,0.2c3.5-0.8,6-3.8,7.7-6.9c1.5-2.9,2.7-5.8,3.6-8.9c1-2.5,1.3-5.2,0.9-7.9
		c-0.9-4.8-5.3-8.3-9.3-10.6c-4.7-2.5-9.6-4.5-14.8-5.7c-5-1.4-10.2-2.2-15.4-2.5c-2.2-0.1-4.5,0.1-6.7,0.5c-1.1,0.2-2.3,0.6-3.4,1
		l-6.3,2.1l-6.5,2.2c-3.3,1.1-5.8,4.6-4.6,8.2C671.3,827.2,674.9,829.8,678.5,828.6L678.5,828.6z"/>
	<path class="st8" d="M806.9,791.3c11.7,6.8,47.2,35.9,48.1,35.6c0.5-0.2,10.8-19.5,10-23c-1.2-5-18.8-19.3-23.6-21.1
		c-10.1-3.8-21.4-3.6-31.4,0.5"/>
	<path class="st8" d="M803.6,797c3.8,2.2,7.3,4.8,10.8,7.4c4.8,3.5,9.4,7,14.1,10.6l3.4,2.7c-2-1.5,0.2,0.1,0.7,0.5l1.8,1.4l6.2,4.8
		c3.3,2.5,6.5,5.1,9.8,7.5c1.8,1.5,4.2,2,6.4,1.5c2.7-0.8,4.1-3,5.4-5.3c2.7-4.8,5-9.8,7.1-14.8c0.9-1.9,1.5-3.9,2-6
		c0.7-2.9,0.1-6-1.5-8.5c-3.2-4.9-7.8-8.9-12.2-12.6s-9-7.5-14.3-9.6c-9-3.5-19.3-3.8-28.6-1.6c-2.2,0.5-4.3,1.2-6.4,2.1
		c-1.7,0.5-3.1,1.6-4,3c-1.8,3.2-0.8,7.2,2.4,9.1c1.5,0.8,3.5,1.3,5.1,0.7c2-0.8,4.1-1.5,6.2-2c1-0.2,2-0.5,3-0.6l0.6-0.1
		c0.9-0.2-1.4,0.2-0.5,0.1c0.6-0.1,1.2-0.1,1.7-0.2c2.1-0.2,4.2-0.2,6.3-0.1c0.6,0,1.2,0.1,1.7,0.1l0.7,0.1c0.9,0.1-1.4-0.2-0.5-0.1
		c1.1,0.2,2.1,0.4,3.2,0.6s2,0.5,2.9,0.8c0.5,0.2,1,0.3,1.4,0.5c0.8,0.3,2.2,1.1-0.2-0.2c0.7,0.4,1.4,0.7,2.1,1.1
		c0.9,0.6,1.8,1.2,2.7,1.8c0.5,0.3,1,0.7,1.5,1l0.9,0.7l0.3,0.2c0.9,0.7-0.6-0.4-0.6-0.5c0.5,0.5,1,0.9,1.6,1.2l1.7,1.4
		c1.1,0.9,2.3,1.9,3.4,2.9c2,1.8,3.8,3.6,5.6,5.6l0.5,0.6l0.2,0.2c0.5,0.6-0.7-0.9-0.7-0.8c0.2,0.4,0.5,0.8,0.8,1.2
		c0.2,0.3,0.4,0.7,0.5,1c0.5,0.8-0.7-1.7-0.4-1c0.1,0.4,0.2,1.1,0-0.4c-0.3-2-0.3,1,0-0.9c0.2-1.6,0-0.1-0.1,0.3
		c-0.3,1-0.6,1.9-0.9,2.8c-0.2,0.5-0.4,1-0.6,1.5l-0.3,0.8c-0.2,0.6,0.5-1.2,0.4-1s-0.2,0.4-0.2,0.6c-0.5,1.2-1,2.3-1.6,3.5
		c-1.1,2.3-2.2,4.5-3.4,6.7c-0.7,1.3-1.5,2.6-2.2,3.9c-0.5,0.9,1-1.3,0.8-1c1.6-1.8,5.8-2.5,7.9-1l-0.1-0.1l-0.8-0.5
		c-2.7-1.8-5.2-3.9-7.8-5.9l0.5,0.4l-0.7-0.5l-1.6-1.2l-3-2.3l-7.7-6c-8.1-6.3-16.2-12.7-24.8-18.2c-0.7-0.4-1.3-0.8-2-1.2
		c-3.2-1.8-7.3-0.6-9,2.6C799.6,791.3,800.6,795.1,803.6,797z"/>
	<path class="st8" d="M537.1,923.6l14.9-5c8.4-2.8,30.6,9.6,39.1,15.2c4.7,3.1,4.6,12.8,2.2,15.9c-5.2,7-46-5.9-55.3-13.8"/>
	<path class="st8" d="M538.9,930l11.2-3.8c1.4-0.6,2.9-1,4.4-1.5c1.6-0.4-1.8,0.1-0.4,0c0.4,0,0.8,0,1.3,0s0.9,0.1,1.3,0.1
		c1.1,0.1-1.9-0.3-0.8-0.1l0.7,0.1c1.1,0.2,2.1,0.5,3.2,0.7c2.3,0.7,4.6,1.5,6.9,2.4c0.4,0.2,1.6,0.7-0.4-0.2
		c0.3,0.1,0.6,0.3,0.9,0.4l1.8,0.8c1.2,0.6,2.4,1.1,3.6,1.7c2.3,1.2,4.6,2.4,6.8,3.6c2,1.1,3.9,2.2,5.8,3.4c0.7,0.4,1.4,0.9,2.2,1.3
		l0.5,0.3c0.9,0.6-1.3-1.2-0.5-0.4c0.2,0.2,0.3,0.4,0.5,0.6c-1.4-1.3-0.7-0.9-0.3-0.3c0.1,0.2,0.3,0.5,0.4,0.7
		c0.5,1-0.6-1.7-0.2-0.5c0.2,0.5,0.3,0.9,0.4,1.4c0.1,0.3,0.1,0.6,0.2,0.9c0.3,1.2-0.2-1.8-0.1-0.6c0.1,0.7,0.1,1.4,0.1,2.1
		c0,0.4-0.3,1.4-0.1,1.7c0,0,0.3-1.9,0.1-1c0,0.3-0.1,0.5-0.2,0.8c-0.1,0.5-0.3,1-0.4,1.4c-0.3,1,0.8-1.6,0.3-0.8
		c-0.1,0.2-0.3,0.5-0.4,0.7c0.7-1.5,1.2-1.3,0.5-0.8s1.8-1.2,0.8-0.6c-0.2,0.1-0.4,0.2-0.6,0.3c2-1.2,1.4-0.5,0.6-0.3
		c-0.2,0.1-0.5,0.1-0.7,0.2c-0.2,0-0.3,0.1-0.5,0.1c-0.9,0.2,2-0.2,1.1-0.2s-1.6,0.1-2.4,0.1c-1.7,0-3.4-0.1-5.1-0.3
		c-1.7-0.2,1.7,0.3,0.2,0l-1.5-0.2c-1-0.2-2.1-0.4-3.1-0.6c-4.5-0.9-8.9-2.1-13.3-3.5c-2.5-0.8-5-1.6-7.4-2.6
		c-1.2-0.4-2.3-0.9-3.5-1.4l-0.6-0.2c-1-0.4,1.8,0.8,0.4,0.2l-1.7-0.7c-1.9-0.9-3.8-1.8-5.6-2.8c-0.7-0.4-1.4-0.8-2.1-1.3l-1-0.7
		c-0.5-0.3-1-0.9,0.8,0.7l-0.5-0.4c-1.3-1.2-2.9-1.9-4.7-2c-1.8,0-3.4,0.7-4.7,2c-2.3,2.5-2.8,7,0,9.4c3,2.4,6.3,4.4,9.8,6
		c4.7,2.2,9.4,4.1,14.3,5.7c9,3,18.6,5.7,28.1,6c4.2,0.1,8.6-0.5,11.9-3.3c1.9-1.8,3.1-4.2,3.6-6.7c0.7-3.4,0.7-6.9,0-10.2
		c-0.6-3.3-2.2-6.3-4.7-8.6c-2-1.6-4.1-3-6.3-4.2c-4.5-2.7-9.2-5.2-14-7.4c-5-2.3-10.3-4.7-15.8-5.7c-2.9-0.6-5.8-0.7-8.7-0.2
		c-1.4,0.3-2.8,0.8-4.2,1.3l-5.8,2l-6.1,2c-3.3,1.1-5.8,4.6-4.6,8.2C531.8,928.7,535.4,931.2,538.9,930L538.9,930z"/>
	
		<linearGradient id="SVGID_14_" gradientUnits="userSpaceOnUse" x1="663.1954" y1="948.5613" x2="1005.1429" y2="948.5613" gradientTransform="matrix(1 5.235987e-04 5.235987e-04 -1 1.4693 1829.2522)">
		<stop  offset="0" style="stop-color:#094388"/>
		<stop  offset="1" style="stop-color:#169BC0"/>
	</linearGradient>
	
		<linearGradient id="SVGID_15_" gradientUnits="userSpaceOnUse" x1="660.5654" y1="948.5613" x2="1007.7729" y2="948.5613" gradientTransform="matrix(1 5.235987e-04 5.235987e-04 -1 1.4693 1829.2522)">
		<stop  offset="0" style="stop-color:#094388"/>
		<stop  offset="1" style="stop-color:#169BC0"/>
	</linearGradient>
	<polygon class="st17" points="665.1,921.8 792.1,973.2 1007.1,840.8 889.2,789.1 	"/>
	<polygon class="st18" points="1063.8,663.4 842,796.1 792.1,973.2 1007.1,840.7 	"/>
	<line class="st19" x1="841.9" y1="796.1" x2="792" y2="973.1"/>
	<path class="st8" d="M392.5,847.2c4.2,5.4,27,34.3,35.7,41.3c9.6,7.7,107.2,53.7,107.2,53.7s23.1-7.4,31.4-14.6
		c1.1-0.7-62.9-40.9-92.2-64.4c-5.3-4.1-10.3-8.5-15-13.3c-6.6-7-23.9-30.9-29.9-39.6"/>
	
		<linearGradient id="SVGID_16_" gradientUnits="userSpaceOnUse" x1="338.2358" y1="775.7312" x2="680.1833" y2="775.7312" gradientTransform="matrix(1 5.235987e-04 5.235987e-04 -1 1.4693 1829.2522)">
		<stop  offset="0" style="stop-color:#094388"/>
		<stop  offset="1" style="stop-color:#169BC0"/>
	</linearGradient>
	
		<linearGradient id="SVGID_17_" gradientUnits="userSpaceOnUse" x1="335.6058" y1="775.7312" x2="682.8134" y2="775.7312" gradientTransform="matrix(1 5.235987e-04 5.235987e-04 -1 1.4693 1829.2522)">
		<stop  offset="0" style="stop-color:#094388"/>
		<stop  offset="1" style="stop-color:#169BC0"/>
	</linearGradient>
	<polygon class="st20" points="340.1,1094.4 467,1145.8 682.1,1013.5 564.2,961.8 	"/>
	<polygon class="st18" points="738.8,836.1 517,968.8 467.1,1145.8 682.1,1013.4 	"/>
	<line class="st19" x1="516.8" y1="968.7" x2="466.9" y2="1145.8"/>
	<polygon class="st21" points="354,1202.7 434.6,1235.8 475.7,1212.2 398.8,1180.7 	"/>
	
		<linearGradient id="SVGID_18_" gradientUnits="userSpaceOnUse" x1="351.7207" y1="624.5592" x2="473.4057" y2="624.5592" gradientTransform="matrix(1 5.235987e-04 5.235987e-04 -1 1.4693 1829.2522)">
		<stop  offset="0" style="stop-color:#094388"/>
		<stop  offset="1" style="stop-color:#169BC0"/>
	</linearGradient>
	
		<linearGradient id="SVGID_19_" gradientUnits="userSpaceOnUse" x1="349.0908" y1="624.5592" x2="476.0357" y2="624.5592" gradientTransform="matrix(1 5.235987e-04 5.235987e-04 -1 1.4693 1829.2522)">
		<stop  offset="0" style="stop-color:#094388"/>
		<stop  offset="1" style="stop-color:#169BC0"/>
	</linearGradient>
	<polygon class="st22" points="353.5,1199.3 434.1,1232.5 475.2,1208.8 398.3,1177.3 	"/>
</g>
</svg>
