<svg xmlns="http://www.w3.org/2000/svg" xmlns:xlink="http://www.w3.org/1999/xlink" viewBox="0 0 1367 612.19"><defs><style>.cls-1{fill:url(#名称未設定グラデーション_21);filter:url(#luminosity-noclip);}.cls-2{mask:url(#mask);}.cls-3{fill:url(#名称未設定グラデーション_10);}</style><linearGradient id="名称未設定グラデーション_21" x1="683.5" y1="616.19" x2="683.5" y2="318.19" gradientUnits="userSpaceOnUse"><stop offset="0"/><stop offset="0" stop-color="#020202"/><stop offset="0.12" stop-color="#3c3c3c"/><stop offset="0.25" stop-color="#706f6f"/><stop offset="0.37" stop-color="#9c9b9b"/><stop offset="0.5" stop-color="#c0bebe"/><stop offset="0.62" stop-color="#dcdada"/><stop offset="0.75" stop-color="#efeded"/><stop offset="0.87" stop-color="#fbf9f9"/><stop offset="1" stop-color="#fffdfd"/></linearGradient><filter id="luminosity-noclip" x="0" y="0" width="1367" height="616.19" filterUnits="userSpaceOnUse" color-interpolation-filters="sRGB"><feFlood flood-color="#fff" result="bg"/><feBlend in="SourceGraphic" in2="bg"/></filter><mask id="mask" x="0" y="0" width="1367" height="616.19" maskUnits="userSpaceOnUse"><rect class="cls-1" y="318.19" width="1367" height="298"/></mask><linearGradient id="名称未設定グラデーション_10" x1="566.71" y1="806.37" x2="946.65" y2="-155.7" gradientTransform="matrix(1, 0.01, 0.01, 1.11, -4.08, -30.31)" gradientUnits="userSpaceOnUse"><stop offset="0" stop-color="#fffdfd"/><stop offset="0.04" stop-color="#fafbfb"/><stop offset="0.7" stop-color="#a4d9d8"/><stop offset="1" stop-color="#82cbca"/></linearGradient></defs><g id="レイヤー_2" data-name="レイヤー 2"><g id="レイヤー_1-2" data-name="レイヤー 1"><g class="cls-2"><path class="cls-3" d="M.45,502.21c63.24-69.34,137.46-140.8,227.8-140.58,72.5.18,145.76,47.56,214.85,25.32,52.74-17,86.25-70.73,121.26-117.13,13.34-17.7,31.24-41.48,73-72.51,40.11-29.77,93.46-40.24,140.75-24.28C933,203.19,986.2,173.69,1067,147.19c127.77-41.9,166-160.29,300-146v610l-1367,1Z"/></g></g></g></svg>