<svg xmlns="http://www.w3.org/2000/svg" xmlns:xlink="http://www.w3.org/1999/xlink" viewBox="0 0 1369.01 621.56"><defs><style>.cls-1{fill:url(#名称未設定グラデーション_10);}.cls-2{fill:none;}.cls-3{fill:url(#名称未設定グラデーション_53);}.cls-4{fill:url(#名称未設定グラデーション_53-2);}.cls-5{fill:url(#名称未設定グラデーション_53-3);}.cls-6{fill:url(#名称未設定グラデーション_53-4);}.cls-7{fill:url(#名称未設定グラデーション_117);}.cls-8{fill:url(#名称未設定グラデーション_117-2);}.cls-9{fill:#f49e9b;}.cls-10{fill:#fce1df;}.cls-11,.cls-12{stroke-miterlimit:10;stroke-width:0.84px;}.cls-11{fill:url(#名称未設定グラデーション_108);stroke:url(#名称未設定グラデーション_108-2);}.cls-12{fill:url(#名称未設定グラデーション_108-3);stroke:url(#名称未設定グラデーション_108-4);}.cls-13{fill:#fcdade;}.cls-14{fill:url(#名称未設定グラデーション_34);}.cls-15{fill:url(#名称未設定グラデーション_32);}.cls-16{fill:url(#名称未設定グラデーション_34-2);}.cls-17{fill:url(#名称未設定グラデーション_32-2);}.cls-18{fill:url(#名称未設定グラデーション_34-3);}.cls-19{fill:url(#名称未設定グラデーション_32-3);}.cls-20{fill:url(#名称未設定グラデーション_124);}.cls-21{fill:url(#名称未設定グラデーション_124-2);}.cls-22{fill:url(#名称未設定グラデーション_124-3);}.cls-23{fill:url(#名称未設定グラデーション_124-4);}.cls-24{fill:url(#名称未設定グラデーション_124-5);}.cls-25{fill:url(#名称未設定グラデーション_124-6);}.cls-26{fill:url(#名称未設定グラデーション_124-7);}.cls-27{fill:url(#名称未設定グラデーション_124-8);}.cls-28,.cls-29,.cls-33{stroke-linecap:round;stroke-linejoin:round;}.cls-28{stroke-width:13.12px;fill:url(#名称未設定グラデーション_43);stroke:url(#名称未設定グラデーション_46);}.cls-29{fill:#fff;stroke:#fff;stroke-width:13.44px;}.cls-30{fill:url(#名称未設定グラデーション_53-5);}.cls-31{fill:url(#名称未設定グラデーション_53-6);}.cls-32{fill:url(#名称未設定グラデーション_53-7);}.cls-33{fill:#bcdfeb;stroke:#bcdfeb;stroke-width:2.55px;}.cls-34{fill:url(#名称未設定グラデーション_53-8);}.cls-35{fill:url(#名称未設定グラデーション_53-9);}.cls-36{fill:url(#名称未設定グラデーション_53-10);}</style><linearGradient id="名称未設定グラデーション_10" x1="573.3" y1="864.71" x2="956.43" y2="-105.45" gradientTransform="matrix(1, 0.01, 0.01, 1.11, -11.51, -85.57)" gradientUnits="userSpaceOnUse"><stop offset="0" stop-color="#fffdfd"/><stop offset="0.04" stop-color="#fafbfb"/><stop offset="0.7" stop-color="#a4d9d8"/><stop offset="1" stop-color="#82cbca"/></linearGradient><linearGradient id="名称未設定グラデーション_53" x1="889.2" y1="238.78" x2="928.45" y2="238.78" gradientUnits="userSpaceOnUse"><stop offset="0" stop-color="#094388"/><stop offset="1" stop-color="#169bc0"/></linearGradient><linearGradient id="名称未設定グラデーション_53-2" x1="888.91" y1="238.78" x2="928.73" y2="238.78" xlink:href="#名称未設定グラデーション_53"/><linearGradient id="名称未設定グラデーション_53-3" x1="852.97" y1="265.96" x2="903.4" y2="265.96" xlink:href="#名称未設定グラデーション_53"/><linearGradient id="名称未設定グラデーション_53-4" x1="852.69" y1="265.97" x2="903.68" y2="265.97" xlink:href="#名称未設定グラデーション_53"/><linearGradient id="名称未設定グラデーション_117" x1="870.65" y1="88.09" x2="941.25" y2="88.09" gradientUnits="userSpaceOnUse"><stop offset="0" stop-color="#169bc0"/><stop offset="1" stop-color="#74bcd6"/></linearGradient><linearGradient id="名称未設定グラデーション_117-2" x1="870.23" y1="88.09" x2="941.67" y2="88.09" xlink:href="#名称未設定グラデーション_117"/><linearGradient id="名称未設定グラデーション_108" x1="732.75" y1="337.74" x2="819.72" y2="337.74" gradientTransform="translate(2.3 -0.54) rotate(0.03)" gradientUnits="userSpaceOnUse"><stop offset="0" stop-color="#169bc0"/><stop offset="1" stop-color="#88c6dc"/></linearGradient><linearGradient id="名称未設定グラデーション_108-2" x1="732.33" y1="337.55" x2="820.47" y2="337.55" xlink:href="#名称未設定グラデーション_108"/><linearGradient id="名称未設定グラデーション_108-3" x1="732.75" y1="311.26" x2="819.72" y2="311.26" xlink:href="#名称未設定グラデーション_108"/><linearGradient id="名称未設定グラデーション_108-4" x1="732.33" y1="311.53" x2="820.47" y2="311.53" xlink:href="#名称未設定グラデーション_108"/><linearGradient id="名称未設定グラデーション_34" x1="727.85" y1="304.61" x2="788.62" y2="199.34" gradientUnits="userSpaceOnUse"><stop offset="0" stop-color="#fefdfd"/><stop offset="1" stop-color="#fff"/></linearGradient><linearGradient id="名称未設定グラデーション_32" x1="727.64" y1="304.99" x2="788.85" y2="198.99" gradientUnits="userSpaceOnUse"><stop offset="0" stop-color="#fefcfc"/><stop offset="1" stop-color="#fff"/></linearGradient><linearGradient id="名称未設定グラデーション_34-2" x1="758.74" y1="322.74" x2="783.65" y2="279.61" xlink:href="#名称未設定グラデーション_34"/><linearGradient id="名称未設定グラデーション_32-2" x1="758.52" y1="323.11" x2="784.38" y2="278.32" xlink:href="#名称未設定グラデーション_32"/><linearGradient id="名称未設定グラデーション_34-3" x1="706.15" y1="281.04" x2="707.63" y2="278.46" xlink:href="#名称未設定グラデーション_34"/><linearGradient id="名称未設定グラデーション_32-3" x1="705.88" y1="281.51" x2="707.94" y2="277.94" xlink:href="#名称未設定グラデーション_32"/><linearGradient id="名称未設定グラデーション_124" x1="719.56" y1="199.88" x2="764.64" y2="121.8" gradientUnits="userSpaceOnUse"><stop offset="0" stop-color="#094388"/><stop offset="1" stop-color="#008fba"/></linearGradient><linearGradient id="名称未設定グラデーション_124-2" x1="719.31" y1="200.23" x2="764.82" y2="121.4" xlink:href="#名称未設定グラデーション_124"/><linearGradient id="名称未設定グラデーション_124-3" x1="748.89" y1="172.39" x2="769.61" y2="136.5" xlink:href="#名称未設定グラデーション_124"/><linearGradient id="名称未設定グラデーション_124-4" x1="748.69" y1="172.76" x2="769.83" y2="136.14" xlink:href="#名称未設定グラデーション_124"/><linearGradient id="名称未設定グラデーション_124-5" x1="740.6" y1="188.27" x2="746.08" y2="178.78" xlink:href="#名称未設定グラデーション_124"/><linearGradient id="名称未設定グラデーション_124-6" x1="740.38" y1="188.64" x2="746.29" y2="178.41" xlink:href="#名称未設定グラデーション_124"/><linearGradient id="名称未設定グラデーション_124-7" x1="746.08" y1="197.72" x2="749.12" y2="192.46" xlink:href="#名称未設定グラデーション_124"/><linearGradient id="名称未設定グラデーション_124-8" x1="745.87" y1="198.1" x2="749.34" y2="192.1" xlink:href="#名称未設定グラデーション_124"/><linearGradient id="名称未設定グラデーション_43" x1="669.85" y1="454.48" x2="1200.08" y2="431.64" gradientTransform="translate(2.3 -0.54) rotate(0.03)" gradientUnits="userSpaceOnUse"><stop offset="0" stop-color="#fdeded"/><stop offset="1" stop-color="#d8f1f4"/></linearGradient><linearGradient id="名称未設定グラデーション_46" x1="663.29" y1="454.76" x2="1206.63" y2="431.36" gradientTransform="translate(2.3 -0.54) rotate(0.03)" gradientUnits="userSpaceOnUse"><stop offset="0" stop-color="#faeeee"/><stop offset="1" stop-color="#d8f2f6"/></linearGradient><linearGradient id="名称未設定グラデーション_53-5" x1="907.87" y1="278.38" x2="1037.56" y2="278.38" gradientTransform="translate(2.3 -0.54) rotate(0.03)" xlink:href="#名称未設定グラデーション_53"/><linearGradient id="名称未設定グラデーション_53-6" x1="907.87" y1="273.55" x2="1037.56" y2="273.55" gradientTransform="translate(2.3 -0.54) rotate(0.03)" xlink:href="#名称未設定グラデーション_53"/><linearGradient id="名称未設定グラデーション_53-7" x1="907.87" y1="278.4" x2="1037.56" y2="278.4" gradientTransform="translate(2.3 -0.54) rotate(0.03)" xlink:href="#名称未設定グラデーション_53"/><linearGradient id="名称未設定グラデーション_53-8" x1="784.62" y1="343.94" x2="914.31" y2="343.94" gradientTransform="translate(2.3 -0.54) rotate(0.03)" xlink:href="#名称未設定グラデーション_53"/><linearGradient id="名称未設定グラデーション_53-9" x1="784.62" y1="343.95" x2="914.31" y2="343.95" gradientTransform="translate(2.3 -0.54) rotate(0.03)" xlink:href="#名称未設定グラデーション_53"/><linearGradient id="名称未設定グラデーション_53-10" x1="784.62" y1="339.1" x2="914.31" y2="339.1" gradientTransform="translate(2.3 -0.54) rotate(0.03)" xlink:href="#名称未設定グラデーション_53"/></defs><g id="レイヤー_2" data-name="レイヤー 2"><g id="レイヤー_1-2" data-name="レイヤー 1"><path class="cls-1" d="M.45,511.58C63.69,442.24,137.91,370.78,228.25,371c72.5.18,145.76,47.56,214.85,25.31,52.74-17,86.25-70.72,121.26-117.13,13.34-17.69,31.24-41.47,73-72.5,40.11-29.77,93.46-40.24,140.75-24.29,68.45,23.09,188.41-6.69,269.21-33.18C1175.13,107.3,1235-13.12,1369,1.17l-2,619.39-1367,1Z"/><path class="cls-2" d="M739.47,176.71a51.44,51.44,0,0,1-2.82-11.39C736.12,168.74,736.93,173.67,739.47,176.71Z"/><path class="cls-2" d="M771.12,335.36l25.44-15.16L771.29,335Z"/><path class="cls-3" d="M889.2,240.68q12.76,4.09,25.7,7.6v1.39l13.54-8.07-18-13.71-4.79,2.33C901,234.31,896,237,890.79,240Z"/><path class="cls-4" d="M889,241.5q12.76,4.11,25.71,7.61l-.63-.83v1.39a.86.86,0,0,0,1.28.74l13.54-8.07a.87.87,0,0,0,0-1.47l-18-13.72a.87.87,0,0,0-.87,0l-3.37,1.64A31.32,31.32,0,0,0,902,232a85.09,85.09,0,0,1-7.43,4.76,48,48,0,0,1-5.64,3c-1,.42-.56,2.08.46,1.65a46.56,46.56,0,0,0,5.28-2.77c2.67-1.56,5.32-3.15,7.83-4.95a34.08,34.08,0,0,1,4.81-3.41l3.58-1.74h-.87l18,13.71v-1.47l-13.53,8.06,1.29.74v-1.39a.88.88,0,0,0-.63-.82q-12.95-3.5-25.7-7.61C888.38,239.51,887.93,241.16,889,241.5Z"/><path class="cls-5" d="M867.58,252.08a32.1,32.1,0,0,1-3.62-.82l-11,4.6c.37,3.21.87,6.41,1.49,9.58a23.26,23.26,0,0,0,2,6.47c1.68,3.22,4.63,5.63,6.43,8.76l40.52-24.14A310.39,310.39,0,0,1,867.58,252.08Z"/><path class="cls-6" d="M867.81,251.26c-.76-.14-1.53-.29-2.28-.47a4.7,4.7,0,0,0-1.8-.36,2.92,2.92,0,0,0-.63.27l-3.72,1.56L852.75,255c-.32.13-.68.42-.63.82.29,2.49.64,5,1.07,7.43a39.28,39.28,0,0,0,1.7,7.2c1.56,4.14,5,6.88,7.25,10.62a.87.87,0,0,0,1.17.3L877,273.24l21.75-13,5.06-3a.87.87,0,0,0-.43-1.6,313,313,0,0,1-35.59-4.41c-1.08-.2-1.54,1.45-.46,1.65a318.9,318.9,0,0,0,36,4.48l-.43-1.6L889.26,264l-21.75,13-5.06,3,1.17.3c-2.12-3.57-5.58-6.25-7.08-10.2a37.93,37.93,0,0,1-1.62-6.73c-.44-2.47-.8-5-1.09-7.45l-.63.83,6.29-2.64,3.75-1.57a3.85,3.85,0,0,1,.89-.38s.52.24.72.29c.83.2,1.66.36,2.5.52C868.43,253.11,868.89,251.46,867.81,251.26Z"/><path class="cls-7" d="M882,105c.36-.71,3.36-5.88,11.91.2a38.57,38.57,0,0,1,6.85-16,170.17,170.17,0,0,0,33.87,4.11l.46.67.28-.11c4.53-1.74,6.39-7.4,5.71-12.2-1-6.86-5.92-12.76-12.08-15.92s-13.38-3.82-20.25-3c-8.47,1-17,4.55-22.29,11.23a7.18,7.18,0,0,1-1.41,1.5c-1.06.75-2.46.77-3.74,1-7.06,1.27-11,9.37-10.68,16.53.3,6.71,6.74,16.21,11.79,20.63l.2-.07a8.92,8.92,0,0,1-1.18-4.54C881.52,107.87,881.2,106.72,882,105Z"/><path class="cls-8" d="M883.13,105.68a3.73,3.73,0,0,1,2.13-1.87c2.77-1,5.9,1,8,2.52a1.27,1.27,0,0,0,1.85-.76,38.56,38.56,0,0,1,6.73-15.7l-1.42.58a174.16,174.16,0,0,0,34.2,4.16L933.58,94l.46.66a1.3,1.3,0,0,0,1.43.58c3.94-1.47,6.23-5.1,6.85-9.16a18.64,18.64,0,0,0-2.93-12.53c-5.52-8.77-15.84-12.47-25.84-12.32-9.73.14-20.23,3.33-26.92,10.73-.78.86-1.47,2.13-2.5,2.71s-2.45.5-3.6.77a12.32,12.32,0,0,0-5.2,2.68,18,18,0,0,0-5.68,11c-.74,4.82.52,9.22,2.74,13.5a42.29,42.29,0,0,0,9.17,12,1.28,1.28,0,0,0,1.23.33l.2-.08a1.29,1.29,0,0,0,.76-1.85,8.45,8.45,0,0,1-1-4.06,7,7,0,0,1,.38-3.25c.67-1.47-1.5-2.75-2.18-1.27a11.69,11.69,0,0,0,.62,9.85l.75-1.85-.2.08,1.23.32a40.07,40.07,0,0,1-7.58-9.37c-1.92-3.2-3.75-6.89-3.86-10.7A17.46,17.46,0,0,1,875.14,82a11.25,11.25,0,0,1,4-3.4c1.81-.91,3.82-.75,5.66-1.47,2.06-.82,3.21-3,4.74-4.52a26.86,26.86,0,0,1,5.35-4,36.87,36.87,0,0,1,12.53-4.31c9.1-1.49,19.44-.2,26.38,6.36,3.31,3.13,5.89,7.44,6.21,12.06.27,3.91-1.17,8.61-5.16,10.1l1.42.58a2.23,2.23,0,0,0-2-1.3c-1.54-.06-3.09-.09-4.63-.17-3.17-.16-6.34-.41-9.49-.75A168.11,168.11,0,0,1,901.14,88a1.32,1.32,0,0,0-1.42.58,40,40,0,0,0-7,16.3l1.85-.75c-2.78-1.94-6.5-3.92-10-2.77a6.35,6.35,0,0,0-3.64,3C880.22,105.85,882.39,107.13,883.13,105.68Z"/><path class="cls-9" d="M873.73,232.79a7.32,7.32,0,0,0,1.43,2.63,7.49,7.49,0,0,0,3,1.59c2.67.92,5.35,1.81,8,2.7l19.51-9.49c1.19-1,2.37-2.14,3.54-3.37l.57-2.63q.79-8.73,1.6-17.47a42,42,0,0,1,.9-6.32,50.73,50.73,0,0,1,2.94-7.78c2.08-4.86,3.86-13.21,5.32-18.29l.49,4.06c-.22,3.43,1.68,7.22,2.58,10.54q1.27,4.75,2.56,9.51l1.57.12c1.68,0,2.75-.54,4.54-1.1l9.39-2.88,1.56-.56-.49-2.94-3.6-28.7c-.35-2.77-.7-5.54-1.21-8.28a11.74,11.74,0,0,0-1.79-4.9,12.35,12.35,0,0,0-4.11-3.13c-6.49-3.56-13.21-3.34-20.11-6a46,46,0,0,0-6.5-2.18c-.34,1.17-.4,2.28.22,2.85a6.77,6.77,0,0,0,1.73.9l1.52,1.24c-3,3.57-8.14,4.44-12.81,4.38a16,16,0,0,1-6.65-1.21,7.67,7.67,0,0,1-3.41-3.11l.89-4c.25-.43.5-.84.75-1.25l.32-.58c-13.32,7.87-25.76,13.89-37,24.49a19.15,19.15,0,0,0-4,4.7c-1.27,2.39-1.5,5.17-1.64,7.88-.78,15,.65,33.43,4.19,48l2.83-.46,15.74-30.62c.13,8.37,2.5,27.73,2.5,27.73-4.65.68-13.66,2.14-18.24,2.89l-.24.46v.87l17.74-2.89A119.85,119.85,0,0,0,873.73,232.79Z"/><path class="cls-9" d="M872.52,233.12c.72,1.94,1.63,3.52,3.57,4.43a61.46,61.46,0,0,0,6.64,2.34c1.25.41,2.93,1.39,4.2.85.43-.17.84-.4,1.25-.6l12.54-6.1,4.92-2.39a6.41,6.41,0,0,0,1-.54,22.21,22.21,0,0,0,2.42-2.23A5,5,0,0,0,910.5,227a15.24,15.24,0,0,0,.6-3.05c.26-2.51.46-5,.69-7.53s.47-5.17.71-7.76a56.82,56.82,0,0,1,.93-7.48c1.05-4.67,3.52-8.92,4.88-13.51,1.28-4.3,2.25-8.69,3.48-13l-2.47-.34.4,3.28a37.92,37.92,0,0,0,.64,5.19c.64,2.43,1.61,4.75,2.26,7.18l2.38,8.8a1.28,1.28,0,0,0,1.21.92,12.2,12.2,0,0,0,2.7,0,32.86,32.86,0,0,0,5.39-1.56c3.11-.95,6.25-1.83,9.3-2.94a1.3,1.3,0,0,0,.88-1.55c-1.64-9.87-2.61-19.89-3.85-29.82-.37-2.88-.71-5.77-1.19-8.64-.4-2.4-.83-4.94-2.37-6.91a15.86,15.86,0,0,0-6-4.16,38.27,38.27,0,0,0-7.47-2.4c-2.88-.65-5.8-1.17-8.64-2-3.09-.92-6-2.27-9.14-3.08a1.28,1.28,0,0,0-1.55.88c-.46,1.76-.47,3.59,1.28,4.61a10.35,10.35,0,0,1,1.48.77l1,.85V142c-2.49,2.84-6.23,3.78-9.87,4-3.86.2-8.81.08-11-3.65l.12,1,.56-2.46a11.44,11.44,0,0,1,.29-1.29,12.47,12.47,0,0,1,1-1.74,1.26,1.26,0,0,0-1.72-1.72c-12.34,7.28-25.25,13.79-36,23.47-2.55,2.3-5.13,4.69-6.29,8-1.08,3.12-1,6.62-1.15,9.89a185.26,185.26,0,0,0,.67,21.59,161,161,0,0,0,3.71,23.52,1.29,1.29,0,0,0,1.55.89c1.2-.2,2.94-.07,3.64-1.18.3-.47.52-1,.77-1.5l3.55-6.9L867,196.13l2.23-4.33-2.35-.64c.16,9.25,1.38,18.55,2.5,27.73l.93-1.21c-3.73.54-7.46,1.14-11.19,1.74l-5.41.87c-.76.13-1.78.1-2.3.72a3,3,0,0,0-.51,2.1,1.28,1.28,0,0,0,1.59,1.22l17.74-2.89-1.55-.88a122.92,122.92,0,0,0,3.85,12.56c.55,1.51,3,.86,2.43-.67a122.92,122.92,0,0,1-3.85-12.56,1.29,1.29,0,0,0-1.55-.88l-17.74,2.89,1.6,1.21v-.47c-.14.2-.17.22-.1.09a1.59,1.59,0,0,1,.16-.32l-.75.58c6.08-1,12.16-2,18.25-2.88a1.24,1.24,0,0,0,.92-1.22c-1.12-9.18-2.34-18.48-2.5-27.73a1.27,1.27,0,0,0-2.35-.64l-13.76,26.76-2,3.86.75-.58-2.82.46,1.55.88a169.29,169.29,0,0,1-4.35-41.12,66.17,66.17,0,0,1,.51-10.06c.58-3.48,2.43-5.82,4.93-8.17A105.9,105.9,0,0,1,868.47,150c6.61-4.13,13.48-7.82,20.18-11.78l-1.72-1.72a11.42,11.42,0,0,0-1.41,3.08c-.2.91-.43,1.82-.62,2.73-.25,1.24.59,2.19,1.44,3a10.22,10.22,0,0,0,4.59,2.54,24.87,24.87,0,0,0,10.38.23,14.21,14.21,0,0,0,8.51-4.36,1.27,1.27,0,0,0,0-1.79c-.48-.39-1-.81-1.44-1.18a6.91,6.91,0,0,0-1.2-.64c-.94-.43-.75-1-.51-2l-1.55.88c2.62.68,5.06,1.7,7.6,2.59a60.4,60.4,0,0,0,7.4,1.91c4.78,1,10.26,2.06,14.08,5.36,1.9,1.64,2.32,4.11,2.73,6.47.5,2.88.84,5.79,1.21,8.7q1.07,8.54,2.14,17.08c.55,4.39,1.05,8.79,1.77,13.16l.88-1.55c-2.9,1-5.88,1.89-8.83,2.8a52.29,52.29,0,0,1-5.13,1.58,9.81,9.81,0,0,1-2.76,0l1.22.93-2.25-8.32c-.66-2.45-1.58-4.81-2.27-7.25-.74-2.61-.74-5.51-1.07-8.21a1.27,1.27,0,0,0-2.48-.33c-1.83,6.44-3.06,13.08-5.74,19.25a38.89,38.89,0,0,0-3.29,11.65c-.45,4.32-.8,8.65-1.2,13-.18,2-.24,4.06-.54,6a9.54,9.54,0,0,1-.53,2.46c.07-.14-.26.13-.5.37l-1,.94a13,13,0,0,1-1.55,1.42,5.62,5.62,0,0,1-.78.38l-10,4.84-8.75,4.26,1-.13q-3.46-1.14-6.93-2.31a13.6,13.6,0,0,1-2.91-1.16,4.65,4.65,0,0,1-1.74-2.57C874.39,231,872,231.6,872.52,233.12Z"/><path class="cls-9" d="M860.11,249.31c-2-1.64-3.05-4.09-4-6.48-1.44-3.62-2.72-7.31-3.88-11,.12,8.93.37,20.84.74,24.06l10.1-4.91A10.1,10.1,0,0,1,860.11,249.31Z"/><path class="cls-9" d="M861,248.42c-2.23-1.94-3.24-4.77-4.27-7.45-1.2-3.13-2.28-6.3-3.29-9.5a1.26,1.26,0,0,0-2.47.33q.09,7.09.28,14.17c.09,3.29.1,6.62.46,9.89a1.28,1.28,0,0,0,1.9,1.09L863.7,252c1.08-.52.62-1.95-.3-2.3a9.21,9.21,0,0,1-2.4-1.32c-1.26-1-3.06.77-1.78,1.78a13,13,0,0,0,3.51,2l-.3-2.31-10.09,4.91,1.89,1.09c-.36-3.27-.37-6.6-.46-9.89q-.19-7.08-.28-14.17l-2.48.34c1.1,3.5,2.29,7,3.63,10.37,1.1,2.8,2.25,5.67,4.58,7.69C860.43,251.26,862.23,249.48,861,248.42Z"/><path class="cls-9" d="M868.13,191.16l-15.74,30.62c4.58-.75,13.59-2.21,18.24-2.89C870.63,218.89,868.26,199.53,868.13,191.16Z"/><path class="cls-9" d="M867,190.52l-13.76,26.76-2,3.86a1.27,1.27,0,0,0,1.42,1.85c6.08-1,12.16-2,18.25-2.88a1.24,1.24,0,0,0,.92-1.22c-1.12-9.18-2.34-18.48-2.5-27.73a1.26,1.26,0,0,0-2.52,0c.16,9.25,1.38,18.55,2.5,27.73l.93-1.21c-6.09.88-12.17,1.89-18.25,2.88l1.42,1.85,13.76-26.75,2-3.86C870,190.36,867.78,189.08,867,190.52Z"/><path class="cls-9" d="M863.07,251,853,255.86l11-4.6Z"/><path class="cls-9" d="M862.43,249.86l-8.83,4.3-1.26.61a1.26,1.26,0,0,0,1,2.31l9.61-4,1.37-.58a1.31,1.31,0,0,0,.93-1.21,1.29,1.29,0,0,0-.93-1.22c-.3-.09-.59-.19-.89-.3a1.26,1.26,0,0,0-1.55.88,1.29,1.29,0,0,0,.88,1.55c.3.11.59.21.89.3V250l-9.61,4-1.37.58,1,2.3,8.83-4.3,1.26-.61a1.27,1.27,0,0,0,.46-1.72A1.3,1.3,0,0,0,862.43,249.86Z"/><path class="cls-9" d="M889.2,240.68l1.59-.67c5.23-3.06,10.16-5.7,14.92-9.79l-19.51,9.49Z"/><path class="cls-9" d="M889.53,241.89a58.57,58.57,0,0,0,7.51-4.07,68.4,68.4,0,0,0,9.56-6.71c1.15-1-.31-2.57-1.52-2L888,237.43l-2.45,1.19a1.27,1.27,0,0,0,.3,2.3l3,1c1.55.5,2.21-1.93.67-2.43l-3-1,.3,2.3,17.07-8.29,2.45-1.2-1.53-2a66,66,0,0,1-9.05,6.31,54.23,54.23,0,0,1-6.91,3.82A1.31,1.31,0,0,0,888,241,1.28,1.28,0,0,0,889.53,241.89Z"/><path class="cls-10" d="M904.28,131.7a10.5,10.5,0,0,0,2.85,2.75l.1-.15Z"/><path class="cls-10" d="M905.46,137.9a12.32,12.32,0,0,1,1.67-3.45,10.5,10.5,0,0,1-2.85-2.75l3,2.6-.1.15a13.51,13.51,0,0,0,10.55,1.75c4.87-1.2,8.89-4.83,11.44-9.14a39.37,39.37,0,0,0,4.51-14.24c.41-2.72.69-5.46.92-8.2.33-3.91.7-6.3.85-10.22l-.27-.38-52.47,19.61a10,10,0,0,0,9.49,5.21l1.1,3.57A44,44,0,0,1,888,137.16l.12-.07A45,45,0,0,1,905.46,137.9Z"/><path class="cls-10" d="M934.67,93.35a170.17,170.17,0,0,1-33.87-4.11,38.57,38.57,0,0,0-6.85,16c-8.55-6.08-11.55-.91-11.91-.2-.84,1.68-.52,2.83-.56,4a8.92,8.92,0,0,0,1.18,4.54L935.13,94Z"/><path class="cls-10" d="M887,139l-.89,4a7.67,7.67,0,0,0,3.41,3.11,16,16,0,0,0,6.65,1.21c4.67.06,9.8-.81,12.81-4.38l-1.52-1.24a6.77,6.77,0,0,1-1.73-.9c-.62-.57-.56-1.68-.22-2.85a45,45,0,0,0-17.32-.81l-.12.07-.32.58C887.45,138.15,887.2,138.56,887,139Z"/><path class="cls-11" d="M752.93,345.7l7.45-4.35c-8.16-3.66-16.82-8.15-24.71-12.56C738,340.84,745.37,349,752.93,345.7Z"/><path class="cls-12" d="M748.64,316.91c8.46,5.58,18,11.83,23.73,15.46-.25.69-.63,1.6-1.08,2.6l25.27-14.77,25.08-14.95-23.72-17.92-.47.24C794.14,293,771.85,310.05,748.64,316.91Z"/><path class="cls-13" d="M706.51,282.65l.18-1.32h0C706.61,281.74,706.56,282.17,706.51,282.65Z"/><path class="cls-14" d="M797.45,287.57a2.85,2.85,0,0,0,.42-1c-3.34-9.46-5.78-12.6-6.22-38.25l11.74,12.63,18.1-18S794.7,201.67,789.66,200s-20.17-.88-20.17-.88l-2.84.26a15.22,15.22,0,0,0,.61,3.12c9.7,8.9-16.79,15-21.39,1.64l.06-1.31-1.65.43s-15.72,6.58-25.27,14.4c-6.16,5-8.57,22.79-12.39,63.68h0a15.85,15.85,0,0,1,.46-3.16l-.42,3.17,23.45,3.39c1.8-8,3.65-15.94,4.76-19.32-.54,18.44-1.71,30.19-1.13,41.61,2.47,1.68,6.57,4.41,11.3,7.54Z"/><path class="cls-15" d="M798.53,288.21a2.77,2.77,0,0,0,.46-2.27c-.15-.5-.36-1-.53-1.48-.31-.83-.63-1.67-.94-2.51-.6-1.64-1.19-3.3-1.68-5a70,70,0,0,1-2.33-14.32c-.37-4.77-.51-9.56-.6-14.35l-2.15.89,11.74,12.63a1.27,1.27,0,0,0,1.78,0L820.13,246l2.25-2.24a1.27,1.27,0,0,0,.2-1.53q-7.37-11.34-15.15-22.43c-3.55-5.06-7.15-10.12-11-14.92a41.87,41.87,0,0,0-4.12-4.6,7.82,7.82,0,0,0-4.58-2.08,73.42,73.42,0,0,0-12.22-.58c-3,0-5.87.15-8.81.44-.62.07-1.32.53-1.26,1.26a9.5,9.5,0,0,0,.78,3.75c.31.5.85.85,1.2,1.32a3.09,3.09,0,0,1,.75,2,2.78,2.78,0,0,1-.73,1.48,6.74,6.74,0,0,1-2.2,1.49,16,16,0,0,1-13.73-.54,9.78,9.78,0,0,1-3.05-2.6,11.12,11.12,0,0,1-1.07-1.82,3.05,3.05,0,0,1-.15-1.65,1.27,1.27,0,0,0-1.6-1.21,31.46,31.46,0,0,0-5.43,2.11q-4.85,2.23-9.52,4.81a88.36,88.36,0,0,0-11,7,15.11,15.11,0,0,0-3.71,3.73c-2.09,3.17-3.14,7-4,10.7a177.13,177.13,0,0,0-3.12,18.73c-1.38,10.84-2.4,21.72-3.42,32.59a1.26,1.26,0,0,0,.92,1.22h0a1.29,1.29,0,0,0,1.6-1.22c.07-.65.13-1.31.23-2a1.9,1.9,0,0,0,.07-.46c0-.35.41-.51-.21.16l-2.15-.89-.42,3.17a1.25,1.25,0,0,0,.92,1.22l20.54,3,2.91.42a1.28,1.28,0,0,0,1.55-.88c1.46-6.44,2.73-13,4.76-19.31l-2.47-.34c-.25,8.18-.7,16.34-1,24.51-.14,3.25-.24,6.49-.26,9.74,0,1.53,0,3.05,0,4.58,0,.72,0,1.44.08,2.17a2.08,2.08,0,0,0,1.09,2c3.61,2.44,7.23,4.84,10.86,7.24a1.27,1.27,0,0,0,1.28,0l17.67-9.1L791.57,292l6.51-3.35c1.44-.74.17-2.92-1.27-2.18l-17.67,9.11-28.2,14.52-6.51,3.35h1.28q-5.67-3.75-11.31-7.53L735,307c-.69-13.84.72-27.77,1.13-41.61a1.27,1.27,0,0,0-2.48-.33c-2,6.29-3.3,12.87-4.76,19.31l1.55-.88-20.53-3-2.92-.43.93,1.22.42-3.17c.15-1.1-1.46-1.63-2.15-.89-.84.91-.71,2.94-.83,4.05l1.59-1.21h0l.93,1.22c.9-9.64,1.82-19.27,3-28.88.78-6.51,1.62-13,3-19.44.81-3.84,1.75-7.87,3.59-11.26a9.45,9.45,0,0,1,2.21-3,56.63,56.63,0,0,1,9.45-6.47c3.66-2.15,7.43-4.11,11.27-5.92,1.15-.54,2.3-1.07,3.46-1.58.31-.14.61-.28.92-.4s.1,0-.1,0l1.65-.43-1.59-1.22a6.54,6.54,0,0,0,1.13,4.1,12,12,0,0,0,3.06,3.28,16.22,16.22,0,0,0,8.33,2.9c4.25.38,11.45-.52,13.18-5.26a4.72,4.72,0,0,0-.19-3.54,7.29,7.29,0,0,0-1-1.68,6.16,6.16,0,0,1-.82-.88,8,8,0,0,1-.39-2.37l-1.27,1.26a102.22,102.22,0,0,1,18-.21,26.42,26.42,0,0,1,4.32.68c.35.09.44.17.26.07l.27.15a2.18,2.18,0,0,1,.48.36,33.09,33.09,0,0,1,3.76,4c7.71,9.24,14.38,19.42,21.06,29.41q2.82,4.21,5.6,8.46l.19-1.53-15.84,15.78L802.5,260h1.78l-11.74-12.63a1.27,1.27,0,0,0-2.15.89c.2,11.08.44,22.46,4.22,33,.32.9.65,1.79,1,2.68.18.5.37,1,.55,1.49.08.23.17.46.25.7a2.09,2.09,0,0,1,.13.35c.07.4.32-.48-.17.42C795.57,288.36,797.75,289.63,798.53,288.21Z"/><path class="cls-16" d="M748.64,316.91c23.21-6.86,45.5-23.87,48.81-29.34l-52.38,27Z"/><path class="cls-17" d="M749,318.13a120.54,120.54,0,0,0,26.14-11.61,117.16,117.16,0,0,0,18.48-13,25.05,25.05,0,0,0,4.93-5.3c.7-1.13-.65-2.28-1.72-1.73l-17.67,9.11-28.2,14.52-6.51,3.35a1.28,1.28,0,0,0,0,2.18L748,318c1.36.9,2.63-1.28,1.28-2.18l-3.57-2.36v2.18l17.67-9.1L791.57,292l6.51-3.35-1.72-1.72a21.55,21.55,0,0,1-3.82,4.14,84.58,84.58,0,0,1-7.33,5.88,137.54,137.54,0,0,1-22,13,107,107,0,0,1-14.86,5.72A1.26,1.26,0,0,0,749,318.13Z"/><path class="cls-18" d="M706.65,281.32h0l.42-3.17A15.85,15.85,0,0,0,706.65,281.32Z"/><path class="cls-19" d="M706.31,282.54h0a1.27,1.27,0,0,0,.67,0,.94.94,0,0,0,.43-.23,1,1,0,0,0,.33-.35,1.3,1.3,0,0,0,.17-.64l.37-2.77,0-.4a1.19,1.19,0,0,0-.5-1,1.28,1.28,0,0,0-2,.83c-.05.21-.08.42-.11.63-.13.89-.24,1.79-.33,2.69a1.26,1.26,0,0,0,.37.9,1.35,1.35,0,0,0,.89.37,1.33,1.33,0,0,0,.89-.37,1.46,1.46,0,0,0,.37-.9c.07-.68.15-1.37.24-2.06l0,.33c0-.23.06-.47.1-.7a1.46,1.46,0,0,1,.09-.36l-.13.3v0l-.19.25h0l-.25.19h0l-.3.13h0l-1.59-1.22-.37,2.78-.05.39,1.59-1.22h0a.94.94,0,0,0-.5,0,.82.82,0,0,0-.47.15,1.28,1.28,0,0,0-.58.75,1.32,1.32,0,0,0,.13,1A1.2,1.2,0,0,0,706.31,282.54Z"/><path class="cls-10" d="M767.88,194.27c39,2.92,17.59-42,17.59-42l-.08-.13c-.21.21-.42.41-.64.6-8,7.17-18.9,10.54-29.63,10.84a4.35,4.35,0,0,1-2.9-1.13,16.27,16.27,0,0,0-2.69-1.92c-4.3-2.94-10.38-1.87-12.36,2.85a9,9,0,0,0-.52,1.94,51.44,51.44,0,0,0,2.82,11.39,7.36,7.36,0,0,0,7.46,2.57c-.26,2.06-1.34,6.95-.28,11.76.58-1.74,1.21-3.47,1.75-5.22,1.08-3.51,1.8-7.25,1-10.83.78,3.58.06,7.32-1,10.83-.54,1.75-1.17,3.48-1.75,5.22a13.86,13.86,0,0,0,3,6.19l-3.49.54-.24,5a138.22,138.22,0,0,1,20.72-3.45A8.16,8.16,0,0,1,767.88,194.27Z"/><path class="cls-10" d="M767.26,202.48a15.22,15.22,0,0,1-.61-3.12,138.22,138.22,0,0,0-20.72,3.45l-.06,1.31C750.47,217.52,777,211.38,767.26,202.48Z"/><path class="cls-20" d="M745.2,196.34a38.14,38.14,0,0,1,1.25-4.69l.06-1.09a69.38,69.38,0,0,1-7-13.85c-2.54-3-3.35-8-2.82-11.39-3.81-30.94,27.18-46.53,48.74-13.18a7.15,7.15,0,0,0,2.37-6.53c-.57-7.76-6.54-14.14-13.24-18.11-13.24-7.83-30.46-9.29-43.73-2.52-9.76,4-15.11,12.84-17.06,20.06-6.55,13.74-10.94,29.29-9.25,37.06.95,4.31,2.62,8.65,5.88,11.85,3.75,3.68,9.24,5.46,14.64,5.86s10.79-.43,16.12-1.25l5-.79.28-6.12A38.14,38.14,0,0,0,745.2,196.34Z"/><path class="cls-21" d="M746.43,196.68c.39-1.94,1.36-3.92,1.35-5.91,0-1-.81-1.85-1.32-2.69-.73-1.19-1.42-2.39-2.08-3.62a62.73,62.73,0,0,1-3.16-6.75,14.41,14.41,0,0,0-.64-1.65c-.22-.4-.58-.75-.83-1.14a13,13,0,0,1-1.33-3,15.16,15.16,0,0,1-.56-5.95c.19-1.8-.24-3.73-.24-5.56a33.2,33.2,0,0,1,1.43-10,22.72,22.72,0,0,1,10-13.14,19.39,19.39,0,0,1,15.73-1.38c8.44,2.71,14.85,9.76,19.55,17a1.3,1.3,0,0,0,2,.26c2.61-2.61,3.11-5.71,2.52-9.26a20.43,20.43,0,0,0-3.6-8.4c-3.79-5.32-9.36-9.08-15.28-11.67-12.09-5.29-26.44-6.07-38.57-.45a38.64,38.64,0,0,0-8.14,4.72,30.46,30.46,0,0,0-5.91,6.4,33.75,33.75,0,0,0-3.83,7.25c-.48,1.25-.78,2.56-1.35,3.76-.77,1.67-1.51,3.34-2.21,5a100.15,100.15,0,0,0-6.25,19.9c-1,5.48-1.2,10.68.65,16a21.74,21.74,0,0,0,5.12,8.52,21.33,21.33,0,0,0,8.61,5c7.37,2.33,15.19,1.25,22.67.1l5.78-.9a1.31,1.31,0,0,0,.94-1.24l.29-6.12c.07-1.49-2.09-1.68-2.52-.34A42.71,42.71,0,0,0,744,196c-.32,1.61,2.15,2.3,2.47.68a45.07,45.07,0,0,1,1.26-4.69l-2.52-.34-.29,6.12.94-1.24c-12.16,1.9-30.2,5.9-37.52-7.47a24.31,24.31,0,0,1-2.63-14.92,79.19,79.19,0,0,1,4.62-17.64q1.79-4.89,4-9.6c1-2.18,1.58-4.51,2.63-6.69A28.87,28.87,0,0,1,727,128.39a41.53,41.53,0,0,1,8.05-3.9,40.18,40.18,0,0,1,8.83-2.19,46.89,46.89,0,0,1,18.37,1.39c6.45,1.79,12.87,4.85,17.72,9.54a22.11,22.11,0,0,1,5.51,8,15.69,15.69,0,0,1,1,4.78,6.4,6.4,0,0,1-2,5.2l2,.26c-4.57-7-10.54-13.7-18.35-17.12-5.56-2.43-11.92-3-17.63-.75A23.69,23.69,0,0,0,738,145.93a32.89,32.89,0,0,0-2.7,9.82,37.43,37.43,0,0,0-.24,5.6c0,1,.09,2,.19,3a24,24,0,0,1,0,2.94,17.68,17.68,0,0,0,1.43,7.21c.47,1.08,1.18,2,1.74,3,.63,1.17,1,2.57,1.55,3.79a70,70,0,0,0,4.19,7.95l.63,1c.08.13.61.85.47.43a2.9,2.9,0,0,1-.05,1c-.31,1.47-.91,2.91-1.21,4.41S746.11,198.3,746.43,196.68Z"/><path class="cls-22" d="M736.65,165.32a9,9,0,0,1,.52-1.94c2-4.72,8.06-5.79,12.36-2.85a16.27,16.27,0,0,1,2.69,1.92,4.35,4.35,0,0,0,2.9,1.13c10.73-.3,21.64-3.67,29.63-10.84.22-.19.43-.39.64-.6C763.83,118.79,732.84,134.38,736.65,165.32Z"/><path class="cls-23" d="M737.89,165.66a6.26,6.26,0,0,1,6.25-5.48,7.93,7.93,0,0,1,4.19,1.11,24.68,24.68,0,0,1,2.32,1.49,11,11,0,0,0,2.24,1.6c1.74.74,3.67.46,5.49.3a56.93,56.93,0,0,0,5.82-.8,49.37,49.37,0,0,0,11-3.47,39.69,39.69,0,0,0,11.1-7.36,1.3,1.3,0,0,0,.2-1.55c-6.23-9.57-15.84-19.19-28-19.32-9.43-.11-17.25,6.17-20.83,14.63a36.54,36.54,0,0,0-2.25,18.51c.19,1.62,2.76,1.64,2.57,0-1.12-9.35.77-19.79,8.26-26.17,6.77-5.75,16.06-5.38,23.49-1.12,6.08,3.49,10.81,8.95,14.59,14.76l.2-1.55c-5.87,5.59-13.66,8.86-21.57,10.28a52.79,52.79,0,0,1-6.16.71,6.66,6.66,0,0,1-2.67-.12,13.28,13.28,0,0,1-2.48-1.78c-2.83-1.87-5.7-3.16-9.16-2.54a8.65,8.65,0,0,0-7,7.19C735.13,166.6,737.6,167.29,737.89,165.66Z"/><path class="cls-24" d="M746.45,191.65c.07-.2.13-.41.2-.61-1.06-4.81,0-9.7.28-11.76a7.36,7.36,0,0,1-7.46-2.57,69.38,69.38,0,0,0,7,13.85Z"/><path class="cls-25" d="M747.69,192a3.1,3.1,0,0,0,.25-1,4.85,4.85,0,0,0-.17-.91,17.17,17.17,0,0,1-.23-1.91,25.3,25.3,0,0,1,0-3.59c.12-1.8.44-3.57.68-5.35.12-.9-.91-1.37-1.63-1.24a6.35,6.35,0,0,1-6.21-2.24,1.29,1.29,0,0,0-2.14,1.25,72.4,72.4,0,0,0,7.16,14.16l-.18-.65-.05,1.09c-.08,1.65,2.49,1.65,2.57,0,0-.3,0-.61,0-.92a3.09,3.09,0,0,0-.72-1.68q-1.35-2.15-2.57-4.38a64.63,64.63,0,0,1-3.78-8.3l-2.14,1.25a8.9,8.9,0,0,0,8.7,2.89l-1.62-1.23c0-.24,0,.22,0,.27l-.09.55c0,.37-.11.74-.16,1.11-.15,1-.28,2-.36,3a25.46,25.46,0,0,0,.41,7.13v-.68l-.19.61C744.71,192.89,747.19,193.56,747.69,192Z"/><path class="cls-26" d="M746.65,191c-.07.2-.13.41-.2.61l-.28,6.12,3.49-.54A13.86,13.86,0,0,1,746.65,191Z"/><path class="cls-27" d="M745.41,190.7a5,5,0,0,0-.26,1.38l-.07,1.39-.16,3.48,0,.82a1.23,1.23,0,0,0,.51,1,1.34,1.34,0,0,0,1.12.23l3.49-.54a1.25,1.25,0,0,0,.89-.9,1.31,1.31,0,0,0-.33-1.25l-.3-.37c-.1-.12-.1-.13,0,0l-.15-.19-.46-.68a13.71,13.71,0,0,1-.79-1.46l-.17-.36c.12.26-.06-.17-.08-.21-.1-.25-.18-.49-.27-.74-.17-.52-.31-1-.43-1.59a1.3,1.3,0,0,0-1.58-.9,1.33,1.33,0,0,0-.9,1.58,15.53,15.53,0,0,0,3.34,6.76l.57-2.15-3.5.54,1.63,1.24.26-5.5c0-.16,0-.32,0-.49a.45.45,0,0,1,0-.11s0-.07,0,.09,0,0,.06-.07l.1-.31a1.29,1.29,0,0,0-.9-1.58A1.33,1.33,0,0,0,745.41,190.7Z"/><path class="cls-10" d="M771.29,335l-10.91,6.38.4.17,10.34-6.16Z"/><path class="cls-10" d="M735.29,319.59h-.09A98.7,98.7,0,0,1,733.77,307c-1.59-1.07-2.51-1.71-2.49-1.74s-1.83-1.55-2.17-2.67a10,10,0,0,1,0-3c0-.05.85-8,1.52-13.73l-22.48-3c-.54,5.54-1.25,14.69-1.53,20.64a20.4,20.4,0,0,0,1.3,7.5c.58,1.35,12.75,9.4,27.73,17.76a43.36,43.36,0,0,1-.79-9Z"/><path class="cls-10" d="M772.37,332.37c-5.72-3.63-15.27-9.88-23.73-15.46a71.14,71.14,0,0,1-13.35,2.68l-.41.21a43.36,43.36,0,0,0,.79,9c7.89,4.41,16.55,8.9,24.71,12.56L771.29,335C771.74,334,772.12,333.06,772.37,332.37Z"/><path class="cls-10" d="M735.29,319.59l9.78-5c-4.73-3.13-8.83-5.86-11.3-7.54a98.7,98.7,0,0,0,1.43,12.59Z"/><path class="cls-10" d="M735.29,319.59a71.14,71.14,0,0,0,13.35-2.68l-3.57-2.36Z"/><polygon class="cls-28" points="1194.98 263.44 1194.59 263.67 1194.7 263.72 849.9 470.53 676.02 392.02 676.45 391.77 675.84 391.5 675.75 544.94 825.07 614.55 868.78 614.55 1194.9 418.59 1194.98 263.44"/><path class="cls-29" d="M1194.59,263.67,1057.15,202.4,1039.71,257h0l-53.89,33.17-27.65,17v0h0l0,0h0L925.53,294l-9.1,28.46,0,0h0l-53.88,33.17-27.66,17h0l0,0h0l-48.1-19.47,64.32-38.09,2.7-9.59-2.7,9.59.08,0,2.69-9.52,15-9a39.35,39.35,0,0,1-5-2.17c-1.75.66-3,1.07-3,1.07s-5.57-2.63-12.59-6l-26.55,15.82.21.16L796.56,320.2l-25.44,15.16c-1.71,3.8-4.22,8.76-4.22,8.76q-3-1.2-6.12-2.6l-84.33,50.25,173.32,78Zm-372,143.12L792,394.22l1.31-.64-1.5-.62,17-8.34L838,396.57l-1.2.69,1.39.57Z"/><path class="cls-29" d="M975.25,246.59l0,0-.87,3,.09,0Z"/><path class="cls-29" d="M879,290.46l52.69-31.53c-2.21-.37-14.48-3.23-16.72-4.2l0,2.35c-2-.06-4-.13-6-.23l-45.77,24.47c-.11-.22-.24-.43-.37-.65l-2,1.18,6.78,4.51C870.34,286,875.36,288.4,879,290.46Z"/><path class="cls-29" d="M976.9,235a20.75,20.75,0,0,1,4,2.77L1047.32,198l-26.16-11.66-60,35.77,9.66,11.82A16.08,16.08,0,0,1,976.9,235Z"/><path class="cls-29" d="M925.27,248.16c4.7.85,10.37,3.11,9.62,5.64a17.73,17.73,0,0,1-1.72,4.23l4.76-2.85-6.3,19.71,42.7-25.29.87-3c-3.6-2.79-7.78-6-10.36-7.69l-2.37,1.48c.08,0-6.14-5.3-12.94-11.3L928.45,241.6l3.74,2.87Z"/><path class="cls-29" d="M914.91,249.76l5.14-1.74a12.59,12.59,0,0,1,5.22.14l6.92-3.69-3.74-2.87-13.54,8.07Z"/><path class="cls-29" d="M909,256.85c-1.88-.09-3.75-.2-5.62-.32l-40.52,24.14c.13.22.26.43.37.65Z"/><polygon class="cls-29" points="821.85 305.41 821.64 305.25 796.56 320.2 821.85 305.41"/><path class="cls-29" d="M771.12,335.36l-10.34,6.16q3.12,1.39,6.12,2.6S769.41,339.16,771.12,335.36Z"/><polygon class="cls-29" points="849.9 470.53 1194.7 263.72 1194.59 263.67 849.77 469.74 676.45 391.77 676.02 392.02 849.9 470.53"/><path class="cls-10" d="M945.85,203.39l-2.27-8.21-16.91,4.56c1.25,3.23,4.58,11.28,5.73,12.88.18,1.26,9.06,9.32,17.13,16.42l11.61-6.92Z"/><path class="cls-10" d="M964.84,238.86l-1.05-.66,1.2-3a15.93,15.93,0,0,1,5.81-1.24l-9.66-11.82L949.53,229c6.8,6,13,11.31,12.94,11.3Z"/><path class="cls-10" d="M849.87,223.49c.7,2.79,1.5,5.56,2.36,8.31-.05-3.68-.08-6.84-.08-8.69Z"/><path class="cls-10" d="M914.39,249.93l.18-.06.34-.2v-1.39q-12.95-3.48-25.7-7.6L864,251.26a32.1,32.1,0,0,0,3.62.82,310.39,310.39,0,0,0,35.82,4.45l11-6.55Z"/><path class="cls-10" d="M860.11,249.31a10.1,10.1,0,0,0,3,1.64l23.13-11.24c-2.69-.89-5.37-1.78-8-2.7a7.49,7.49,0,0,1-3-1.59,7.32,7.32,0,0,1-1.43-2.63,119.85,119.85,0,0,1-3.84-12.57l-17.74,2.89c0,1.85,0,5,.08,8.69,1.16,3.72,2.44,7.41,3.88,11C857.06,245.22,858.13,247.67,860.11,249.31Z"/><path class="cls-10" d="M886.2,239.71,863.07,251l.89.31,25.24-10.58Z"/><path class="cls-10" d="M914.67,253.83l-5.65,3c2,.1,4,.17,6,.23l0-2.35-.22-.1Z"/><path class="cls-10" d="M914.91,249.76v-.09l-.34.2Z"/><path class="cls-10" d="M914.4,250l-11,6.55c1.87.12,3.74.23,5.62.32l5.65-3Z"/><path class="cls-10" d="M934.89,253.8c.75-2.53-4.92-4.79-9.62-5.64l-10.33,5.52v1c2.24,1,14.51,3.83,16.72,4.2l1.5-.9A17.73,17.73,0,0,0,934.89,253.8Z"/><path class="cls-10" d="M937.32,254.47c.7-2.87-1.47-5-3.8-6.23a24.27,24.27,0,0,0-4.37-1.74c-1.53-.46-3.65-1.24-5.15-.51-2.47,1.2-4.86,2.6-7.28,3.89l-3.05,1.63a2.51,2.51,0,0,0-1.25,2.17v1a2.63,2.63,0,0,0,1.85,2.43,59.36,59.36,0,0,0,9.4,2.57q2.6.63,5.2,1.2.86.19,1.74.36a3.69,3.69,0,0,0,2.83-.49c.32-.19.66-.37,1-.58a4.17,4.17,0,0,0,1.44-1.85,24.74,24.74,0,0,0,1.46-3.9c.93-3.12-3.94-4.45-4.86-1.34a13.48,13.48,0,0,1-1.47,3.63l.91-.9-1.51.9,2-.26c-2.81-.49-5.59-1.2-8.35-1.88a54.9,54.9,0,0,1-8.37-2.32l1.85,2.43v-1l-1.25,2.18,10.33-5.52-1.94.25a25.85,25.85,0,0,1,5.75,1.69,11.53,11.53,0,0,1,1.2.64l.52.33c.38.26-.06-.07.11.1l.37.37c-.24-.24-.07-.25,0,0s-.12-.51,0-.06c0-.16.08-1,0-.54a2.52,2.52,0,1,0,4.86,1.34Z"/><path class="cls-10" d="M925.27,248.16a12.59,12.59,0,0,0-5.22-.14l-5.14,1.74,0,3.92Z"/><path class="cls-10" d="M925.94,245.73a16.93,16.93,0,0,0-6.14-.25,20.43,20.43,0,0,0-2.51.82l-3,1a2.58,2.58,0,0,0-1.85,2.43l0,3.92a2.55,2.55,0,0,0,3.79,2.18l9-4.83,1.28-.69a2.55,2.55,0,0,0,.91-3.45A2.58,2.58,0,0,0,924,246l-9,4.83-1.29.69,3.79,2.17,0-3.92-1.85,2.43,2.86-1c.82-.28,1.64-.61,2.48-.83.1,0,.62-.1.12,0s.08,0,.19,0a9.55,9.55,0,0,1,1.07,0c.41,0,.82,0,1.23.09l.37,0h-.09l.79.13a2.73,2.73,0,0,0,1.94-.25,2.52,2.52,0,0,0-.6-4.61Z"/><path class="cls-10" d="M914.39,249.93v0l.17-.11Z"/><path class="cls-10" d="M911.87,249.93v0a2.47,2.47,0,0,0,.34,1.27,2.54,2.54,0,0,0,2.18,1.25,2.48,2.48,0,0,0,1.27-.35l.15-.09h0a1.9,1.9,0,0,0,.7-.65,1.79,1.79,0,0,0,.45-.86l.09-.67a1.8,1.8,0,0,0-.21-1,1.28,1.28,0,0,0-.33-.56,1.9,1.9,0,0,0-.7-.65l-.61-.25a2.54,2.54,0,0,0-1.34,0l-.18.06a2.82,2.82,0,0,0-1.5,1.16,1.77,1.77,0,0,0-.3.94,1.89,1.89,0,0,0,0,1l.26.6a2.53,2.53,0,0,0,.9.91l.6.25a2.54,2.54,0,0,0,1.34,0l.18-.06-1.94-4.61-.15.1h0l3.8,2.18v0a1.8,1.8,0,0,0-.21-1,2,2,0,0,0-.52-.81,1.85,1.85,0,0,0-.81-.52,2,2,0,0,0-1-.22l-.67.09a2.61,2.61,0,0,0-1.11.65l-.39.51A2.48,2.48,0,0,0,911.87,249.93Z"/><path class="cls-10" d="M914.67,253.83l.06.8.22.1v-1Z"/><path class="cls-10" d="M912.15,253.83l.06.77v0h0l.09.67.25.6.4.51s.49.38.51.4h0l0,0,.14.06a2.44,2.44,0,0,0,1.27.34,2.47,2.47,0,0,0,1.27-.34,2.54,2.54,0,0,0,1.25-2.18v-1a2.5,2.5,0,0,0-1.25-2.17,2.45,2.45,0,0,0-1.27-.35,2.48,2.48,0,0,0-1.27.35l-.27.14a2,2,0,0,0-.71.65,2,2,0,0,0-.45.86,1.89,1.89,0,0,0,0,1,1.85,1.85,0,0,0,.29.94l.4.51a2.5,2.5,0,0,0,1.11.65l.67.09a2.54,2.54,0,0,0,1.27-.34l.27-.15-3.79-2.18v1l3.79-2.17-.22-.11,1.25,2.18-.06-.8a2.43,2.43,0,0,0-1.55-2.3,1.9,1.9,0,0,0-1-.22l-.67.09a2.41,2.41,0,0,0-1.11.65l-.4.51A2.54,2.54,0,0,0,912.15,253.83Z"/><path class="cls-10" d="M914.4,250l.27,3.85.27-.15,0-3.92-.34.11Z"/><path class="cls-10" d="M911.88,250l.24,3.37,0,.48a2.57,2.57,0,0,0,.34,1.27,2.64,2.64,0,0,0,.91.91,2.61,2.61,0,0,0,2.54,0l.27-.15a2.51,2.51,0,0,0,1.25-2.18l0-3.43v-.49a2.5,2.5,0,0,0-.34-1.28,1.83,1.83,0,0,0-.65-.7,1.75,1.75,0,0,0-.86-.45,2.54,2.54,0,0,0-1.34,0,5.78,5.78,0,0,0-1.12.47,2.64,2.64,0,0,0-1.15,1.51,2.58,2.58,0,0,0,.25,1.94,2.55,2.55,0,0,0,1.51,1.16,2.58,2.58,0,0,0,1.94-.26l.18-.1-.61.25.34-.11-3.19-2.43,0,3.43v.49l1.25-2.17-.27.14,3.79,2.18-.24-3.38,0-.47a2.7,2.7,0,0,0-.74-1.79,2.59,2.59,0,0,0-1.78-.73,2.55,2.55,0,0,0-1.79.73A2.51,2.51,0,0,0,911.88,250Z"/><path class="cls-10" d="M977.1,240l3.83-2.29a20.75,20.75,0,0,0-4-2.77,16.08,16.08,0,0,0-6.1-1l.66.81-6.62,4.11c2.58,1.7,6.76,4.9,10.36,7.69L977,240l-1.84,6.54,0,0Z"/><path class="cls-10" d="M978.37,242.21l3.84-2.3c1.27-.76,1.8-2.91.51-4a21,21,0,0,0-5.15-3.41,18.18,18.18,0,0,0-6.77-1.12,2.54,2.54,0,0,0-2.3,1.55,2.6,2.6,0,0,0,.52,2.76l.65.8.51-4-6.61,4.12a2.55,2.55,0,0,0,0,4.35c3.37,2.23,6.89,5,9.84,7.29a2.67,2.67,0,0,0,2.46.65,2.57,2.57,0,0,0,1.76-1.76l1.84-6.54a2.52,2.52,0,1,0-4.86-1.34l-1.84,6.54a2.61,2.61,0,0,0,1.15,2.84l.06.05c1.33,1,3.31-.11,3.7-1.51l1.85-6.56a2.52,2.52,0,0,0-4.86-1.34l-1.85,6.56,3.71-1.51-.06,0,1.16,2.85,1.84-6.54a2.52,2.52,0,1,0-4.86-1.34l-1.84,6.54,4.21-1.12c-3.56-2.75-7.11-5.58-10.87-8.07V241l6.62-4.12a2.57,2.57,0,0,0,.51-4l-.66-.8-1.78,4.31a13.88,13.88,0,0,1,5.15.83c.57.19-.06,0-.07,0a3.24,3.24,0,0,0,.38.21c.29.16.57.34.84.52.76.52,1.38,1,2,1.53l.51-4-3.83,2.29a2.52,2.52,0,0,0,2.54,4.36Z"/><path class="cls-10" d="M970.8,233.94a15.93,15.93,0,0,0-5.81,1.24l-1.2,3,1.05.66,6.62-4.11Z"/><path class="cls-10" d="M970.8,231.42a19.76,19.76,0,0,0-4.46.64,16.11,16.11,0,0,0-1.89.63,3.32,3.32,0,0,0-1.24.7,2.59,2.59,0,0,0-.65,1.12l-.06.14-1.14,2.88-.09.67a1.8,1.8,0,0,0,.21,1,2.54,2.54,0,0,0,1,1.21c.36.21.71.43,1.06.66a2.46,2.46,0,0,0,2.54,0l5.78-3.6.84-.52a2.47,2.47,0,0,0,1.2-1.84,2.64,2.64,0,0,0-.69-2.12l-.66-.8a2.52,2.52,0,0,0-1.78-.74,2.53,2.53,0,0,0-2.52,2.52,2.87,2.87,0,0,0,.74,1.79l.65.8.51-4-5.78,3.6-.83.52h2.54q-.51-.34-1.05-.66l1.16,2.84,1.2-3-1.76,1.76a16.58,16.58,0,0,1,4-1.09l-.67.09a16.1,16.1,0,0,1,1.84-.14,2.53,2.53,0,0,0,0-5.05Z"/><path class="cls-10" d="M867.69,286.36c3.14,2.1,5.13,3.45,5,3.53-2,1.69-6.06,3.41-8.9,4.47a39.35,39.35,0,0,0,5,2.17L879,290.46C875.36,288.4,870.34,286,867.69,286.36Z"/><path class="cls-10" d="M866.42,288.53c1.15.77,2.3,1.54,3.43,2.33.34.23.67.46,1,.7s-.37-.36-.1-.08c.47.48-.39-.53-.47-.93l.25-1.94a.9.9,0,0,1,.36-.47c.16-.12.15-.11,0,0l-.33.22c-.33.23-.66.43-1,.63-.72.42-1.46.8-2.21,1.15l-1.12.52-.56.24-.19.08c-.77.32-1.54.62-2.31.91a2.58,2.58,0,0,0-1.81,2.1,2.5,2.5,0,0,0,1.2,2.51c1.15.6,2.34,1.12,3.54,1.61s2.67,1.27,4.07.55c.58-.3,1.13-.68,1.69-1l6.63-4,1.81-1.09a2.54,2.54,0,0,0,0-4.35,55.14,55.14,0,0,0-6.61-3.2,13.21,13.21,0,0,0-5.95-1.24,2.57,2.57,0,0,0-2.52,2.52,2.54,2.54,0,0,0,2.52,2.52,6,6,0,0,1,1.12,0c.6,0-.56-.12.05,0l.58.12a20.36,20.36,0,0,1,2.86.94l.34.13.07,0,.68.3,1.46.7c1,.48,1.92,1,2.86,1.52v-4.35l-10.15,6.07,1.94-.25-1.34-.5-.64-.26-.27-.11c-.74-.32-1.47-.66-2.19-1l-.6,4.61c1.82-.69,3.63-1.43,5.39-2.26a16.4,16.4,0,0,0,4.55-2.81,2.6,2.6,0,0,0,0-3.7,7.88,7.88,0,0,0-1.25-1c-1.38-1-2.8-1.93-4.22-2.88a2.54,2.54,0,0,0-3.45.91A2.57,2.57,0,0,0,866.42,288.53Z"/><polygon class="cls-29" points="974.34 249.6 958.12 307.16 958.16 307.18 958.18 307.17 974.42 249.56 974.34 249.6"/><polygon class="cls-30" points="974.34 249.6 958.12 307.16 958.16 307.18 958.18 307.17 974.42 249.56 974.34 249.6"/><polygon class="cls-29" points="1039.72 256.98 1039.69 256.97 985.83 290.15 1039.72 256.98"/><polygon class="cls-31" points="1039.72 256.98 1039.69 256.97 985.83 290.15 1039.72 256.98"/><polygon class="cls-29" points="931.63 274.89 925.53 293.98 958.12 307.16 974.34 249.6 931.63 274.89"/><polygon class="cls-32" points="931.63 274.89 925.53 293.98 958.12 307.16 974.34 249.6 931.63 274.89"/><polygon class="cls-33" points="1061.21 189.7 1047.32 198.01 1057.15 202.4 1061.21 189.7"/><path class="cls-33" d="M974.42,249.56l2.64-1.57-1.81-1.4Z"/><polygon class="cls-33" points="958.18 307.19 985.83 290.15 958.18 307.17 958.18 307.19"/><path class="cls-33" d="M985.77,242.83l9.23-5.46,44.69,19.6h0l17.44-54.56-9.83-4.39-66.39,39.73C983.12,239.52,985.36,241.68,985.77,242.83Z"/><path class="cls-33" d="M975.25,246.59l1.81,1.4,8.71-5.16c-.41-1.15-2.65-3.31-4.84-5.09L977.1,240Z"/><path class="cls-33" d="M985.77,242.83a1,1,0,0,1,.06.16c.31,1.31-3.58,8.66-3.78,8.72a60.26,60.26,0,0,1-5-3.72l-2.64,1.57-16.24,57.61,27.65-17L1039.69,257,995,237.37Z"/><path class="cls-33" d="M982.05,251.71c.2-.06,4.09-7.41,3.78-8.72a1,1,0,0,0-.06-.16L977.06,248A60.26,60.26,0,0,0,982.05,251.71Z"/><path class="cls-10" d="M837.74,265.48a55.57,55.57,0,0,1-5.68-5c-2.52-2.65-9.08-11.71-11.35-15l-14.12,14c1.61,2.06,10.25,13,13.53,15.65,2.22,1.78,17,9,28.07,14.36l12.72-7.58C853.25,276.73,843.63,270.21,837.74,265.48Z"/><path class="cls-10" d="M863.79,294.36a11.76,11.76,0,0,1-2-1.28l-.33-4.69,5.66-1.91a2.59,2.59,0,0,1,.58-.12l-6.78-4.51-12.72,7.58c7,3.37,12.59,6,12.59,6S862,295,863.79,294.36Z"/><path class="cls-10" d="M867.69,286.36a2.59,2.59,0,0,0-.58.12l-5.66,1.91.33,4.69a11.76,11.76,0,0,0,2,1.28c2.84-1.06,7-2.78,8.9-4.47C872.82,289.81,870.83,288.46,867.69,286.36Z"/><polygon class="cls-29" points="851.05 315.09 834.83 372.65 834.88 372.67 834.9 372.65 851.13 315.04 851.05 315.09"/><polygon class="cls-34" points="851.05 315.09 834.83 372.65 834.88 372.67 834.9 372.65 851.13 315.04 851.05 315.09"/><polygon class="cls-29" points="786.73 353.18 834.83 372.65 851.05 315.09 786.73 353.18"/><polygon class="cls-35" points="786.73 353.18 834.83 372.65 851.05 315.09 786.73 353.18"/><polygon class="cls-29" points="916.43 322.47 916.41 322.45 862.55 355.63 916.43 322.47"/><polygon class="cls-36" points="916.43 322.47 916.41 322.45 862.55 355.63 916.43 322.47"/><path class="cls-33" d="M931.63,274.89l6.3-19.71L933.17,258c-.37.56-.77.93-1.18,1l-.32-.05L879,290.46c1.18.67,2.22,1.3,3,1.79,1.23.81,1.58,2.83,1.39,4.39a5.8,5.8,0,0,1,1.48.77c2.51,1.88,2.85,5.45,3,8.58a12.6,12.6,0,0,1-.27,3.79l28.89,12.68,0,0,9.1-28.46L910,287.7Z"/><polygon class="cls-33" points="834.89 372.67 862.55 355.63 834.9 372.65 834.89 372.67"/><path class="cls-33" d="M868.18,304.39a8.56,8.56,0,0,1-5.57-1.14l11-5.23c-1.6-.42-3.25-.93-4.8-1.49l-15,9L851.13,315l18.17-10.76Z"/><path class="cls-33" d="M873.63,298l-11,5.23a8.56,8.56,0,0,0,5.57,1.14l1.12-.11,2.42-1.43,15.8,6.93a12.6,12.6,0,0,0,.27-3.79c-.12-3.13-.46-6.7-3-8.58a5.8,5.8,0,0,0-1.48-.77,3.64,3.64,0,0,1-.57,1.66C881.84,299.55,877.9,299.13,873.63,298Z"/><path class="cls-33" d="M933.17,258l-1.5.9.32.05C932.4,259,932.8,258.59,933.17,258Z"/><path class="cls-33" d="M877.11,296.37a13.73,13.73,0,0,1,6.23.27c.19-1.56-.16-3.58-1.39-4.39-.75-.49-1.79-1.12-3-1.79l-10.15,6.07c1.55.56,3.2,1.07,4.8,1.49Z"/><path class="cls-33" d="M877.11,296.37,873.63,298c4.27,1.11,8.21,1.53,9.14.28a3.64,3.64,0,0,0,.57-1.66A13.73,13.73,0,0,0,877.11,296.37Z"/><polygon class="cls-33" points="910.01 287.7 925.53 293.98 931.63 274.89 910.01 287.7"/><path class="cls-33" d="M886.59,311.58c-1.26,1.47-3.38,1.78-5.31,2a2,2,0,0,1-1.17-.11,1.93,1.93,0,0,1-.62-.68,26.2,26.2,0,0,1-2.88-6.13,3.85,3.85,0,0,0-1.18-2.13,3.06,3.06,0,0,0-1.46-.46,22.88,22.88,0,0,0-4.67.21L851.13,315,834.9,372.66l27.65-17,53.86-33.18-28.89-12.68A4.43,4.43,0,0,1,886.59,311.58Z"/><path class="cls-33" d="M869.3,304.28a22.88,22.88,0,0,1,4.67-.21,3.06,3.06,0,0,1,1.46.46,3.85,3.85,0,0,1,1.18,2.13,26.2,26.2,0,0,0,2.88,6.13,1.93,1.93,0,0,0,.62.68,2,2,0,0,0,1.17.11c1.93-.22,4.05-.53,5.31-2a4.43,4.43,0,0,0,.93-1.8l-15.8-6.93Z"/></g></g></svg>