<svg xmlns="http://www.w3.org/2000/svg" viewBox="0 0 291.11 103.6"><defs><style>.cls-1{opacity:0.89;}.cls-2{font-size:92.92px;font-family:Crescent-Regular, Crescent;letter-spacing:0.2em;}.cls-2,.cls-6{fill:#fff;}.cls-3{letter-spacing:0.3em;}.cls-4{letter-spacing:0.4em;}.cls-5{fill:none;stroke:#fff;stroke-linecap:round;stroke-linejoin:round;stroke-width:6.78px;}</style></defs><g id="レイヤー_2" data-name="レイヤー 2"><g id="レイヤー_1-2" data-name="レイヤー 1"><g class="cls-1"><text class="cls-2" transform="translate(0 78.98)">c<tspan class="cls-3" x="64.48" y="0">o</tspan><tspan class="cls-4" x="145.14" y="0" xml:space="preserve"> e</tspan></text><path class="cls-5" d="M145.32,51.11h36.9v3.16c0,11.16-6.27,22.95-18.8,22.95-11.37,0-20.6-8.62-21-26.06Z"/><path class="cls-6" d="M152.64,35.45a8.06,8.06,0,0,1-.06,1l.12-.9a7.33,7.33,0,0,1-.46,1.77,2.58,2.58,0,0,0-.06,1.35,2.44,2.44,0,0,0,.4,1.26,2.6,2.6,0,0,0,.87,1,2.53,2.53,0,0,0,1.16.6l.9.12a3.32,3.32,0,0,0,1.71-.46l.69-.53a3.34,3.34,0,0,0,.87-1.5,7.18,7.18,0,0,0,.4-1.37c.09-.51.16-1,.21-1.56,0-.24,0-.48,0-.72a2.54,2.54,0,0,0-.3-1.3,3.46,3.46,0,0,0-3.1-2.09l-.9.12a3.36,3.36,0,0,0-1.49.87l-.53.69a3.43,3.43,0,0,0-.47,1.71Z"/><path class="cls-6" d="M167.75,35.46s0,.08,0,.13l.12-.9a11.17,11.17,0,0,1-.52,2.2,2.58,2.58,0,0,0-.06,1.35,2.5,2.5,0,0,0,.4,1.26,2.59,2.59,0,0,0,.88,1,2.56,2.56,0,0,0,1.15.61l.9.12a3.42,3.42,0,0,0,1.71-.46l.69-.54a3.36,3.36,0,0,0,.87-1.49,16.25,16.25,0,0,0,.66-3.23,2.55,2.55,0,0,0-.29-1.31,2.53,2.53,0,0,0-.7-1.09,2.5,2.5,0,0,0-1.09-.7,2.58,2.58,0,0,0-1.31-.3l-.9.13a3.34,3.34,0,0,0-1.5.87l-.53.68a3.33,3.33,0,0,0-.46,1.72Z"/></g></g></g></svg>